<mxfile host="Electron" modified="2023-05-14T15:28:47.926Z" agent="Mozilla/5.0 (Windows NT 10.0; Win64; x64) AppleWebKit/537.36 (KHTML, like Gecko) draw.io/21.2.8 Chrome/112.0.5615.165 Electron/24.2.0 Safari/537.36" etag="Cb-4DNSJZ9Hlr8DKlvlU" version="21.2.8" type="device" pages="9">
  <diagram name="Grafo de relación" id="BGxzwk34acvmdzmgTSJW">
    <mxGraphModel dx="2060" dy="1182" grid="1" gridSize="10" guides="1" tooltips="1" connect="1" arrows="1" fold="1" page="1" pageScale="1" pageWidth="827" pageHeight="1169" math="0" shadow="0">
      <root>
        <mxCell id="0" />
        <mxCell id="1" parent="0" />
        <mxCell id="LmqcHp2xft5TAdazTAbJ-7" style="rounded=0;orthogonalLoop=1;jettySize=auto;html=1;" parent="1" source="LmqcHp2xft5TAdazTAbJ-1" target="LmqcHp2xft5TAdazTAbJ-4" edge="1">
          <mxGeometry relative="1" as="geometry" />
        </mxCell>
        <mxCell id="LmqcHp2xft5TAdazTAbJ-9" style="rounded=0;orthogonalLoop=1;jettySize=auto;html=1;entryX=0;entryY=0;entryDx=0;entryDy=0;" parent="1" source="LmqcHp2xft5TAdazTAbJ-1" target="LmqcHp2xft5TAdazTAbJ-3" edge="1">
          <mxGeometry relative="1" as="geometry" />
        </mxCell>
        <mxCell id="LmqcHp2xft5TAdazTAbJ-1" value="Usuario" style="ellipse;whiteSpace=wrap;html=1;aspect=fixed;" parent="1" vertex="1">
          <mxGeometry x="20" y="390" width="120" height="120" as="geometry" />
        </mxCell>
        <mxCell id="LmqcHp2xft5TAdazTAbJ-11" style="rounded=0;orthogonalLoop=1;jettySize=auto;html=1;entryX=0;entryY=0.5;entryDx=0;entryDy=0;" parent="1" source="LmqcHp2xft5TAdazTAbJ-2" target="LmqcHp2xft5TAdazTAbJ-5" edge="1">
          <mxGeometry relative="1" as="geometry" />
        </mxCell>
        <mxCell id="LmqcHp2xft5TAdazTAbJ-12" style="rounded=0;orthogonalLoop=1;jettySize=auto;html=1;entryX=0;entryY=0.5;entryDx=0;entryDy=0;" parent="1" source="LmqcHp2xft5TAdazTAbJ-2" target="LmqcHp2xft5TAdazTAbJ-6" edge="1">
          <mxGeometry relative="1" as="geometry" />
        </mxCell>
        <mxCell id="LmqcHp2xft5TAdazTAbJ-2" value="Simulación" style="ellipse;whiteSpace=wrap;html=1;aspect=fixed;" parent="1" vertex="1">
          <mxGeometry x="460" y="390" width="120" height="120" as="geometry" />
        </mxCell>
        <mxCell id="LmqcHp2xft5TAdazTAbJ-10" style="rounded=0;orthogonalLoop=1;jettySize=auto;html=1;entryX=0;entryY=1;entryDx=0;entryDy=0;" parent="1" source="LmqcHp2xft5TAdazTAbJ-3" target="LmqcHp2xft5TAdazTAbJ-2" edge="1">
          <mxGeometry relative="1" as="geometry" />
        </mxCell>
        <mxCell id="LmqcHp2xft5TAdazTAbJ-3" value="Configurador general de la simulación" style="ellipse;whiteSpace=wrap;html=1;aspect=fixed;" parent="1" vertex="1">
          <mxGeometry x="240" y="580" width="120" height="120" as="geometry" />
        </mxCell>
        <mxCell id="LmqcHp2xft5TAdazTAbJ-8" style="rounded=0;orthogonalLoop=1;jettySize=auto;html=1;entryX=0;entryY=0;entryDx=0;entryDy=0;" parent="1" source="LmqcHp2xft5TAdazTAbJ-4" target="LmqcHp2xft5TAdazTAbJ-2" edge="1">
          <mxGeometry relative="1" as="geometry" />
        </mxCell>
        <mxCell id="LmqcHp2xft5TAdazTAbJ-4" value="Configurador en tiempo real de la simulación" style="ellipse;whiteSpace=wrap;html=1;aspect=fixed;" parent="1" vertex="1">
          <mxGeometry x="240" y="220" width="120" height="120" as="geometry" />
        </mxCell>
        <mxCell id="LmqcHp2xft5TAdazTAbJ-5" value="Entidad 0" style="ellipse;whiteSpace=wrap;html=1;aspect=fixed;" parent="1" vertex="1">
          <mxGeometry x="660" y="300" width="80" height="80" as="geometry" />
        </mxCell>
        <mxCell id="LmqcHp2xft5TAdazTAbJ-6" value="Entidad N-1" style="ellipse;whiteSpace=wrap;html=1;aspect=fixed;" parent="1" vertex="1">
          <mxGeometry x="660" y="545" width="80" height="80" as="geometry" />
        </mxCell>
        <mxCell id="LmqcHp2xft5TAdazTAbJ-13" value="" style="shape=ellipse;html=1;sketch=0;fillColor=#0F0F0F;strokeColor=#000000;" parent="1" vertex="1">
          <mxGeometry x="695" y="440" width="10" height="10" as="geometry" />
        </mxCell>
        <mxCell id="LmqcHp2xft5TAdazTAbJ-14" value="" style="shape=ellipse;html=1;sketch=0;fillColor=#0F0F0F;strokeColor=#000000;" parent="1" vertex="1">
          <mxGeometry x="695" y="460" width="10" height="10" as="geometry" />
        </mxCell>
        <mxCell id="LmqcHp2xft5TAdazTAbJ-15" value="" style="shape=ellipse;html=1;sketch=0;fillColor=#0F0F0F;strokeColor=#000000;" parent="1" vertex="1">
          <mxGeometry x="695" y="480" width="10" height="10" as="geometry" />
        </mxCell>
      </root>
    </mxGraphModel>
  </diagram>
  <diagram id="3WWH12f0JppbuYvDWnVF" name="Old-Configurator">
    <mxGraphModel dx="2060" dy="1182" grid="1" gridSize="10" guides="1" tooltips="1" connect="1" arrows="1" fold="1" page="1" pageScale="1" pageWidth="827" pageHeight="1169" math="0" shadow="0">
      <root>
        <mxCell id="0" />
        <mxCell id="1" parent="0" />
        <mxCell id="7Xd9lInQZcV8D7OXV8k8-1" value="" style="rounded=0;whiteSpace=wrap;html=1;movable=1;resizable=1;rotatable=1;deletable=1;editable=1;connectable=1;fillColor=#dae8fc;strokeColor=#010203;" parent="1" vertex="1">
          <mxGeometry x="120" y="200" width="576" height="324" as="geometry" />
        </mxCell>
        <mxCell id="7Xd9lInQZcV8D7OXV8k8-2" value="" style="endArrow=none;html=1;rounded=0;exitX=1;exitY=0;exitDx=0;exitDy=0;entryX=1;entryY=1;entryDx=0;entryDy=0;movable=0;resizable=0;rotatable=0;deletable=0;editable=0;connectable=0;" parent="1" source="7Xd9lInQZcV8D7OXV8k8-21" target="7Xd9lInQZcV8D7OXV8k8-1" edge="1">
          <mxGeometry width="50" height="50" relative="1" as="geometry">
            <mxPoint x="350" y="370" as="sourcePoint" />
            <mxPoint x="400" y="320" as="targetPoint" />
          </mxGeometry>
        </mxCell>
        <mxCell id="7Xd9lInQZcV8D7OXV8k8-3" value="" style="endArrow=none;html=1;rounded=0;exitX=1;exitY=1;exitDx=0;exitDy=0;entryX=1;entryY=0;entryDx=0;entryDy=0;movable=0;resizable=0;rotatable=0;deletable=0;editable=0;connectable=0;" parent="1" source="7Xd9lInQZcV8D7OXV8k8-18" target="7Xd9lInQZcV8D7OXV8k8-1" edge="1">
          <mxGeometry width="50" height="50" relative="1" as="geometry">
            <mxPoint x="350" y="370" as="sourcePoint" />
            <mxPoint x="400" y="320" as="targetPoint" />
          </mxGeometry>
        </mxCell>
        <mxCell id="7Xd9lInQZcV8D7OXV8k8-4" value="" style="rounded=0;whiteSpace=wrap;html=1;movable=1;resizable=1;rotatable=1;deletable=1;editable=1;connectable=1;fillColor=#f5f5f5;fontColor=#333333;strokeColor=default;" parent="1" vertex="1">
          <mxGeometry x="120" y="200" width="160" height="324" as="geometry" />
        </mxCell>
        <mxCell id="7Xd9lInQZcV8D7OXV8k8-5" value="Número de vueltas" style="rounded=0;whiteSpace=wrap;html=1;verticalAlign=top;fontSize=10;spacing=-1;" parent="1" vertex="1">
          <mxGeometry x="120" y="250" width="160" height="54" as="geometry" />
        </mxCell>
        <mxCell id="7Xd9lInQZcV8D7OXV8k8-6" value="Número de coches" style="rounded=0;whiteSpace=wrap;html=1;fontSize=10;spacing=-1;verticalAlign=top;" parent="1" vertex="1">
          <mxGeometry x="120" y="310" width="160" height="54" as="geometry" />
        </mxCell>
        <mxCell id="7Xd9lInQZcV8D7OXV8k8-7" value="Hora del día" style="rounded=0;whiteSpace=wrap;html=1;fontSize=10;verticalAlign=top;spacing=-1;" parent="1" vertex="1">
          <mxGeometry x="120" y="370" width="160" height="54" as="geometry" />
        </mxCell>
        <mxCell id="7Xd9lInQZcV8D7OXV8k8-8" value="Disciplina" style="rounded=0;whiteSpace=wrap;html=1;fontSize=10;align=left;spacingLeft=5;" parent="1" vertex="1">
          <mxGeometry x="120" y="430" width="160" height="54" as="geometry" />
        </mxCell>
        <mxCell id="7Xd9lInQZcV8D7OXV8k8-9" value="" style="rounded=0;whiteSpace=wrap;html=1;movable=1;resizable=1;rotatable=1;deletable=1;editable=1;connectable=1;" parent="1" vertex="1">
          <mxGeometry x="400" y="260" width="190" height="190" as="geometry" />
        </mxCell>
        <mxCell id="7Xd9lInQZcV8D7OXV8k8-15" value="Ejecutar" style="rounded=0;whiteSpace=wrap;html=1;" parent="1" vertex="1">
          <mxGeometry x="580" y="470" width="100" height="40" as="geometry" />
        </mxCell>
        <mxCell id="7Xd9lInQZcV8D7OXV8k8-17" value="Guardar configuración" style="rounded=0;whiteSpace=wrap;html=1;fontSize=10;" parent="1" vertex="1">
          <mxGeometry x="120" y="490" width="80" height="34" as="geometry" />
        </mxCell>
        <mxCell id="7Xd9lInQZcV8D7OXV8k8-18" value="Cargar configuración" style="rounded=0;whiteSpace=wrap;html=1;fontSize=10;" parent="1" vertex="1">
          <mxGeometry x="200" y="490" width="80" height="34" as="geometry" />
        </mxCell>
        <mxCell id="7Xd9lInQZcV8D7OXV8k8-21" value="LOGO" style="rounded=0;whiteSpace=wrap;html=1;strokeColor=default;fillColor=#f8cecc;verticalAlign=top;fontStyle=1;spacing=-2;" parent="1" vertex="1">
          <mxGeometry x="120" y="200" width="160" height="40" as="geometry" />
        </mxCell>
        <mxCell id="7Xd9lInQZcV8D7OXV8k8-23" value="" style="triangle;whiteSpace=wrap;html=1;strokeColor=#666666;fillColor=#f5f5f5;fontColor=#333333;" parent="1" vertex="1">
          <mxGeometry x="615" y="310" width="30" height="80" as="geometry" />
        </mxCell>
        <mxCell id="7Xd9lInQZcV8D7OXV8k8-24" value="" style="triangle;whiteSpace=wrap;html=1;strokeColor=#666666;fillColor=#f5f5f5;flipH=1;fontColor=#333333;" parent="1" vertex="1">
          <mxGeometry x="345" y="310" width="30" height="80" as="geometry" />
        </mxCell>
        <mxCell id="7Xd9lInQZcV8D7OXV8k8-25" value="" style="html=1;verticalLabelPosition=bottom;labelBackgroundColor=#ffffff;verticalAlign=top;shadow=0;dashed=0;strokeWidth=1;shape=mxgraph.ios7ui.slider;barPos=29.17;strokeColor=#001E38;strokeColor2=#a0a0a0;fillColor=default;" parent="1" vertex="1">
          <mxGeometry x="140" y="275" width="115" height="15" as="geometry" />
        </mxCell>
        <mxCell id="7Xd9lInQZcV8D7OXV8k8-26" value="" style="endArrow=none;html=1;rounded=0;exitX=0;exitY=1;exitDx=0;exitDy=0;entryX=1;entryY=0;entryDx=0;entryDy=0;movable=0;resizable=0;rotatable=0;deletable=0;editable=0;connectable=0;" parent="1" source="7Xd9lInQZcV8D7OXV8k8-21" target="7Xd9lInQZcV8D7OXV8k8-21" edge="1">
          <mxGeometry width="50" height="50" relative="1" as="geometry">
            <mxPoint x="310" y="280" as="sourcePoint" />
            <mxPoint x="360" y="230" as="targetPoint" />
          </mxGeometry>
        </mxCell>
        <mxCell id="7Xd9lInQZcV8D7OXV8k8-27" value="" style="endArrow=none;html=1;rounded=0;exitX=0;exitY=0;exitDx=0;exitDy=0;entryX=1;entryY=1;entryDx=0;entryDy=0;movable=0;resizable=0;rotatable=0;deletable=0;editable=0;connectable=0;" parent="1" source="7Xd9lInQZcV8D7OXV8k8-21" target="7Xd9lInQZcV8D7OXV8k8-21" edge="1">
          <mxGeometry width="50" height="50" relative="1" as="geometry">
            <mxPoint x="310" y="280" as="sourcePoint" />
            <mxPoint x="360" y="230" as="targetPoint" />
          </mxGeometry>
        </mxCell>
        <mxCell id="7Xd9lInQZcV8D7OXV8k8-29" value="1" style="text;html=1;strokeColor=none;fillColor=none;align=center;verticalAlign=middle;whiteSpace=wrap;rounded=0;fontSize=10;" parent="1" vertex="1">
          <mxGeometry x="120" y="267.5" width="20" height="30" as="geometry" />
        </mxCell>
        <mxCell id="7Xd9lInQZcV8D7OXV8k8-30" value="100" style="text;html=1;strokeColor=none;fillColor=none;align=center;verticalAlign=middle;whiteSpace=wrap;rounded=0;fontSize=10;" parent="1" vertex="1">
          <mxGeometry x="258" y="267.5" width="20" height="30" as="geometry" />
        </mxCell>
        <mxCell id="7Xd9lInQZcV8D7OXV8k8-31" value="33 vueltas" style="text;html=1;strokeColor=none;fillColor=none;align=center;verticalAlign=middle;whiteSpace=wrap;rounded=0;fontSize=10;" parent="1" vertex="1">
          <mxGeometry x="166" y="285" width="65" height="20" as="geometry" />
        </mxCell>
        <mxCell id="7Xd9lInQZcV8D7OXV8k8-32" value="" style="html=1;verticalLabelPosition=bottom;labelBackgroundColor=#ffffff;verticalAlign=top;shadow=0;dashed=0;strokeWidth=1;shape=mxgraph.ios7ui.slider;barPos=29.17;strokeColor=#001E38;strokeColor2=#a0a0a0;fillColor=default;" parent="1" vertex="1">
          <mxGeometry x="140" y="335" width="115" height="15" as="geometry" />
        </mxCell>
        <mxCell id="7Xd9lInQZcV8D7OXV8k8-33" value="2" style="text;html=1;strokeColor=none;fillColor=none;align=center;verticalAlign=middle;whiteSpace=wrap;rounded=0;fontSize=10;" parent="1" vertex="1">
          <mxGeometry x="121" y="327.5" width="20" height="30" as="geometry" />
        </mxCell>
        <mxCell id="7Xd9lInQZcV8D7OXV8k8-34" value="15" style="text;html=1;strokeColor=none;fillColor=none;align=center;verticalAlign=middle;whiteSpace=wrap;rounded=0;fontSize=10;" parent="1" vertex="1">
          <mxGeometry x="258" y="327.5" width="20" height="30" as="geometry" />
        </mxCell>
        <mxCell id="7Xd9lInQZcV8D7OXV8k8-35" value="4 coches" style="text;html=1;strokeColor=none;fillColor=none;align=center;verticalAlign=middle;whiteSpace=wrap;rounded=0;fontSize=10;" parent="1" vertex="1">
          <mxGeometry x="165" y="345" width="65" height="20" as="geometry" />
        </mxCell>
        <mxCell id="7Xd9lInQZcV8D7OXV8k8-39" value="" style="html=1;verticalLabelPosition=bottom;labelBackgroundColor=#ffffff;verticalAlign=top;shadow=0;dashed=0;strokeWidth=1;shape=mxgraph.ios7ui.slider;barPos=42.48;strokeColor=#001E38;strokeColor2=#a0a0a0;fillColor=default;" parent="1" vertex="1">
          <mxGeometry x="152.5" y="394" width="95" height="15" as="geometry" />
        </mxCell>
        <mxCell id="7Xd9lInQZcV8D7OXV8k8-40" value="00:00" style="text;html=1;strokeColor=none;fillColor=none;align=center;verticalAlign=middle;whiteSpace=wrap;rounded=0;fontSize=10;" parent="1" vertex="1">
          <mxGeometry x="121" y="386.5" width="29" height="30" as="geometry" />
        </mxCell>
        <mxCell id="7Xd9lInQZcV8D7OXV8k8-41" value="23:00" style="text;html=1;strokeColor=none;fillColor=none;align=center;verticalAlign=middle;whiteSpace=wrap;rounded=0;fontSize=10;" parent="1" vertex="1">
          <mxGeometry x="250" y="386.5" width="28" height="30" as="geometry" />
        </mxCell>
        <mxCell id="7Xd9lInQZcV8D7OXV8k8-42" value="11:00" style="text;html=1;strokeColor=none;fillColor=none;align=center;verticalAlign=middle;whiteSpace=wrap;rounded=0;fontSize=10;" parent="1" vertex="1">
          <mxGeometry x="165" y="404" width="65" height="20" as="geometry" />
        </mxCell>
        <mxCell id="7Xd9lInQZcV8D7OXV8k8-43" value="Fórmula" style="rounded=0;whiteSpace=wrap;html=1;strokeColor=#001E38;fontSize=10;fillColor=default;align=left;spacingLeft=5;" parent="1" vertex="1">
          <mxGeometry x="190" y="447" width="80" height="20" as="geometry" />
        </mxCell>
        <mxCell id="7Xd9lInQZcV8D7OXV8k8-44" value="" style="triangle;whiteSpace=wrap;html=1;strokeColor=#666666;fontSize=10;fillColor=#f5f5f5;rotation=90;fontColor=#333333;" parent="1" vertex="1">
          <mxGeometry x="258" y="452" width="6" height="10" as="geometry" />
        </mxCell>
        <mxCell id="7Xd9lInQZcV8D7OXV8k8-46" value="Nombre" style="rounded=0;whiteSpace=wrap;html=1;strokeColor=default;fillColor=default;fontSize=10;verticalAlign=middle;align=left;spacingLeft=10;" parent="1" vertex="1">
          <mxGeometry x="400" y="265" width="190" height="25" as="geometry" />
        </mxCell>
        <mxCell id="7Xd9lInQZcV8D7OXV8k8-47" value="Nacionalidad" style="rounded=0;whiteSpace=wrap;html=1;strokeColor=default;fillColor=default;fontSize=10;align=left;spacingLeft=10;" parent="1" vertex="1">
          <mxGeometry x="400" y="330" width="190" height="25" as="geometry" />
        </mxCell>
        <mxCell id="7Xd9lInQZcV8D7OXV8k8-49" value="Aguante físico y mental" style="rounded=0;whiteSpace=wrap;html=1;strokeColor=default;fillColor=default;verticalAlign=top;spacingTop=-3;fontSize=10;" parent="1" vertex="1">
          <mxGeometry x="400" y="362" width="190" height="39" as="geometry" />
        </mxCell>
        <mxCell id="7Xd9lInQZcV8D7OXV8k8-50" value="Abcdefg" style="rounded=0;whiteSpace=wrap;html=1;fontSize=10;" parent="1" vertex="1">
          <mxGeometry x="500" y="268.75" width="80" height="17.5" as="geometry" />
        </mxCell>
        <mxCell id="7Xd9lInQZcV8D7OXV8k8-51" value="Apellidos" style="rounded=0;whiteSpace=wrap;html=1;strokeColor=default;fillColor=default;fontSize=10;verticalAlign=middle;align=left;spacingLeft=10;" parent="1" vertex="1">
          <mxGeometry x="400" y="297.5" width="190" height="25" as="geometry" />
        </mxCell>
        <mxCell id="7Xd9lInQZcV8D7OXV8k8-52" value="Abcd Efgh" style="rounded=0;whiteSpace=wrap;html=1;fontSize=10;" parent="1" vertex="1">
          <mxGeometry x="500" y="301.25" width="80" height="17.5" as="geometry" />
        </mxCell>
        <mxCell id="7Xd9lInQZcV8D7OXV8k8-54" value="España" style="rounded=0;whiteSpace=wrap;html=1;strokeColor=#001E38;fontSize=10;fillColor=default;align=left;spacingLeft=5;" parent="1" vertex="1">
          <mxGeometry x="500" y="333.75" width="80" height="17.5" as="geometry" />
        </mxCell>
        <mxCell id="7Xd9lInQZcV8D7OXV8k8-55" value="" style="triangle;whiteSpace=wrap;html=1;strokeColor=#666666;fontSize=10;fillColor=#f5f5f5;rotation=90;fontColor=#333333;" parent="1" vertex="1">
          <mxGeometry x="568" y="337.5" width="6" height="10" as="geometry" />
        </mxCell>
        <mxCell id="7Xd9lInQZcV8D7OXV8k8-57" value="" style="html=1;verticalLabelPosition=bottom;labelBackgroundColor=#ffffff;verticalAlign=top;shadow=0;dashed=0;strokeWidth=1;shape=mxgraph.ios7ui.slider;barPos=42.48;strokeColor=#001E38;strokeColor2=#a0a0a0;fillColor=default;" parent="1" vertex="1">
          <mxGeometry x="447.5" y="382.5" width="95" height="15" as="geometry" />
        </mxCell>
        <mxCell id="7Xd9lInQZcV8D7OXV8k8-58" value="Poco" style="text;html=1;strokeColor=none;fillColor=none;align=center;verticalAlign=middle;whiteSpace=wrap;rounded=0;fontSize=10;" parent="1" vertex="1">
          <mxGeometry x="400" y="375" width="40" height="30" as="geometry" />
        </mxCell>
        <mxCell id="7Xd9lInQZcV8D7OXV8k8-59" value="Mucho" style="text;html=1;strokeColor=none;fillColor=none;align=center;verticalAlign=middle;whiteSpace=wrap;rounded=0;fontSize=10;" parent="1" vertex="1">
          <mxGeometry x="550" y="375" width="40" height="30" as="geometry" />
        </mxCell>
        <mxCell id="7Xd9lInQZcV8D7OXV8k8-61" value="Nivel de experiencia" style="rounded=0;whiteSpace=wrap;html=1;strokeColor=default;fillColor=default;verticalAlign=top;spacingTop=-3;fontSize=10;" parent="1" vertex="1">
          <mxGeometry x="400" y="407" width="190" height="39" as="geometry" />
        </mxCell>
        <mxCell id="7Xd9lInQZcV8D7OXV8k8-62" value="" style="html=1;verticalLabelPosition=bottom;labelBackgroundColor=#ffffff;verticalAlign=top;shadow=0;dashed=0;strokeWidth=1;shape=mxgraph.ios7ui.slider;barPos=42.48;strokeColor=#001E38;strokeColor2=#a0a0a0;fillColor=default;" parent="1" vertex="1">
          <mxGeometry x="447.5" y="427.5" width="95" height="15" as="geometry" />
        </mxCell>
        <mxCell id="7Xd9lInQZcV8D7OXV8k8-63" value="Rookie" style="text;html=1;strokeColor=none;fillColor=none;align=center;verticalAlign=middle;whiteSpace=wrap;rounded=0;fontSize=10;" parent="1" vertex="1">
          <mxGeometry x="400" y="420" width="40" height="30" as="geometry" />
        </mxCell>
        <mxCell id="7Xd9lInQZcV8D7OXV8k8-64" value="Pro" style="text;html=1;strokeColor=none;fillColor=none;align=center;verticalAlign=middle;whiteSpace=wrap;rounded=0;fontSize=10;" parent="1" vertex="1">
          <mxGeometry x="550" y="420" width="40" height="30" as="geometry" />
        </mxCell>
      </root>
    </mxGraphModel>
  </diagram>
  <diagram id="RjB4iJDKie1SUWj658oz" name="UI-During-Race">
    <mxGraphModel dx="2060" dy="1182" grid="1" gridSize="10" guides="1" tooltips="1" connect="1" arrows="1" fold="1" page="1" pageScale="1" pageWidth="827" pageHeight="1169" math="0" shadow="0">
      <root>
        <mxCell id="0" />
        <mxCell id="1" parent="0" />
        <mxCell id="FnkW7_XvczWB26l1qbnQ-1" value="" style="rounded=0;whiteSpace=wrap;html=1;fontSize=10;fillColor=#f5f5f5;fontColor=#333333;strokeColor=#666666;" parent="1" vertex="1">
          <mxGeometry x="126" y="160" width="576" height="324" as="geometry" />
        </mxCell>
        <mxCell id="FnkW7_XvczWB26l1qbnQ-2" value="" style="rounded=0;whiteSpace=wrap;html=1;fontSize=10;" parent="1" vertex="1">
          <mxGeometry x="126" y="160" width="120" height="324" as="geometry" />
        </mxCell>
        <mxCell id="FnkW7_XvczWB26l1qbnQ-3" value="LAP XX / YY" style="rounded=0;whiteSpace=wrap;html=1;fontSize=10;" parent="1" vertex="1">
          <mxGeometry x="126" y="160" width="120" height="50" as="geometry" />
        </mxCell>
        <mxCell id="FnkW7_XvczWB26l1qbnQ-4" value="A. ABC" style="rounded=0;whiteSpace=wrap;html=1;fontSize=10;spacingLeft=-25;" parent="1" vertex="1">
          <mxGeometry x="126" y="220" width="120" height="20" as="geometry" />
        </mxCell>
        <mxCell id="FnkW7_XvczWB26l1qbnQ-5" value="1" style="rounded=0;whiteSpace=wrap;html=1;fontSize=10;" parent="1" vertex="1">
          <mxGeometry x="126" y="220" width="24" height="20" as="geometry" />
        </mxCell>
        <mxCell id="FnkW7_XvczWB26l1qbnQ-6" value="B. BCD" style="rounded=0;whiteSpace=wrap;html=1;fontSize=10;spacingLeft=-25;" parent="1" vertex="1">
          <mxGeometry x="126" y="240" width="120" height="20" as="geometry" />
        </mxCell>
        <mxCell id="FnkW7_XvczWB26l1qbnQ-7" value="2" style="rounded=0;whiteSpace=wrap;html=1;fontSize=10;" parent="1" vertex="1">
          <mxGeometry x="126" y="240" width="24" height="20" as="geometry" />
        </mxCell>
        <mxCell id="TQxhGn0PWakONRUxL9jK-1" value="" style="edgeStyle=orthogonalEdgeStyle;rounded=0;orthogonalLoop=1;jettySize=auto;html=1;" parent="1" source="FnkW7_XvczWB26l1qbnQ-8" target="Wye4ol9-Rul8zxaYPqaY-3" edge="1">
          <mxGeometry relative="1" as="geometry" />
        </mxCell>
        <mxCell id="FnkW7_XvczWB26l1qbnQ-8" value="C. CDE" style="rounded=0;whiteSpace=wrap;html=1;fontSize=10;spacingLeft=-25;" parent="1" vertex="1">
          <mxGeometry x="126" y="260" width="120" height="20" as="geometry" />
        </mxCell>
        <mxCell id="FnkW7_XvczWB26l1qbnQ-9" value="3" style="rounded=0;whiteSpace=wrap;html=1;fontSize=10;" parent="1" vertex="1">
          <mxGeometry x="126" y="260" width="24" height="20" as="geometry" />
        </mxCell>
        <mxCell id="FnkW7_XvczWB26l1qbnQ-10" value="D. DEF" style="rounded=0;whiteSpace=wrap;html=1;fontSize=10;spacingLeft=-25;verticalAlign=top;spacingTop=-2;" parent="1" vertex="1">
          <mxGeometry x="126" y="280" width="120" height="100" as="geometry" />
        </mxCell>
        <mxCell id="FnkW7_XvczWB26l1qbnQ-11" value="4" style="rounded=0;whiteSpace=wrap;html=1;fontSize=10;" parent="1" vertex="1">
          <mxGeometry x="126" y="280" width="24" height="20" as="geometry" />
        </mxCell>
        <mxCell id="FnkW7_XvczWB26l1qbnQ-12" value="E. EFG" style="rounded=0;whiteSpace=wrap;html=1;fontSize=10;spacingLeft=-25;" parent="1" vertex="1">
          <mxGeometry x="126" y="380" width="120" height="20" as="geometry" />
        </mxCell>
        <mxCell id="FnkW7_XvczWB26l1qbnQ-13" value="5" style="rounded=0;whiteSpace=wrap;html=1;fontSize=10;" parent="1" vertex="1">
          <mxGeometry x="126" y="380" width="24" height="20" as="geometry" />
        </mxCell>
        <mxCell id="FnkW7_XvczWB26l1qbnQ-14" value="Aguante físico y mental" style="rounded=0;whiteSpace=wrap;html=1;fontSize=10;verticalAlign=top;spacingTop=-4;" parent="1" vertex="1">
          <mxGeometry x="131" y="305" width="110" height="30" as="geometry" />
        </mxCell>
        <mxCell id="Wye4ol9-Rul8zxaYPqaY-1" value="" style="html=1;verticalLabelPosition=bottom;labelBackgroundColor=#ffffff;verticalAlign=top;shadow=0;dashed=0;strokeWidth=1;shape=mxgraph.ios7ui.slider;barPos=42.48;strokeColor=#001E38;strokeColor2=#a0a0a0;fillColor=default;" parent="1" vertex="1">
          <mxGeometry x="138.5" y="319.5" width="95" height="15" as="geometry" />
        </mxCell>
        <mxCell id="Wye4ol9-Rul8zxaYPqaY-2" value="Agresividad" style="rounded=0;whiteSpace=wrap;html=1;fontSize=10;verticalAlign=top;spacingTop=-4;" parent="1" vertex="1">
          <mxGeometry x="131" y="341" width="110" height="30" as="geometry" />
        </mxCell>
        <mxCell id="Wye4ol9-Rul8zxaYPqaY-3" value="" style="html=1;verticalLabelPosition=bottom;labelBackgroundColor=#ffffff;verticalAlign=top;shadow=0;dashed=0;strokeWidth=1;shape=mxgraph.ios7ui.slider;barPos=42.48;strokeColor=#001E38;strokeColor2=#a0a0a0;fillColor=default;" parent="1" vertex="1">
          <mxGeometry x="138.5" y="355.5" width="95" height="15" as="geometry" />
        </mxCell>
        <mxCell id="mFHftxAEsn64MT_9LjvU-1" value="" style="endArrow=none;html=1;rounded=0;fontSize=10;exitX=1;exitY=1;exitDx=0;exitDy=0;entryX=1;entryY=0;entryDx=0;entryDy=0;" parent="1" source="FnkW7_XvczWB26l1qbnQ-2" target="FnkW7_XvczWB26l1qbnQ-1" edge="1">
          <mxGeometry width="50" height="50" relative="1" as="geometry">
            <mxPoint x="390" y="350" as="sourcePoint" />
            <mxPoint x="440" y="300" as="targetPoint" />
          </mxGeometry>
        </mxCell>
        <mxCell id="mFHftxAEsn64MT_9LjvU-3" value="" style="rounded=1;whiteSpace=wrap;html=1;fontSize=10;" parent="1" vertex="1">
          <mxGeometry x="670" y="170" width="20" height="20" as="geometry" />
        </mxCell>
        <mxCell id="mFHftxAEsn64MT_9LjvU-2" value="" style="html=1;verticalLabelPosition=bottom;align=center;labelBackgroundColor=#ffffff;verticalAlign=top;strokeWidth=2;strokeColor=default;shadow=0;dashed=0;shape=mxgraph.ios7.icons.pause;pointerEvents=1;fontSize=10;fillColor=#000000;" parent="1" vertex="1">
          <mxGeometry x="675" y="174" width="10" height="12" as="geometry" />
        </mxCell>
        <mxCell id="mFHftxAEsn64MT_9LjvU-4" value="x1" style="rounded=1;whiteSpace=wrap;html=1;fontSize=10;" parent="1" vertex="1">
          <mxGeometry x="670" y="200" width="20" height="20" as="geometry" />
        </mxCell>
        <mxCell id="mFHftxAEsn64MT_9LjvU-5" value="" style="endArrow=none;html=1;rounded=0;fontSize=10;exitX=1;exitY=0;exitDx=0;exitDy=0;entryX=1;entryY=1;entryDx=0;entryDy=0;" parent="1" source="FnkW7_XvczWB26l1qbnQ-3" target="FnkW7_XvczWB26l1qbnQ-1" edge="1">
          <mxGeometry width="50" height="50" relative="1" as="geometry">
            <mxPoint x="900" y="190" as="sourcePoint" />
            <mxPoint x="950" y="140" as="targetPoint" />
          </mxGeometry>
        </mxCell>
      </root>
    </mxGraphModel>
  </diagram>
  <diagram name="UI-Before-Race" id="NUnLg7Nyhy_uKfcKE2oH">
    <mxGraphModel dx="981" dy="563" grid="1" gridSize="10" guides="1" tooltips="1" connect="1" arrows="1" fold="1" page="1" pageScale="1" pageWidth="827" pageHeight="1169" math="0" shadow="0">
      <root>
        <mxCell id="SLDgNxTCSw0Q0aYEvE-9-0" />
        <mxCell id="SLDgNxTCSw0Q0aYEvE-9-1" parent="SLDgNxTCSw0Q0aYEvE-9-0" />
        <mxCell id="rVv-E8f4XrO-V_a-9UWN-0" value="" style="group" vertex="1" connectable="0" parent="SLDgNxTCSw0Q0aYEvE-9-1">
          <mxGeometry x="120" y="200" width="576" height="324" as="geometry" />
        </mxCell>
        <mxCell id="SLDgNxTCSw0Q0aYEvE-9-2" value="" style="rounded=0;whiteSpace=wrap;html=1;movable=1;resizable=1;rotatable=1;deletable=1;editable=1;connectable=1;fillColor=#dae8fc;strokeColor=#010203;" parent="rVv-E8f4XrO-V_a-9UWN-0" vertex="1">
          <mxGeometry width="576" height="324" as="geometry" />
        </mxCell>
        <mxCell id="SLDgNxTCSw0Q0aYEvE-9-3" value="" style="endArrow=none;html=1;rounded=0;exitX=1;exitY=0;exitDx=0;exitDy=0;entryX=1;entryY=1;entryDx=0;entryDy=0;movable=0;resizable=0;rotatable=0;deletable=0;editable=0;connectable=0;" parent="rVv-E8f4XrO-V_a-9UWN-0" source="SLDgNxTCSw0Q0aYEvE-9-14" target="SLDgNxTCSw0Q0aYEvE-9-2" edge="1">
          <mxGeometry width="50" height="50" relative="1" as="geometry">
            <mxPoint x="230" y="170" as="sourcePoint" />
            <mxPoint x="280" y="120" as="targetPoint" />
          </mxGeometry>
        </mxCell>
        <mxCell id="SLDgNxTCSw0Q0aYEvE-9-4" value="" style="endArrow=none;html=1;rounded=0;exitX=1;exitY=1;exitDx=0;exitDy=0;entryX=1;entryY=0;entryDx=0;entryDy=0;movable=0;resizable=0;rotatable=0;deletable=0;editable=0;connectable=0;" parent="rVv-E8f4XrO-V_a-9UWN-0" source="SLDgNxTCSw0Q0aYEvE-9-13" target="SLDgNxTCSw0Q0aYEvE-9-2" edge="1">
          <mxGeometry width="50" height="50" relative="1" as="geometry">
            <mxPoint x="230" y="170" as="sourcePoint" />
            <mxPoint x="280" y="120" as="targetPoint" />
          </mxGeometry>
        </mxCell>
        <mxCell id="SLDgNxTCSw0Q0aYEvE-9-5" value="" style="rounded=0;whiteSpace=wrap;html=1;movable=1;resizable=1;rotatable=1;deletable=1;editable=1;connectable=1;fillColor=#f5f5f5;fontColor=#333333;strokeColor=default;" parent="rVv-E8f4XrO-V_a-9UWN-0" vertex="1">
          <mxGeometry width="160" height="324" as="geometry" />
        </mxCell>
        <mxCell id="SLDgNxTCSw0Q0aYEvE-9-6" value="Número de vueltas" style="rounded=0;whiteSpace=wrap;html=1;verticalAlign=top;fontSize=10;spacing=-1;" parent="rVv-E8f4XrO-V_a-9UWN-0" vertex="1">
          <mxGeometry y="50" width="160" height="54" as="geometry" />
        </mxCell>
        <mxCell id="SLDgNxTCSw0Q0aYEvE-9-7" value="Número de coches" style="rounded=0;whiteSpace=wrap;html=1;fontSize=10;spacing=-1;verticalAlign=top;" parent="rVv-E8f4XrO-V_a-9UWN-0" vertex="1">
          <mxGeometry y="110" width="160" height="54" as="geometry" />
        </mxCell>
        <mxCell id="SLDgNxTCSw0Q0aYEvE-9-9" value="Disciplina" style="rounded=0;whiteSpace=wrap;html=1;fontSize=10;align=left;spacingLeft=5;" parent="rVv-E8f4XrO-V_a-9UWN-0" vertex="1">
          <mxGeometry y="170" width="160" height="54" as="geometry" />
        </mxCell>
        <mxCell id="SLDgNxTCSw0Q0aYEvE-9-11" value="Ejecutar" style="rounded=0;whiteSpace=wrap;html=1;" parent="rVv-E8f4XrO-V_a-9UWN-0" vertex="1">
          <mxGeometry x="460" y="270" width="100" height="40" as="geometry" />
        </mxCell>
        <mxCell id="SLDgNxTCSw0Q0aYEvE-9-12" value="Guardar configuración" style="rounded=0;whiteSpace=wrap;html=1;fontSize=10;" parent="rVv-E8f4XrO-V_a-9UWN-0" vertex="1">
          <mxGeometry y="290" width="80" height="34" as="geometry" />
        </mxCell>
        <mxCell id="SLDgNxTCSw0Q0aYEvE-9-13" value="Cargar configuración" style="rounded=0;whiteSpace=wrap;html=1;fontSize=10;" parent="rVv-E8f4XrO-V_a-9UWN-0" vertex="1">
          <mxGeometry x="80" y="290" width="80" height="34" as="geometry" />
        </mxCell>
        <mxCell id="SLDgNxTCSw0Q0aYEvE-9-14" value="LOGO" style="rounded=0;whiteSpace=wrap;html=1;strokeColor=default;fillColor=#f8cecc;verticalAlign=top;fontStyle=1;spacing=-2;" parent="rVv-E8f4XrO-V_a-9UWN-0" vertex="1">
          <mxGeometry width="160" height="40" as="geometry" />
        </mxCell>
        <mxCell id="SLDgNxTCSw0Q0aYEvE-9-15" value="" style="triangle;whiteSpace=wrap;html=1;strokeColor=default;fillColor=#f5f5f5;fontColor=#333333;" parent="rVv-E8f4XrO-V_a-9UWN-0" vertex="1">
          <mxGeometry x="490" y="110" width="30" height="80" as="geometry" />
        </mxCell>
        <mxCell id="SLDgNxTCSw0Q0aYEvE-9-16" value="" style="triangle;whiteSpace=wrap;html=1;strokeColor=default;fillColor=#f5f5f5;flipH=1;fontColor=#333333;" parent="rVv-E8f4XrO-V_a-9UWN-0" vertex="1">
          <mxGeometry x="230" y="110" width="30" height="80" as="geometry" />
        </mxCell>
        <mxCell id="SLDgNxTCSw0Q0aYEvE-9-17" value="" style="html=1;verticalLabelPosition=bottom;labelBackgroundColor=#ffffff;verticalAlign=top;shadow=0;dashed=0;strokeWidth=1;shape=mxgraph.ios7ui.slider;barPos=29.17;strokeColor=#001E38;strokeColor2=#a0a0a0;fillColor=default;" parent="rVv-E8f4XrO-V_a-9UWN-0" vertex="1">
          <mxGeometry x="20" y="75" width="115" height="15" as="geometry" />
        </mxCell>
        <mxCell id="SLDgNxTCSw0Q0aYEvE-9-18" value="" style="endArrow=none;html=1;rounded=0;exitX=0;exitY=1;exitDx=0;exitDy=0;entryX=1;entryY=0;entryDx=0;entryDy=0;movable=0;resizable=0;rotatable=0;deletable=0;editable=0;connectable=0;" parent="rVv-E8f4XrO-V_a-9UWN-0" source="SLDgNxTCSw0Q0aYEvE-9-14" target="SLDgNxTCSw0Q0aYEvE-9-14" edge="1">
          <mxGeometry width="50" height="50" relative="1" as="geometry">
            <mxPoint x="190" y="80" as="sourcePoint" />
            <mxPoint x="240" y="30" as="targetPoint" />
          </mxGeometry>
        </mxCell>
        <mxCell id="SLDgNxTCSw0Q0aYEvE-9-19" value="" style="endArrow=none;html=1;rounded=0;exitX=0;exitY=0;exitDx=0;exitDy=0;entryX=1;entryY=1;entryDx=0;entryDy=0;movable=0;resizable=0;rotatable=0;deletable=0;editable=0;connectable=0;" parent="rVv-E8f4XrO-V_a-9UWN-0" source="SLDgNxTCSw0Q0aYEvE-9-14" target="SLDgNxTCSw0Q0aYEvE-9-14" edge="1">
          <mxGeometry width="50" height="50" relative="1" as="geometry">
            <mxPoint x="190" y="80" as="sourcePoint" />
            <mxPoint x="240" y="30" as="targetPoint" />
          </mxGeometry>
        </mxCell>
        <mxCell id="SLDgNxTCSw0Q0aYEvE-9-20" value="1" style="text;html=1;strokeColor=none;fillColor=none;align=center;verticalAlign=middle;whiteSpace=wrap;rounded=0;fontSize=10;" parent="rVv-E8f4XrO-V_a-9UWN-0" vertex="1">
          <mxGeometry y="67.5" width="20" height="30" as="geometry" />
        </mxCell>
        <mxCell id="SLDgNxTCSw0Q0aYEvE-9-21" value="100" style="text;html=1;strokeColor=none;fillColor=none;align=center;verticalAlign=middle;whiteSpace=wrap;rounded=0;fontSize=10;" parent="rVv-E8f4XrO-V_a-9UWN-0" vertex="1">
          <mxGeometry x="138" y="67.5" width="20" height="30" as="geometry" />
        </mxCell>
        <mxCell id="SLDgNxTCSw0Q0aYEvE-9-22" value="33 vueltas" style="text;html=1;strokeColor=none;fillColor=none;align=center;verticalAlign=middle;whiteSpace=wrap;rounded=0;fontSize=10;" parent="rVv-E8f4XrO-V_a-9UWN-0" vertex="1">
          <mxGeometry x="46" y="85" width="65" height="20" as="geometry" />
        </mxCell>
        <mxCell id="SLDgNxTCSw0Q0aYEvE-9-23" value="" style="html=1;verticalLabelPosition=bottom;labelBackgroundColor=#ffffff;verticalAlign=top;shadow=0;dashed=0;strokeWidth=1;shape=mxgraph.ios7ui.slider;barPos=29.17;strokeColor=#001E38;strokeColor2=#a0a0a0;fillColor=default;" parent="rVv-E8f4XrO-V_a-9UWN-0" vertex="1">
          <mxGeometry x="20" y="135" width="115" height="15" as="geometry" />
        </mxCell>
        <mxCell id="SLDgNxTCSw0Q0aYEvE-9-24" value="2" style="text;html=1;strokeColor=none;fillColor=none;align=center;verticalAlign=middle;whiteSpace=wrap;rounded=0;fontSize=10;" parent="rVv-E8f4XrO-V_a-9UWN-0" vertex="1">
          <mxGeometry x="1" y="127.5" width="20" height="30" as="geometry" />
        </mxCell>
        <mxCell id="SLDgNxTCSw0Q0aYEvE-9-25" value="15" style="text;html=1;strokeColor=none;fillColor=none;align=center;verticalAlign=middle;whiteSpace=wrap;rounded=0;fontSize=10;" parent="rVv-E8f4XrO-V_a-9UWN-0" vertex="1">
          <mxGeometry x="138" y="127.5" width="20" height="30" as="geometry" />
        </mxCell>
        <mxCell id="SLDgNxTCSw0Q0aYEvE-9-26" value="4 coches" style="text;html=1;strokeColor=none;fillColor=none;align=center;verticalAlign=middle;whiteSpace=wrap;rounded=0;fontSize=10;" parent="rVv-E8f4XrO-V_a-9UWN-0" vertex="1">
          <mxGeometry x="45" y="145" width="65" height="20" as="geometry" />
        </mxCell>
        <mxCell id="SLDgNxTCSw0Q0aYEvE-9-31" value="Fórmula" style="rounded=0;whiteSpace=wrap;html=1;strokeColor=#001E38;fontSize=10;fillColor=default;align=left;spacingLeft=5;" parent="rVv-E8f4XrO-V_a-9UWN-0" vertex="1">
          <mxGeometry x="70" y="187" width="80" height="20" as="geometry" />
        </mxCell>
        <mxCell id="SLDgNxTCSw0Q0aYEvE-9-32" value="" style="triangle;whiteSpace=wrap;html=1;strokeColor=#666666;fontSize=10;fillColor=#f5f5f5;rotation=90;fontColor=#333333;" parent="rVv-E8f4XrO-V_a-9UWN-0" vertex="1">
          <mxGeometry x="138" y="192" width="6" height="10" as="geometry" />
        </mxCell>
        <mxCell id="8zh2UmLa-79K8cIio_EG-3" value="" style="group" vertex="1" connectable="0" parent="rVv-E8f4XrO-V_a-9UWN-0">
          <mxGeometry x="280" y="73" width="190" height="158" as="geometry" />
        </mxCell>
        <mxCell id="SLDgNxTCSw0Q0aYEvE-9-10" value="" style="rounded=0;whiteSpace=wrap;html=1;movable=1;resizable=1;rotatable=1;deletable=1;editable=1;connectable=1;" parent="8zh2UmLa-79K8cIio_EG-3" vertex="1">
          <mxGeometry width="190" height="158" as="geometry" />
        </mxCell>
        <mxCell id="SLDgNxTCSw0Q0aYEvE-9-33" value="Nombre" style="rounded=0;whiteSpace=wrap;html=1;strokeColor=default;fillColor=default;fontSize=10;verticalAlign=middle;align=left;spacingLeft=10;" parent="8zh2UmLa-79K8cIio_EG-3" vertex="1">
          <mxGeometry y="5" width="190" height="25" as="geometry" />
        </mxCell>
        <mxCell id="SLDgNxTCSw0Q0aYEvE-9-36" value="Abcdefg" style="rounded=0;whiteSpace=wrap;html=1;fontSize=10;spacing=0;spacingTop=-1;" parent="8zh2UmLa-79K8cIio_EG-3" vertex="1">
          <mxGeometry x="100" y="8.75" width="80" height="17.5" as="geometry" />
        </mxCell>
        <mxCell id="SLDgNxTCSw0Q0aYEvE-9-37" value="Apellidos" style="rounded=0;whiteSpace=wrap;html=1;strokeColor=default;fillColor=default;fontSize=10;verticalAlign=middle;align=left;spacingLeft=10;" parent="8zh2UmLa-79K8cIio_EG-3" vertex="1">
          <mxGeometry y="37.5" width="190" height="25" as="geometry" />
        </mxCell>
        <mxCell id="SLDgNxTCSw0Q0aYEvE-9-38" value="Abcd Efgh" style="rounded=0;whiteSpace=wrap;html=1;fontSize=10;" parent="8zh2UmLa-79K8cIio_EG-3" vertex="1">
          <mxGeometry x="100" y="41.25" width="80" height="17.5" as="geometry" />
        </mxCell>
        <mxCell id="8zh2UmLa-79K8cIio_EG-0" value="Color de coche" style="rounded=0;whiteSpace=wrap;html=1;strokeColor=default;fillColor=default;fontSize=10;verticalAlign=middle;align=left;spacingLeft=10;" vertex="1" parent="8zh2UmLa-79K8cIio_EG-3">
          <mxGeometry y="70" width="190" height="25" as="geometry" />
        </mxCell>
        <mxCell id="8zh2UmLa-79K8cIio_EG-1" value="" style="rounded=0;whiteSpace=wrap;html=1;fontSize=10;fillColor=#00BA0C;" vertex="1" parent="8zh2UmLa-79K8cIio_EG-3">
          <mxGeometry x="131.25" y="73.75" width="17.5" height="17.5" as="geometry" />
        </mxCell>
        <mxCell id="8zh2UmLa-79K8cIio_EG-2" value="" style="group" vertex="1" connectable="0" parent="8zh2UmLa-79K8cIio_EG-3">
          <mxGeometry y="103" width="190" height="50" as="geometry" />
        </mxCell>
        <mxCell id="SLDgNxTCSw0Q0aYEvE-9-44" value="Nivel de experiencia" style="rounded=0;whiteSpace=wrap;html=1;strokeColor=default;fillColor=default;verticalAlign=top;spacingTop=-3;fontSize=10;" parent="8zh2UmLa-79K8cIio_EG-2" vertex="1">
          <mxGeometry width="190" height="50" as="geometry" />
        </mxCell>
        <mxCell id="SLDgNxTCSw0Q0aYEvE-9-45" value="" style="html=1;verticalLabelPosition=bottom;labelBackgroundColor=#ffffff;verticalAlign=top;shadow=0;dashed=0;strokeWidth=1;shape=mxgraph.ios7ui.slider;barPos=42.48;strokeColor=#001E38;strokeColor2=#a0a0a0;fillColor=default;" parent="8zh2UmLa-79K8cIio_EG-2" vertex="1">
          <mxGeometry x="47.5" y="22.5" width="95" height="15" as="geometry" />
        </mxCell>
        <mxCell id="SLDgNxTCSw0Q0aYEvE-9-46" value="Rookie" style="text;html=1;strokeColor=none;fillColor=none;align=center;verticalAlign=middle;whiteSpace=wrap;rounded=0;fontSize=10;" parent="8zh2UmLa-79K8cIio_EG-2" vertex="1">
          <mxGeometry y="15" width="40" height="30" as="geometry" />
        </mxCell>
        <mxCell id="SLDgNxTCSw0Q0aYEvE-9-47" value="Pro" style="text;html=1;strokeColor=none;fillColor=none;align=center;verticalAlign=middle;whiteSpace=wrap;rounded=0;fontSize=10;" parent="8zh2UmLa-79K8cIio_EG-2" vertex="1">
          <mxGeometry x="150" y="15" width="40" height="30" as="geometry" />
        </mxCell>
      </root>
    </mxGraphModel>
  </diagram>
  <diagram name="UI-During-Race-Final" id="WfXPUcQVDER5V_kaW4oR">
    <mxGraphModel dx="2060" dy="1182" grid="1" gridSize="10" guides="1" tooltips="1" connect="1" arrows="1" fold="1" page="1" pageScale="1" pageWidth="827" pageHeight="1169" math="0" shadow="0">
      <root>
        <mxCell id="gMg_doXfsfllTgrp4eja-0" />
        <mxCell id="gMg_doXfsfllTgrp4eja-1" parent="gMg_doXfsfllTgrp4eja-0" />
        <mxCell id="gMg_doXfsfllTgrp4eja-2" value="" style="rounded=0;whiteSpace=wrap;html=1;fontSize=10;fillColor=#f5f5f5;fontColor=#333333;strokeColor=#666666;" parent="gMg_doXfsfllTgrp4eja-1" vertex="1">
          <mxGeometry x="126" y="160" width="576" height="324" as="geometry" />
        </mxCell>
        <mxCell id="gMg_doXfsfllTgrp4eja-3" value="" style="rounded=0;whiteSpace=wrap;html=1;fontSize=10;" parent="gMg_doXfsfllTgrp4eja-1" vertex="1">
          <mxGeometry x="126" y="160" width="120" height="324" as="geometry" />
        </mxCell>
        <mxCell id="gMg_doXfsfllTgrp4eja-4" value="LAP XX / YY" style="rounded=0;whiteSpace=wrap;html=1;fontSize=10;" parent="gMg_doXfsfllTgrp4eja-1" vertex="1">
          <mxGeometry x="126" y="160" width="120" height="50" as="geometry" />
        </mxCell>
        <mxCell id="gMg_doXfsfllTgrp4eja-20" value="" style="endArrow=none;html=1;rounded=0;fontSize=10;exitX=1;exitY=1;exitDx=0;exitDy=0;entryX=1;entryY=0;entryDx=0;entryDy=0;" parent="gMg_doXfsfllTgrp4eja-1" source="gMg_doXfsfllTgrp4eja-3" target="gMg_doXfsfllTgrp4eja-2" edge="1">
          <mxGeometry width="50" height="50" relative="1" as="geometry">
            <mxPoint x="390" y="350" as="sourcePoint" />
            <mxPoint x="440" y="300" as="targetPoint" />
          </mxGeometry>
        </mxCell>
        <mxCell id="gMg_doXfsfllTgrp4eja-21" value="" style="rounded=1;whiteSpace=wrap;html=1;fontSize=10;" parent="gMg_doXfsfllTgrp4eja-1" vertex="1">
          <mxGeometry x="670" y="170" width="20" height="20" as="geometry" />
        </mxCell>
        <mxCell id="gMg_doXfsfllTgrp4eja-22" value="" style="html=1;verticalLabelPosition=bottom;align=center;labelBackgroundColor=#ffffff;verticalAlign=top;strokeWidth=2;strokeColor=default;shadow=0;dashed=0;shape=mxgraph.ios7.icons.pause;pointerEvents=1;fontSize=10;fillColor=#000000;" parent="gMg_doXfsfllTgrp4eja-1" vertex="1">
          <mxGeometry x="675" y="174" width="10" height="12" as="geometry" />
        </mxCell>
        <mxCell id="gMg_doXfsfllTgrp4eja-23" value="x1" style="rounded=1;whiteSpace=wrap;html=1;fontSize=10;" parent="gMg_doXfsfllTgrp4eja-1" vertex="1">
          <mxGeometry x="670" y="200" width="20" height="20" as="geometry" />
        </mxCell>
        <mxCell id="gMg_doXfsfllTgrp4eja-24" value="" style="endArrow=none;html=1;rounded=0;fontSize=10;exitX=1;exitY=0;exitDx=0;exitDy=0;entryX=1;entryY=1;entryDx=0;entryDy=0;" parent="gMg_doXfsfllTgrp4eja-1" source="gMg_doXfsfllTgrp4eja-4" target="gMg_doXfsfllTgrp4eja-2" edge="1">
          <mxGeometry width="50" height="50" relative="1" as="geometry">
            <mxPoint x="900" y="190" as="sourcePoint" />
            <mxPoint x="950" y="140" as="targetPoint" />
          </mxGeometry>
        </mxCell>
        <mxCell id="zKaRtc02y6gXngPIIPTr-16" value="" style="group" parent="gMg_doXfsfllTgrp4eja-1" vertex="1" connectable="0">
          <mxGeometry x="126" y="215" width="120" height="74" as="geometry" />
        </mxCell>
        <mxCell id="zKaRtc02y6gXngPIIPTr-0" value="A. ABC" style="rounded=0;whiteSpace=wrap;html=1;fontSize=10;spacingLeft=-25;verticalAlign=top;spacingTop=-2;" parent="zKaRtc02y6gXngPIIPTr-16" vertex="1">
          <mxGeometry width="120" height="74" as="geometry" />
        </mxCell>
        <mxCell id="zKaRtc02y6gXngPIIPTr-1" value="1" style="rounded=0;whiteSpace=wrap;html=1;fontSize=10;" parent="zKaRtc02y6gXngPIIPTr-16" vertex="1">
          <mxGeometry width="24" height="20" as="geometry" />
        </mxCell>
        <mxCell id="zKaRtc02y6gXngPIIPTr-2" value="Aguante físico y mental" style="rounded=0;whiteSpace=wrap;html=1;fontSize=8;verticalAlign=top;spacingTop=-4;" parent="zKaRtc02y6gXngPIIPTr-16" vertex="1">
          <mxGeometry y="20" width="120" height="27" as="geometry" />
        </mxCell>
        <mxCell id="zKaRtc02y6gXngPIIPTr-3" value="" style="html=1;verticalLabelPosition=bottom;labelBackgroundColor=#ffffff;verticalAlign=top;shadow=0;dashed=0;strokeWidth=1;shape=mxgraph.ios7ui.slider;barPos=70.81;strokeColor=#001E38;strokeColor2=#a0a0a0;fillColor=default;" parent="zKaRtc02y6gXngPIIPTr-16" vertex="1">
          <mxGeometry x="12.5" y="31" width="95" height="15" as="geometry" />
        </mxCell>
        <mxCell id="zKaRtc02y6gXngPIIPTr-14" value="Agresividad" style="rounded=0;whiteSpace=wrap;html=1;fontSize=8;verticalAlign=top;spacingTop=-4;" parent="zKaRtc02y6gXngPIIPTr-16" vertex="1">
          <mxGeometry y="47" width="120" height="27" as="geometry" />
        </mxCell>
        <mxCell id="zKaRtc02y6gXngPIIPTr-15" value="" style="html=1;verticalLabelPosition=bottom;labelBackgroundColor=#ffffff;verticalAlign=top;shadow=0;dashed=0;strokeWidth=1;shape=mxgraph.ios7ui.slider;barPos=100;strokeColor=#001E38;strokeColor2=#a0a0a0;fillColor=default;" parent="zKaRtc02y6gXngPIIPTr-16" vertex="1">
          <mxGeometry x="12.5" y="58" width="95" height="15" as="geometry" />
        </mxCell>
        <mxCell id="zKaRtc02y6gXngPIIPTr-17" value="" style="group" parent="gMg_doXfsfllTgrp4eja-1" vertex="1" connectable="0">
          <mxGeometry x="126" y="289" width="120" height="74" as="geometry" />
        </mxCell>
        <mxCell id="zKaRtc02y6gXngPIIPTr-18" value="B. BCD" style="rounded=0;whiteSpace=wrap;html=1;fontSize=10;spacingLeft=-25;verticalAlign=top;spacingTop=-2;" parent="zKaRtc02y6gXngPIIPTr-17" vertex="1">
          <mxGeometry width="120" height="74" as="geometry" />
        </mxCell>
        <mxCell id="zKaRtc02y6gXngPIIPTr-19" value="2" style="rounded=0;whiteSpace=wrap;html=1;fontSize=10;" parent="zKaRtc02y6gXngPIIPTr-17" vertex="1">
          <mxGeometry width="24" height="20" as="geometry" />
        </mxCell>
        <mxCell id="zKaRtc02y6gXngPIIPTr-20" value="Aguante físico y mental" style="rounded=0;whiteSpace=wrap;html=1;fontSize=8;verticalAlign=top;spacingTop=-4;" parent="zKaRtc02y6gXngPIIPTr-17" vertex="1">
          <mxGeometry y="20" width="120" height="27" as="geometry" />
        </mxCell>
        <mxCell id="zKaRtc02y6gXngPIIPTr-21" value="" style="html=1;verticalLabelPosition=bottom;labelBackgroundColor=#ffffff;verticalAlign=top;shadow=0;dashed=0;strokeWidth=1;shape=mxgraph.ios7ui.slider;barPos=25.88;strokeColor=#001E38;strokeColor2=#a0a0a0;fillColor=default;" parent="zKaRtc02y6gXngPIIPTr-17" vertex="1">
          <mxGeometry x="12.5" y="31" width="95" height="15" as="geometry" />
        </mxCell>
        <mxCell id="zKaRtc02y6gXngPIIPTr-22" value="Agresividad" style="rounded=0;whiteSpace=wrap;html=1;fontSize=8;verticalAlign=top;spacingTop=-4;" parent="zKaRtc02y6gXngPIIPTr-17" vertex="1">
          <mxGeometry y="47" width="120" height="27" as="geometry" />
        </mxCell>
        <mxCell id="zKaRtc02y6gXngPIIPTr-23" value="" style="html=1;verticalLabelPosition=bottom;labelBackgroundColor=#ffffff;verticalAlign=top;shadow=0;dashed=0;strokeWidth=1;shape=mxgraph.ios7ui.slider;barPos=42.48;strokeColor=#001E38;strokeColor2=#a0a0a0;fillColor=default;" parent="zKaRtc02y6gXngPIIPTr-17" vertex="1">
          <mxGeometry x="12.5" y="58" width="95" height="15" as="geometry" />
        </mxCell>
        <mxCell id="zKaRtc02y6gXngPIIPTr-24" value="" style="group" parent="gMg_doXfsfllTgrp4eja-1" vertex="1" connectable="0">
          <mxGeometry x="126" y="363" width="120" height="74" as="geometry" />
        </mxCell>
        <mxCell id="zKaRtc02y6gXngPIIPTr-25" value="C. CDE" style="rounded=0;whiteSpace=wrap;html=1;fontSize=10;spacingLeft=-25;verticalAlign=top;spacingTop=-2;" parent="zKaRtc02y6gXngPIIPTr-24" vertex="1">
          <mxGeometry width="120" height="74" as="geometry" />
        </mxCell>
        <mxCell id="zKaRtc02y6gXngPIIPTr-26" value="3" style="rounded=0;whiteSpace=wrap;html=1;fontSize=10;" parent="zKaRtc02y6gXngPIIPTr-24" vertex="1">
          <mxGeometry width="24" height="20" as="geometry" />
        </mxCell>
        <mxCell id="zKaRtc02y6gXngPIIPTr-27" value="Aguante físico y mental" style="rounded=0;whiteSpace=wrap;html=1;fontSize=8;verticalAlign=top;spacingTop=-4;" parent="zKaRtc02y6gXngPIIPTr-24" vertex="1">
          <mxGeometry y="20" width="120" height="27" as="geometry" />
        </mxCell>
        <mxCell id="zKaRtc02y6gXngPIIPTr-28" value="" style="html=1;verticalLabelPosition=bottom;labelBackgroundColor=#ffffff;verticalAlign=top;shadow=0;dashed=0;strokeWidth=1;shape=mxgraph.ios7ui.slider;barPos=65.07;strokeColor=#001E38;strokeColor2=#a0a0a0;fillColor=default;" parent="zKaRtc02y6gXngPIIPTr-24" vertex="1">
          <mxGeometry x="12.5" y="31" width="95" height="15" as="geometry" />
        </mxCell>
        <mxCell id="zKaRtc02y6gXngPIIPTr-29" value="Agresividad" style="rounded=0;whiteSpace=wrap;html=1;fontSize=8;verticalAlign=top;spacingTop=-4;" parent="zKaRtc02y6gXngPIIPTr-24" vertex="1">
          <mxGeometry y="47" width="120" height="27" as="geometry" />
        </mxCell>
        <mxCell id="zKaRtc02y6gXngPIIPTr-30" value="" style="html=1;verticalLabelPosition=bottom;labelBackgroundColor=#ffffff;verticalAlign=top;shadow=0;dashed=0;strokeWidth=1;shape=mxgraph.ios7ui.slider;barPos=24.56;strokeColor=#001E38;strokeColor2=#a0a0a0;fillColor=default;" parent="zKaRtc02y6gXngPIIPTr-24" vertex="1">
          <mxGeometry x="12.5" y="58" width="95" height="15" as="geometry" />
        </mxCell>
      </root>
    </mxGraphModel>
  </diagram>
  <diagram id="Y0wrCLTbdysNmmqeWONx" name="Proto-Config">
    <mxGraphModel dx="2060" dy="1182" grid="1" gridSize="10" guides="1" tooltips="1" connect="1" arrows="1" fold="1" page="1" pageScale="1" pageWidth="827" pageHeight="1169" math="0" shadow="0">
      <root>
        <mxCell id="0" />
        <mxCell id="1" parent="0" />
        <mxCell id="EIGCLksqSlVebBZ_3pww-1" value="" style="rounded=0;whiteSpace=wrap;html=1;movable=1;resizable=1;rotatable=1;deletable=1;editable=1;connectable=1;fillColor=#dae8fc;strokeColor=#010203;" parent="1" vertex="1">
          <mxGeometry x="184" y="200" width="576" height="324" as="geometry" />
        </mxCell>
        <mxCell id="EIGCLksqSlVebBZ_3pww-2" value="" style="endArrow=none;html=1;rounded=0;exitX=1;exitY=0;exitDx=0;exitDy=0;entryX=1;entryY=1;entryDx=0;entryDy=0;movable=0;resizable=0;rotatable=0;deletable=0;editable=0;connectable=0;" parent="1" source="EIGCLksqSlVebBZ_3pww-12" target="EIGCLksqSlVebBZ_3pww-1" edge="1">
          <mxGeometry width="50" height="50" relative="1" as="geometry">
            <mxPoint x="350" y="370" as="sourcePoint" />
            <mxPoint x="400" y="320" as="targetPoint" />
          </mxGeometry>
        </mxCell>
        <mxCell id="EIGCLksqSlVebBZ_3pww-3" value="" style="endArrow=none;html=1;rounded=0;exitX=1;exitY=1;exitDx=0;exitDy=0;entryX=1;entryY=0;entryDx=0;entryDy=0;movable=0;resizable=0;rotatable=0;deletable=0;editable=0;connectable=0;" parent="1" source="EIGCLksqSlVebBZ_3pww-11" target="EIGCLksqSlVebBZ_3pww-1" edge="1">
          <mxGeometry width="50" height="50" relative="1" as="geometry">
            <mxPoint x="350" y="370" as="sourcePoint" />
            <mxPoint x="400" y="320" as="targetPoint" />
          </mxGeometry>
        </mxCell>
        <mxCell id="EIGCLksqSlVebBZ_3pww-4" value="" style="rounded=0;whiteSpace=wrap;html=1;movable=1;resizable=1;rotatable=1;deletable=1;editable=1;connectable=1;fillColor=#f5f5f5;fontColor=#333333;strokeColor=default;" parent="1" vertex="1">
          <mxGeometry x="184" y="200" width="160" height="324" as="geometry" />
        </mxCell>
        <mxCell id="EIGCLksqSlVebBZ_3pww-5" value="" style="rounded=0;whiteSpace=wrap;html=1;verticalAlign=middle;fontSize=10;spacing=0;fillColor=#d5e8d4;strokeColor=default;spacingTop=0;spacingBottom=33;" parent="1" vertex="1">
          <mxGeometry x="184" y="250" width="160" height="174" as="geometry" />
        </mxCell>
        <mxCell id="EIGCLksqSlVebBZ_3pww-9" value="" style="rounded=0;whiteSpace=wrap;html=1;verticalAlign=top;" parent="1" vertex="1">
          <mxGeometry x="644" y="470" width="100" height="40" as="geometry" />
        </mxCell>
        <mxCell id="EIGCLksqSlVebBZ_3pww-10" value="" style="rounded=0;whiteSpace=wrap;html=1;fontSize=10;verticalAlign=top;" parent="1" vertex="1">
          <mxGeometry x="184" y="490" width="80" height="34" as="geometry" />
        </mxCell>
        <mxCell id="EIGCLksqSlVebBZ_3pww-11" value="" style="rounded=0;whiteSpace=wrap;html=1;fontSize=10;verticalAlign=top;" parent="1" vertex="1">
          <mxGeometry x="264" y="490" width="80" height="34" as="geometry" />
        </mxCell>
        <mxCell id="EIGCLksqSlVebBZ_3pww-12" value="LOGO" style="rounded=0;whiteSpace=wrap;html=1;strokeColor=default;fillColor=#f8cecc;verticalAlign=top;fontStyle=1;spacing=-2;" parent="1" vertex="1">
          <mxGeometry x="184" y="200" width="160" height="40" as="geometry" />
        </mxCell>
        <mxCell id="EIGCLksqSlVebBZ_3pww-13" value="" style="triangle;whiteSpace=wrap;html=1;strokeColor=default;fillColor=#f5f5f5;fontColor=#333333;" parent="1" vertex="1">
          <mxGeometry x="674" y="310" width="30" height="80" as="geometry" />
        </mxCell>
        <mxCell id="EIGCLksqSlVebBZ_3pww-14" value="" style="triangle;whiteSpace=wrap;html=1;strokeColor=default;fillColor=#f5f5f5;flipH=1;fontColor=#333333;" parent="1" vertex="1">
          <mxGeometry x="414" y="310" width="30" height="80" as="geometry" />
        </mxCell>
        <mxCell id="EIGCLksqSlVebBZ_3pww-16" value="" style="endArrow=none;html=1;rounded=0;exitX=0;exitY=1;exitDx=0;exitDy=0;entryX=1;entryY=0;entryDx=0;entryDy=0;movable=0;resizable=0;rotatable=0;deletable=0;editable=0;connectable=0;" parent="1" source="EIGCLksqSlVebBZ_3pww-12" target="EIGCLksqSlVebBZ_3pww-12" edge="1">
          <mxGeometry width="50" height="50" relative="1" as="geometry">
            <mxPoint x="310" y="280" as="sourcePoint" />
            <mxPoint x="360" y="230" as="targetPoint" />
          </mxGeometry>
        </mxCell>
        <mxCell id="EIGCLksqSlVebBZ_3pww-17" value="" style="endArrow=none;html=1;rounded=0;exitX=0;exitY=0;exitDx=0;exitDy=0;entryX=1;entryY=1;entryDx=0;entryDy=0;movable=0;resizable=0;rotatable=0;deletable=0;editable=0;connectable=0;" parent="1" source="EIGCLksqSlVebBZ_3pww-12" target="EIGCLksqSlVebBZ_3pww-12" edge="1">
          <mxGeometry width="50" height="50" relative="1" as="geometry">
            <mxPoint x="310" y="280" as="sourcePoint" />
            <mxPoint x="360" y="230" as="targetPoint" />
          </mxGeometry>
        </mxCell>
        <mxCell id="EIGCLksqSlVebBZ_3pww-49" value="" style="endArrow=none;html=1;rounded=0;entryX=1;entryY=1;entryDx=0;entryDy=0;exitX=0;exitY=0;exitDx=0;exitDy=0;" parent="1" source="EIGCLksqSlVebBZ_3pww-5" target="EIGCLksqSlVebBZ_3pww-5" edge="1">
          <mxGeometry width="50" height="50" relative="1" as="geometry">
            <mxPoint x="154" y="210" as="sourcePoint" />
            <mxPoint x="204" y="160" as="targetPoint" />
          </mxGeometry>
        </mxCell>
        <mxCell id="EIGCLksqSlVebBZ_3pww-50" value="" style="endArrow=none;html=1;rounded=0;entryX=1;entryY=0;entryDx=0;entryDy=0;exitX=0;exitY=1;exitDx=0;exitDy=0;" parent="1" source="EIGCLksqSlVebBZ_3pww-5" target="EIGCLksqSlVebBZ_3pww-5" edge="1">
          <mxGeometry width="50" height="50" relative="1" as="geometry">
            <mxPoint x="194" y="260" as="sourcePoint" />
            <mxPoint x="354" y="314" as="targetPoint" />
          </mxGeometry>
        </mxCell>
        <mxCell id="EIGCLksqSlVebBZ_3pww-55" value="" style="endArrow=none;html=1;rounded=0;entryX=1;entryY=1;entryDx=0;entryDy=0;exitX=0;exitY=0;exitDx=0;exitDy=0;" parent="1" source="EIGCLksqSlVebBZ_3pww-10" target="EIGCLksqSlVebBZ_3pww-10" edge="1">
          <mxGeometry width="50" height="50" relative="1" as="geometry">
            <mxPoint x="154" y="210" as="sourcePoint" />
            <mxPoint x="204" y="160" as="targetPoint" />
          </mxGeometry>
        </mxCell>
        <mxCell id="EIGCLksqSlVebBZ_3pww-56" value="" style="endArrow=none;html=1;rounded=0;entryX=1;entryY=1;entryDx=0;entryDy=0;exitX=0;exitY=0;exitDx=0;exitDy=0;" parent="1" source="EIGCLksqSlVebBZ_3pww-11" target="EIGCLksqSlVebBZ_3pww-11" edge="1">
          <mxGeometry width="50" height="50" relative="1" as="geometry">
            <mxPoint x="194" y="500" as="sourcePoint" />
            <mxPoint x="274" y="534" as="targetPoint" />
          </mxGeometry>
        </mxCell>
        <mxCell id="EIGCLksqSlVebBZ_3pww-57" value="" style="endArrow=none;html=1;rounded=0;entryX=0;entryY=0;entryDx=0;entryDy=0;exitX=0;exitY=1;exitDx=0;exitDy=0;" parent="1" source="EIGCLksqSlVebBZ_3pww-10" target="EIGCLksqSlVebBZ_3pww-11" edge="1">
          <mxGeometry width="50" height="50" relative="1" as="geometry">
            <mxPoint x="194" y="500" as="sourcePoint" />
            <mxPoint x="274" y="534" as="targetPoint" />
          </mxGeometry>
        </mxCell>
        <mxCell id="EIGCLksqSlVebBZ_3pww-58" value="" style="endArrow=none;html=1;rounded=0;entryX=1;entryY=0;entryDx=0;entryDy=0;exitX=0;exitY=1;exitDx=0;exitDy=0;" parent="1" source="EIGCLksqSlVebBZ_3pww-11" target="EIGCLksqSlVebBZ_3pww-11" edge="1">
          <mxGeometry width="50" height="50" relative="1" as="geometry">
            <mxPoint x="264" y="520" as="sourcePoint" />
            <mxPoint x="354" y="534" as="targetPoint" />
          </mxGeometry>
        </mxCell>
        <mxCell id="EIGCLksqSlVebBZ_3pww-59" value="" style="endArrow=none;html=1;rounded=0;entryX=1;entryY=1;entryDx=0;entryDy=0;exitX=0;exitY=0;exitDx=0;exitDy=0;" parent="1" source="EIGCLksqSlVebBZ_3pww-9" target="EIGCLksqSlVebBZ_3pww-9" edge="1">
          <mxGeometry width="50" height="50" relative="1" as="geometry">
            <mxPoint x="154" y="210" as="sourcePoint" />
            <mxPoint x="204" y="160" as="targetPoint" />
          </mxGeometry>
        </mxCell>
        <mxCell id="EIGCLksqSlVebBZ_3pww-60" value="" style="endArrow=none;html=1;rounded=0;entryX=1;entryY=0;entryDx=0;entryDy=0;exitX=0;exitY=1;exitDx=0;exitDy=0;" parent="1" source="EIGCLksqSlVebBZ_3pww-9" target="EIGCLksqSlVebBZ_3pww-9" edge="1">
          <mxGeometry width="50" height="50" relative="1" as="geometry">
            <mxPoint x="654" y="480" as="sourcePoint" />
            <mxPoint x="754" y="520" as="targetPoint" />
          </mxGeometry>
        </mxCell>
        <mxCell id="xtrLQEab1rn-m1sZTO9G-5" value="" style="group" parent="1" vertex="1" connectable="0">
          <mxGeometry x="464" y="273" width="190" height="158" as="geometry" />
        </mxCell>
        <mxCell id="EIGCLksqSlVebBZ_3pww-8" value="" style="rounded=0;whiteSpace=wrap;html=1;movable=1;resizable=1;rotatable=1;deletable=1;editable=1;connectable=1;" parent="xtrLQEab1rn-m1sZTO9G-5" vertex="1">
          <mxGeometry width="190" height="158" as="geometry" />
        </mxCell>
        <mxCell id="xtrLQEab1rn-m1sZTO9G-1" value="" style="group" parent="xtrLQEab1rn-m1sZTO9G-5" vertex="1" connectable="0">
          <mxGeometry y="13.24" width="190" height="132.76" as="geometry" />
        </mxCell>
        <mxCell id="EIGCLksqSlVebBZ_3pww-27" value="" style="rounded=0;whiteSpace=wrap;html=1;strokeColor=#000000;fillColor=#d5e8d4;fontSize=10;verticalAlign=middle;align=center;spacingLeft=10;" parent="xtrLQEab1rn-m1sZTO9G-1" vertex="1">
          <mxGeometry width="190" height="132" as="geometry" />
        </mxCell>
        <mxCell id="EIGCLksqSlVebBZ_3pww-45" value="" style="endArrow=none;html=1;rounded=0;entryX=1;entryY=0;entryDx=0;entryDy=0;exitX=0;exitY=1;exitDx=0;exitDy=0;" parent="xtrLQEab1rn-m1sZTO9G-1" source="EIGCLksqSlVebBZ_3pww-27" target="EIGCLksqSlVebBZ_3pww-27" edge="1">
          <mxGeometry width="50" height="50" relative="1" as="geometry">
            <mxPoint x="-310" y="-187.98000000000002" as="sourcePoint" />
            <mxPoint x="-260" y="-332.58000000000004" as="targetPoint" />
          </mxGeometry>
        </mxCell>
        <mxCell id="EIGCLksqSlVebBZ_3pww-46" value="" style="endArrow=none;html=1;rounded=0;entryX=1;entryY=1;entryDx=0;entryDy=0;exitX=0;exitY=0;exitDx=0;exitDy=0;" parent="xtrLQEab1rn-m1sZTO9G-1" source="EIGCLksqSlVebBZ_3pww-27" target="EIGCLksqSlVebBZ_3pww-27" edge="1">
          <mxGeometry width="50" height="50" relative="1" as="geometry">
            <mxPoint x="10" y="72.30000000000003" as="sourcePoint" />
            <mxPoint x="200" as="targetPoint" />
          </mxGeometry>
        </mxCell>
        <mxCell id="ayuqVO_BKAxMLu7u4cI4-3" style="edgeStyle=orthogonalEdgeStyle;rounded=0;orthogonalLoop=1;jettySize=auto;html=1;entryX=0;entryY=0.5;entryDx=0;entryDy=0;dashed=1;endArrow=none;endFill=0;" parent="1" source="ayuqVO_BKAxMLu7u4cI4-1" target="EIGCLksqSlVebBZ_3pww-5" edge="1">
          <mxGeometry relative="1" as="geometry" />
        </mxCell>
        <mxCell id="ayuqVO_BKAxMLu7u4cI4-1" value="Configurador de carrera" style="shape=note;size=11;whiteSpace=wrap;html=1;fillColor=#fff2cc;strokeColor=#d6b656;fontSize=8;" parent="1" vertex="1">
          <mxGeometry x="53" y="321" width="100" height="32" as="geometry" />
        </mxCell>
        <mxCell id="ayuqVO_BKAxMLu7u4cI4-5" style="edgeStyle=orthogonalEdgeStyle;rounded=0;orthogonalLoop=1;jettySize=auto;html=1;entryX=0.5;entryY=0;entryDx=0;entryDy=0;endArrow=none;endFill=0;dashed=1;" parent="1" source="ayuqVO_BKAxMLu7u4cI4-4" target="EIGCLksqSlVebBZ_3pww-10" edge="1">
          <mxGeometry relative="1" as="geometry" />
        </mxCell>
        <mxCell id="ayuqVO_BKAxMLu7u4cI4-6" style="edgeStyle=orthogonalEdgeStyle;rounded=0;orthogonalLoop=1;jettySize=auto;html=1;entryX=0.5;entryY=0;entryDx=0;entryDy=0;endArrow=none;endFill=0;dashed=1;" parent="1" source="ayuqVO_BKAxMLu7u4cI4-4" target="EIGCLksqSlVebBZ_3pww-11" edge="1">
          <mxGeometry relative="1" as="geometry" />
        </mxCell>
        <mxCell id="ayuqVO_BKAxMLu7u4cI4-4" value="Herramientas de exportación e importación de la configuración" style="shape=note;size=11;whiteSpace=wrap;html=1;fillColor=#fff2cc;strokeColor=#d6b656;fontSize=8;" parent="1" vertex="1">
          <mxGeometry x="53" y="450" width="100" height="32" as="geometry" />
        </mxCell>
        <mxCell id="ayuqVO_BKAxMLu7u4cI4-8" style="edgeStyle=orthogonalEdgeStyle;rounded=0;orthogonalLoop=1;jettySize=auto;html=1;entryX=0.5;entryY=0;entryDx=0;entryDy=0;endArrow=none;endFill=0;dashed=1;" parent="1" source="ayuqVO_BKAxMLu7u4cI4-7" target="EIGCLksqSlVebBZ_3pww-27" edge="1">
          <mxGeometry relative="1" as="geometry" />
        </mxCell>
        <mxCell id="ayuqVO_BKAxMLu7u4cI4-7" value="Configurador del piloto seleccionado" style="shape=note;size=9;whiteSpace=wrap;html=1;fillColor=#fff2cc;strokeColor=#d6b656;fontSize=8;" parent="1" vertex="1">
          <mxGeometry x="509" y="218" width="100" height="32" as="geometry" />
        </mxCell>
        <mxCell id="ayuqVO_BKAxMLu7u4cI4-10" style="edgeStyle=orthogonalEdgeStyle;rounded=0;orthogonalLoop=1;jettySize=auto;html=1;entryX=0;entryY=0.5;entryDx=0;entryDy=0;dashed=1;endArrow=none;endFill=0;" parent="1" source="ayuqVO_BKAxMLu7u4cI4-9" target="EIGCLksqSlVebBZ_3pww-9" edge="1">
          <mxGeometry relative="1" as="geometry" />
        </mxCell>
        <mxCell id="ayuqVO_BKAxMLu7u4cI4-9" value="Botón de ejecución de la simulación" style="shape=note;size=9;whiteSpace=wrap;html=1;fillColor=#fff2cc;strokeColor=#d6b656;fontSize=8;" parent="1" vertex="1">
          <mxGeometry x="509" y="474" width="100" height="32" as="geometry" />
        </mxCell>
      </root>
    </mxGraphModel>
  </diagram>
  <diagram id="ltWT8n76jH5N9v3d_VNM" name="Proto-Position">
    <mxGraphModel dx="824" dy="473" grid="1" gridSize="10" guides="1" tooltips="1" connect="1" arrows="1" fold="1" page="1" pageScale="1" pageWidth="1169" pageHeight="827" math="0" shadow="0">
      <root>
        <mxCell id="0" />
        <mxCell id="1" parent="0" />
        <mxCell id="3lGi2Q_AwXGhQek1AMi0-1" value="" style="rounded=0;whiteSpace=wrap;html=1;fontSize=10;fillColor=#f5f5f5;fontColor=#333333;strokeColor=#666666;" parent="1" vertex="1">
          <mxGeometry x="301" y="251" width="576" height="324" as="geometry" />
        </mxCell>
        <mxCell id="3lGi2Q_AwXGhQek1AMi0-2" value="" style="rounded=0;whiteSpace=wrap;html=1;fontSize=10;" parent="1" vertex="1">
          <mxGeometry x="301" y="251" width="120" height="324" as="geometry" />
        </mxCell>
        <mxCell id="3lGi2Q_AwXGhQek1AMi0-3" value="" style="rounded=0;whiteSpace=wrap;html=1;fontSize=10;fillColor=#f8cecc;strokeColor=default;" parent="1" vertex="1">
          <mxGeometry x="301" y="251" width="120" height="50" as="geometry" />
        </mxCell>
        <mxCell id="3lGi2Q_AwXGhQek1AMi0-4" value="" style="endArrow=none;html=1;rounded=0;fontSize=10;exitX=1;exitY=1;exitDx=0;exitDy=0;entryX=1;entryY=0;entryDx=0;entryDy=0;" parent="1" source="3lGi2Q_AwXGhQek1AMi0-2" target="3lGi2Q_AwXGhQek1AMi0-1" edge="1">
          <mxGeometry width="50" height="50" relative="1" as="geometry">
            <mxPoint x="565" y="441" as="sourcePoint" />
            <mxPoint x="615" y="391" as="targetPoint" />
          </mxGeometry>
        </mxCell>
        <mxCell id="3lGi2Q_AwXGhQek1AMi0-5" value="" style="rounded=0;whiteSpace=wrap;html=1;fontSize=10;" parent="1" vertex="1">
          <mxGeometry x="845" y="261" width="20" height="20" as="geometry" />
        </mxCell>
        <mxCell id="3lGi2Q_AwXGhQek1AMi0-7" value="" style="rounded=0;whiteSpace=wrap;html=1;fontSize=10;" parent="1" vertex="1">
          <mxGeometry x="845" y="291" width="20" height="20" as="geometry" />
        </mxCell>
        <mxCell id="3lGi2Q_AwXGhQek1AMi0-8" value="" style="endArrow=none;html=1;rounded=0;fontSize=10;exitX=1;exitY=0;exitDx=0;exitDy=0;entryX=1;entryY=1;entryDx=0;entryDy=0;" parent="1" source="3lGi2Q_AwXGhQek1AMi0-3" target="3lGi2Q_AwXGhQek1AMi0-1" edge="1">
          <mxGeometry width="50" height="50" relative="1" as="geometry">
            <mxPoint x="1075" y="281" as="sourcePoint" />
            <mxPoint x="1125" y="231" as="targetPoint" />
          </mxGeometry>
        </mxCell>
        <mxCell id="3lGi2Q_AwXGhQek1AMi0-32" value="" style="endArrow=none;html=1;rounded=0;entryX=0;entryY=0;entryDx=0;entryDy=0;exitX=1;exitY=1;exitDx=0;exitDy=0;" parent="1" source="3lGi2Q_AwXGhQek1AMi0-3" target="3lGi2Q_AwXGhQek1AMi0-3" edge="1">
          <mxGeometry width="50" height="50" relative="1" as="geometry">
            <mxPoint x="405" y="471" as="sourcePoint" />
            <mxPoint x="455" y="421" as="targetPoint" />
          </mxGeometry>
        </mxCell>
        <mxCell id="3lGi2Q_AwXGhQek1AMi0-33" value="" style="endArrow=none;html=1;rounded=0;entryX=1;entryY=0;entryDx=0;entryDy=0;exitX=0;exitY=1;exitDx=0;exitDy=0;" parent="1" source="3lGi2Q_AwXGhQek1AMi0-3" target="3lGi2Q_AwXGhQek1AMi0-3" edge="1">
          <mxGeometry width="50" height="50" relative="1" as="geometry">
            <mxPoint x="405" y="471" as="sourcePoint" />
            <mxPoint x="455" y="421" as="targetPoint" />
          </mxGeometry>
        </mxCell>
        <mxCell id="3lGi2Q_AwXGhQek1AMi0-36" value="" style="group;fillColor=#d5e8d4;strokeColor=default;movable=1;resizable=1;rotatable=1;deletable=1;editable=1;locked=0;connectable=1;" parent="1" vertex="1" connectable="0">
          <mxGeometry x="301" y="306" width="120" height="222" as="geometry" />
        </mxCell>
        <mxCell id="3lGi2Q_AwXGhQek1AMi0-45" value="" style="endArrow=none;html=1;rounded=0;entryX=1;entryY=0;entryDx=0;entryDy=0;exitX=0;exitY=1;exitDx=0;exitDy=0;" parent="1" source="3lGi2Q_AwXGhQek1AMi0-5" target="3lGi2Q_AwXGhQek1AMi0-5" edge="1">
          <mxGeometry width="50" height="50" relative="1" as="geometry">
            <mxPoint x="695" y="381" as="sourcePoint" />
            <mxPoint x="745" y="331" as="targetPoint" />
          </mxGeometry>
        </mxCell>
        <mxCell id="3lGi2Q_AwXGhQek1AMi0-46" value="" style="endArrow=none;html=1;rounded=0;entryX=0;entryY=0;entryDx=0;entryDy=0;exitX=1;exitY=1;exitDx=0;exitDy=0;" parent="1" source="3lGi2Q_AwXGhQek1AMi0-5" target="3lGi2Q_AwXGhQek1AMi0-5" edge="1">
          <mxGeometry width="50" height="50" relative="1" as="geometry">
            <mxPoint x="855" y="291" as="sourcePoint" />
            <mxPoint x="875" y="271" as="targetPoint" />
          </mxGeometry>
        </mxCell>
        <mxCell id="3lGi2Q_AwXGhQek1AMi0-47" value="" style="endArrow=none;html=1;rounded=0;entryX=0;entryY=0;entryDx=0;entryDy=0;exitX=1;exitY=1;exitDx=0;exitDy=0;" parent="1" source="3lGi2Q_AwXGhQek1AMi0-7" target="3lGi2Q_AwXGhQek1AMi0-7" edge="1">
          <mxGeometry width="50" height="50" relative="1" as="geometry">
            <mxPoint x="875" y="291" as="sourcePoint" />
            <mxPoint x="855" y="271" as="targetPoint" />
          </mxGeometry>
        </mxCell>
        <mxCell id="3lGi2Q_AwXGhQek1AMi0-48" value="" style="endArrow=none;html=1;rounded=0;entryX=0;entryY=1;entryDx=0;entryDy=0;exitX=1;exitY=0;exitDx=0;exitDy=0;" parent="1" source="3lGi2Q_AwXGhQek1AMi0-7" target="3lGi2Q_AwXGhQek1AMi0-7" edge="1">
          <mxGeometry width="50" height="50" relative="1" as="geometry">
            <mxPoint x="875" y="321" as="sourcePoint" />
            <mxPoint x="855" y="301" as="targetPoint" />
          </mxGeometry>
        </mxCell>
        <mxCell id="FQU1EHwPNR1E5IYd5XoQ-2" value="" style="endArrow=none;html=1;rounded=0;exitX=0;exitY=1;exitDx=0;exitDy=0;entryX=1;entryY=0;entryDx=0;entryDy=0;" parent="1" source="3lGi2Q_AwXGhQek1AMi0-36" target="3lGi2Q_AwXGhQek1AMi0-36" edge="1">
          <mxGeometry width="50" height="50" relative="1" as="geometry">
            <mxPoint x="315" y="511" as="sourcePoint" />
            <mxPoint x="415" y="321" as="targetPoint" />
          </mxGeometry>
        </mxCell>
        <mxCell id="FQU1EHwPNR1E5IYd5XoQ-4" value="" style="endArrow=none;html=1;rounded=0;entryX=0;entryY=0;entryDx=0;entryDy=0;exitX=1;exitY=1;exitDx=0;exitDy=0;" parent="1" source="3lGi2Q_AwXGhQek1AMi0-36" target="3lGi2Q_AwXGhQek1AMi0-36" edge="1">
          <mxGeometry width="50" height="50" relative="1" as="geometry">
            <mxPoint x="325" y="361" as="sourcePoint" />
            <mxPoint x="205" y="311" as="targetPoint" />
          </mxGeometry>
        </mxCell>
        <mxCell id="kbeqAmWCNZXN0DU5HlVw-2" style="edgeStyle=orthogonalEdgeStyle;rounded=0;orthogonalLoop=1;jettySize=auto;html=1;entryX=0;entryY=0.5;entryDx=0;entryDy=0;dashed=1;endArrow=none;endFill=0;" parent="1" source="kbeqAmWCNZXN0DU5HlVw-1" target="3lGi2Q_AwXGhQek1AMi0-36" edge="1">
          <mxGeometry relative="1" as="geometry" />
        </mxCell>
        <mxCell id="kbeqAmWCNZXN0DU5HlVw-1" value="Ranking de pilotos" style="shape=note;size=11;whiteSpace=wrap;html=1;fillColor=#fff2cc;strokeColor=#d6b656;fontSize=8;" parent="1" vertex="1">
          <mxGeometry x="170" y="401" width="100" height="32" as="geometry" />
        </mxCell>
        <mxCell id="kbeqAmWCNZXN0DU5HlVw-4" style="edgeStyle=orthogonalEdgeStyle;rounded=0;orthogonalLoop=1;jettySize=auto;html=1;entryX=0;entryY=0.5;entryDx=0;entryDy=0;dashed=1;endArrow=none;endFill=0;" parent="1" source="kbeqAmWCNZXN0DU5HlVw-3" target="3lGi2Q_AwXGhQek1AMi0-3" edge="1">
          <mxGeometry relative="1" as="geometry" />
        </mxCell>
        <mxCell id="kbeqAmWCNZXN0DU5HlVw-3" value="Contador de vueltas" style="shape=note;size=11;whiteSpace=wrap;html=1;fillColor=#fff2cc;strokeColor=#d6b656;fontSize=8;" parent="1" vertex="1">
          <mxGeometry x="170" y="260" width="100" height="32" as="geometry" />
        </mxCell>
        <mxCell id="kbeqAmWCNZXN0DU5HlVw-6" value="&lt;font style=&quot;font-size: 14px;&quot;&gt;Visualizador de la carrera en curso&lt;br style=&quot;font-size: 14px;&quot;&gt;&lt;/font&gt;" style="text;html=1;strokeColor=none;fillColor=none;align=center;verticalAlign=middle;whiteSpace=wrap;rounded=0;fontSize=14;fontStyle=1;" parent="1" vertex="1">
          <mxGeometry x="421" y="299" width="456" height="30" as="geometry" />
        </mxCell>
        <mxCell id="H24yTWiZWt9j9EsLIiZ6-1" style="edgeStyle=orthogonalEdgeStyle;rounded=0;orthogonalLoop=1;jettySize=auto;html=1;entryX=0;entryY=0.5;entryDx=0;entryDy=0;endArrow=none;endFill=0;dashed=1;" edge="1" parent="1" source="kbeqAmWCNZXN0DU5HlVw-11" target="3lGi2Q_AwXGhQek1AMi0-5">
          <mxGeometry relative="1" as="geometry">
            <Array as="points">
              <mxPoint x="827" y="271" />
            </Array>
          </mxGeometry>
        </mxCell>
        <mxCell id="H24yTWiZWt9j9EsLIiZ6-2" style="edgeStyle=orthogonalEdgeStyle;rounded=0;orthogonalLoop=1;jettySize=auto;html=1;entryX=0;entryY=0.5;entryDx=0;entryDy=0;dashed=1;endArrow=none;endFill=0;" edge="1" parent="1" source="kbeqAmWCNZXN0DU5HlVw-11" target="3lGi2Q_AwXGhQek1AMi0-7">
          <mxGeometry relative="1" as="geometry">
            <Array as="points">
              <mxPoint x="827" y="301" />
            </Array>
          </mxGeometry>
        </mxCell>
        <mxCell id="kbeqAmWCNZXN0DU5HlVw-11" value="Botón de pausa y de velocidad de simulación" style="shape=note;size=11;whiteSpace=wrap;html=1;fillColor=#fff2cc;strokeColor=#d6b656;fontSize=8;" parent="1" vertex="1">
          <mxGeometry x="777" y="200" width="100" height="32" as="geometry" />
        </mxCell>
        <mxCell id="QpNFFBGp1fq8rPrE3FLl-2" value="" style="endArrow=none;html=1;rounded=0;exitX=1;exitY=0;exitDx=0;exitDy=0;entryX=1;entryY=1;entryDx=0;entryDy=0;movable=0;resizable=0;rotatable=0;deletable=0;editable=0;connectable=0;" edge="1" parent="1" source="QpNFFBGp1fq8rPrE3FLl-9">
          <mxGeometry width="50" height="50" relative="1" as="geometry">
            <mxPoint x="350" y="370" as="sourcePoint" />
            <mxPoint x="877" y="984" as="targetPoint" />
          </mxGeometry>
        </mxCell>
        <mxCell id="QpNFFBGp1fq8rPrE3FLl-3" value="" style="endArrow=none;html=1;rounded=0;exitX=1;exitY=1;exitDx=0;exitDy=0;entryX=1;entryY=0;entryDx=0;entryDy=0;movable=0;resizable=0;rotatable=0;deletable=0;editable=0;connectable=0;" edge="1" parent="1" source="QpNFFBGp1fq8rPrE3FLl-8">
          <mxGeometry width="50" height="50" relative="1" as="geometry">
            <mxPoint x="350" y="370" as="sourcePoint" />
            <mxPoint x="877" y="660" as="targetPoint" />
          </mxGeometry>
        </mxCell>
      </root>
    </mxGraphModel>
  </diagram>
  <diagram id="UMeS2UveTNoMKhNqxhHc" name="Nav-Diagram">
    <mxGraphModel dx="2060" dy="1182" grid="1" gridSize="10" guides="1" tooltips="1" connect="1" arrows="1" fold="1" page="1" pageScale="1" pageWidth="827" pageHeight="1169" math="0" shadow="0">
      <root>
        <mxCell id="0" />
        <mxCell id="1" parent="0" />
        <mxCell id="n27B04yHf-TSasKXkmAs-40" value="" style="group" parent="1" vertex="1" connectable="0">
          <mxGeometry x="126" y="550" width="576" height="324" as="geometry" />
        </mxCell>
        <mxCell id="AfAw1vHwojRYz4hnU-Z0-1" value="" style="rounded=0;whiteSpace=wrap;html=1;fontSize=10;fillColor=#f5f5f5;fontColor=#333333;strokeColor=#0894FF;strokeWidth=3;" parent="n27B04yHf-TSasKXkmAs-40" vertex="1">
          <mxGeometry width="576" height="324" as="geometry" />
        </mxCell>
        <mxCell id="AfAw1vHwojRYz4hnU-Z0-2" value="" style="rounded=0;whiteSpace=wrap;html=1;fontSize=10;" parent="n27B04yHf-TSasKXkmAs-40" vertex="1">
          <mxGeometry width="120" height="324" as="geometry" />
        </mxCell>
        <mxCell id="AfAw1vHwojRYz4hnU-Z0-3" value="LAP XX / YY" style="rounded=0;whiteSpace=wrap;html=1;fontSize=10;" parent="n27B04yHf-TSasKXkmAs-40" vertex="1">
          <mxGeometry width="120" height="50" as="geometry" />
        </mxCell>
        <mxCell id="AfAw1vHwojRYz4hnU-Z0-4" value="" style="endArrow=none;html=1;rounded=0;fontSize=10;exitX=1;exitY=1;exitDx=0;exitDy=0;entryX=1;entryY=0;entryDx=0;entryDy=0;" parent="n27B04yHf-TSasKXkmAs-40" source="AfAw1vHwojRYz4hnU-Z0-2" target="AfAw1vHwojRYz4hnU-Z0-1" edge="1">
          <mxGeometry width="50" height="50" relative="1" as="geometry">
            <mxPoint x="264" y="190" as="sourcePoint" />
            <mxPoint x="314" y="140" as="targetPoint" />
          </mxGeometry>
        </mxCell>
        <mxCell id="AfAw1vHwojRYz4hnU-Z0-5" value="" style="rounded=1;whiteSpace=wrap;html=1;fontSize=10;" parent="n27B04yHf-TSasKXkmAs-40" vertex="1">
          <mxGeometry x="544" y="10" width="20" height="20" as="geometry" />
        </mxCell>
        <mxCell id="AfAw1vHwojRYz4hnU-Z0-6" value="" style="html=1;verticalLabelPosition=bottom;align=center;labelBackgroundColor=#ffffff;verticalAlign=top;strokeWidth=2;strokeColor=default;shadow=0;dashed=0;shape=mxgraph.ios7.icons.pause;pointerEvents=1;fontSize=10;fillColor=#000000;" parent="n27B04yHf-TSasKXkmAs-40" vertex="1">
          <mxGeometry x="549" y="14" width="10" height="12" as="geometry" />
        </mxCell>
        <mxCell id="AfAw1vHwojRYz4hnU-Z0-7" value="x1" style="rounded=1;whiteSpace=wrap;html=1;fontSize=10;" parent="n27B04yHf-TSasKXkmAs-40" vertex="1">
          <mxGeometry x="544" y="40" width="20" height="20" as="geometry" />
        </mxCell>
        <mxCell id="AfAw1vHwojRYz4hnU-Z0-8" value="" style="endArrow=none;html=1;rounded=0;fontSize=10;exitX=1;exitY=0;exitDx=0;exitDy=0;entryX=1;entryY=1;entryDx=0;entryDy=0;" parent="n27B04yHf-TSasKXkmAs-40" source="AfAw1vHwojRYz4hnU-Z0-3" target="AfAw1vHwojRYz4hnU-Z0-1" edge="1">
          <mxGeometry width="50" height="50" relative="1" as="geometry">
            <mxPoint x="774" y="30" as="sourcePoint" />
            <mxPoint x="824" y="-20" as="targetPoint" />
          </mxGeometry>
        </mxCell>
        <mxCell id="AfAw1vHwojRYz4hnU-Z0-9" value="" style="group" parent="n27B04yHf-TSasKXkmAs-40" vertex="1" connectable="0">
          <mxGeometry y="55" width="120" height="74" as="geometry" />
        </mxCell>
        <mxCell id="AfAw1vHwojRYz4hnU-Z0-10" value="A. ABC" style="rounded=0;whiteSpace=wrap;html=1;fontSize=10;spacingLeft=-25;verticalAlign=top;spacingTop=-2;" parent="AfAw1vHwojRYz4hnU-Z0-9" vertex="1">
          <mxGeometry width="120" height="74" as="geometry" />
        </mxCell>
        <mxCell id="AfAw1vHwojRYz4hnU-Z0-11" value="1" style="rounded=0;whiteSpace=wrap;html=1;fontSize=10;" parent="AfAw1vHwojRYz4hnU-Z0-9" vertex="1">
          <mxGeometry width="24" height="20" as="geometry" />
        </mxCell>
        <mxCell id="AfAw1vHwojRYz4hnU-Z0-12" value="Aguante físico y mental" style="rounded=0;whiteSpace=wrap;html=1;fontSize=8;verticalAlign=top;spacingTop=-4;" parent="AfAw1vHwojRYz4hnU-Z0-9" vertex="1">
          <mxGeometry y="20" width="120" height="27" as="geometry" />
        </mxCell>
        <mxCell id="AfAw1vHwojRYz4hnU-Z0-13" value="" style="html=1;verticalLabelPosition=bottom;labelBackgroundColor=#ffffff;verticalAlign=top;shadow=0;dashed=0;strokeWidth=1;shape=mxgraph.ios7ui.slider;barPos=70.81;strokeColor=#001E38;strokeColor2=#a0a0a0;fillColor=default;" parent="AfAw1vHwojRYz4hnU-Z0-9" vertex="1">
          <mxGeometry x="12.5" y="31" width="95" height="15" as="geometry" />
        </mxCell>
        <mxCell id="AfAw1vHwojRYz4hnU-Z0-14" value="Agresividad" style="rounded=0;whiteSpace=wrap;html=1;fontSize=8;verticalAlign=top;spacingTop=-4;" parent="AfAw1vHwojRYz4hnU-Z0-9" vertex="1">
          <mxGeometry y="47" width="120" height="27" as="geometry" />
        </mxCell>
        <mxCell id="AfAw1vHwojRYz4hnU-Z0-15" value="" style="html=1;verticalLabelPosition=bottom;labelBackgroundColor=#ffffff;verticalAlign=top;shadow=0;dashed=0;strokeWidth=1;shape=mxgraph.ios7ui.slider;barPos=100;strokeColor=#001E38;strokeColor2=#a0a0a0;fillColor=default;" parent="AfAw1vHwojRYz4hnU-Z0-9" vertex="1">
          <mxGeometry x="12.5" y="58" width="95" height="15" as="geometry" />
        </mxCell>
        <mxCell id="AfAw1vHwojRYz4hnU-Z0-16" value="" style="group" parent="n27B04yHf-TSasKXkmAs-40" vertex="1" connectable="0">
          <mxGeometry y="129" width="120" height="74" as="geometry" />
        </mxCell>
        <mxCell id="AfAw1vHwojRYz4hnU-Z0-17" value="B. BCD" style="rounded=0;whiteSpace=wrap;html=1;fontSize=10;spacingLeft=-25;verticalAlign=top;spacingTop=-2;" parent="AfAw1vHwojRYz4hnU-Z0-16" vertex="1">
          <mxGeometry width="120" height="74" as="geometry" />
        </mxCell>
        <mxCell id="AfAw1vHwojRYz4hnU-Z0-18" value="2" style="rounded=0;whiteSpace=wrap;html=1;fontSize=10;" parent="AfAw1vHwojRYz4hnU-Z0-16" vertex="1">
          <mxGeometry width="24" height="20" as="geometry" />
        </mxCell>
        <mxCell id="AfAw1vHwojRYz4hnU-Z0-19" value="Aguante físico y mental" style="rounded=0;whiteSpace=wrap;html=1;fontSize=8;verticalAlign=top;spacingTop=-4;" parent="AfAw1vHwojRYz4hnU-Z0-16" vertex="1">
          <mxGeometry y="20" width="120" height="27" as="geometry" />
        </mxCell>
        <mxCell id="AfAw1vHwojRYz4hnU-Z0-20" value="" style="html=1;verticalLabelPosition=bottom;labelBackgroundColor=#ffffff;verticalAlign=top;shadow=0;dashed=0;strokeWidth=1;shape=mxgraph.ios7ui.slider;barPos=25.88;strokeColor=#001E38;strokeColor2=#a0a0a0;fillColor=default;" parent="AfAw1vHwojRYz4hnU-Z0-16" vertex="1">
          <mxGeometry x="12.5" y="31" width="95" height="15" as="geometry" />
        </mxCell>
        <mxCell id="AfAw1vHwojRYz4hnU-Z0-21" value="Agresividad" style="rounded=0;whiteSpace=wrap;html=1;fontSize=8;verticalAlign=top;spacingTop=-4;" parent="AfAw1vHwojRYz4hnU-Z0-16" vertex="1">
          <mxGeometry y="47" width="120" height="27" as="geometry" />
        </mxCell>
        <mxCell id="AfAw1vHwojRYz4hnU-Z0-22" value="" style="html=1;verticalLabelPosition=bottom;labelBackgroundColor=#ffffff;verticalAlign=top;shadow=0;dashed=0;strokeWidth=1;shape=mxgraph.ios7ui.slider;barPos=42.48;strokeColor=#001E38;strokeColor2=#a0a0a0;fillColor=default;" parent="AfAw1vHwojRYz4hnU-Z0-16" vertex="1">
          <mxGeometry x="12.5" y="58" width="95" height="15" as="geometry" />
        </mxCell>
        <mxCell id="AfAw1vHwojRYz4hnU-Z0-23" value="" style="group" parent="n27B04yHf-TSasKXkmAs-40" vertex="1" connectable="0">
          <mxGeometry y="203" width="120" height="74" as="geometry" />
        </mxCell>
        <mxCell id="AfAw1vHwojRYz4hnU-Z0-24" value="C. CDE" style="rounded=0;whiteSpace=wrap;html=1;fontSize=10;spacingLeft=-25;verticalAlign=top;spacingTop=-2;" parent="AfAw1vHwojRYz4hnU-Z0-23" vertex="1">
          <mxGeometry width="120" height="74" as="geometry" />
        </mxCell>
        <mxCell id="AfAw1vHwojRYz4hnU-Z0-25" value="3" style="rounded=0;whiteSpace=wrap;html=1;fontSize=10;" parent="AfAw1vHwojRYz4hnU-Z0-23" vertex="1">
          <mxGeometry width="24" height="20" as="geometry" />
        </mxCell>
        <mxCell id="AfAw1vHwojRYz4hnU-Z0-26" value="Aguante físico y mental" style="rounded=0;whiteSpace=wrap;html=1;fontSize=8;verticalAlign=top;spacingTop=-4;" parent="AfAw1vHwojRYz4hnU-Z0-23" vertex="1">
          <mxGeometry y="20" width="120" height="27" as="geometry" />
        </mxCell>
        <mxCell id="AfAw1vHwojRYz4hnU-Z0-27" value="" style="html=1;verticalLabelPosition=bottom;labelBackgroundColor=#ffffff;verticalAlign=top;shadow=0;dashed=0;strokeWidth=1;shape=mxgraph.ios7ui.slider;barPos=65.07;strokeColor=#001E38;strokeColor2=#a0a0a0;fillColor=default;" parent="AfAw1vHwojRYz4hnU-Z0-23" vertex="1">
          <mxGeometry x="12.5" y="31" width="95" height="15" as="geometry" />
        </mxCell>
        <mxCell id="AfAw1vHwojRYz4hnU-Z0-28" value="Agresividad" style="rounded=0;whiteSpace=wrap;html=1;fontSize=8;verticalAlign=top;spacingTop=-4;" parent="AfAw1vHwojRYz4hnU-Z0-23" vertex="1">
          <mxGeometry y="47" width="120" height="27" as="geometry" />
        </mxCell>
        <mxCell id="AfAw1vHwojRYz4hnU-Z0-29" value="" style="html=1;verticalLabelPosition=bottom;labelBackgroundColor=#ffffff;verticalAlign=top;shadow=0;dashed=0;strokeWidth=1;shape=mxgraph.ios7ui.slider;barPos=24.56;strokeColor=#001E38;strokeColor2=#a0a0a0;fillColor=default;" parent="AfAw1vHwojRYz4hnU-Z0-23" vertex="1">
          <mxGeometry x="12.5" y="58" width="95" height="15" as="geometry" />
        </mxCell>
        <mxCell id="fx1BVUe-VdyWVqqvepRA-1" value="" style="group;strokeColor=none;" parent="1" vertex="1" connectable="0">
          <mxGeometry x="126" y="70" width="576" height="324" as="geometry" />
        </mxCell>
        <mxCell id="fx1BVUe-VdyWVqqvepRA-2" value="" style="rounded=0;whiteSpace=wrap;html=1;movable=1;resizable=1;rotatable=1;deletable=1;editable=1;connectable=1;fillColor=#dae8fc;strokeColor=#010203;" parent="fx1BVUe-VdyWVqqvepRA-1" vertex="1">
          <mxGeometry width="576" height="324" as="geometry" />
        </mxCell>
        <mxCell id="fx1BVUe-VdyWVqqvepRA-3" value="" style="endArrow=none;html=1;rounded=0;exitX=1;exitY=0;exitDx=0;exitDy=0;entryX=1;entryY=1;entryDx=0;entryDy=0;movable=0;resizable=0;rotatable=0;deletable=0;editable=0;connectable=0;" parent="fx1BVUe-VdyWVqqvepRA-1" source="fx1BVUe-VdyWVqqvepRA-12" target="fx1BVUe-VdyWVqqvepRA-2" edge="1">
          <mxGeometry width="50" height="50" relative="1" as="geometry">
            <mxPoint x="230" y="170" as="sourcePoint" />
            <mxPoint x="280" y="120" as="targetPoint" />
          </mxGeometry>
        </mxCell>
        <mxCell id="fx1BVUe-VdyWVqqvepRA-4" value="" style="endArrow=none;html=1;rounded=0;exitX=1;exitY=1;exitDx=0;exitDy=0;entryX=1;entryY=0;entryDx=0;entryDy=0;movable=0;resizable=0;rotatable=0;deletable=0;editable=0;connectable=0;" parent="fx1BVUe-VdyWVqqvepRA-1" source="fx1BVUe-VdyWVqqvepRA-11" target="fx1BVUe-VdyWVqqvepRA-2" edge="1">
          <mxGeometry width="50" height="50" relative="1" as="geometry">
            <mxPoint x="230" y="170" as="sourcePoint" />
            <mxPoint x="280" y="120" as="targetPoint" />
          </mxGeometry>
        </mxCell>
        <mxCell id="fx1BVUe-VdyWVqqvepRA-5" value="" style="rounded=0;whiteSpace=wrap;html=1;movable=1;resizable=1;rotatable=1;deletable=1;editable=1;connectable=1;fillColor=#f5f5f5;fontColor=#333333;strokeColor=default;" parent="fx1BVUe-VdyWVqqvepRA-1" vertex="1">
          <mxGeometry width="160" height="324" as="geometry" />
        </mxCell>
        <mxCell id="fx1BVUe-VdyWVqqvepRA-6" value="Número de vueltas" style="rounded=0;whiteSpace=wrap;html=1;verticalAlign=top;fontSize=10;spacing=-1;" parent="fx1BVUe-VdyWVqqvepRA-1" vertex="1">
          <mxGeometry y="50" width="160" height="54" as="geometry" />
        </mxCell>
        <mxCell id="fx1BVUe-VdyWVqqvepRA-7" value="Número de coches" style="rounded=0;whiteSpace=wrap;html=1;fontSize=10;spacing=-1;verticalAlign=top;" parent="fx1BVUe-VdyWVqqvepRA-1" vertex="1">
          <mxGeometry y="110" width="160" height="54" as="geometry" />
        </mxCell>
        <mxCell id="fx1BVUe-VdyWVqqvepRA-8" value="Disciplina" style="rounded=0;whiteSpace=wrap;html=1;fontSize=10;align=left;spacingLeft=5;" parent="fx1BVUe-VdyWVqqvepRA-1" vertex="1">
          <mxGeometry y="170" width="160" height="54" as="geometry" />
        </mxCell>
        <mxCell id="fx1BVUe-VdyWVqqvepRA-9" value="Ejecutar" style="rounded=0;whiteSpace=wrap;html=1;strokeColor=#0894FF;strokeWidth=3;" parent="fx1BVUe-VdyWVqqvepRA-1" vertex="1">
          <mxGeometry x="460" y="270" width="100" height="40" as="geometry" />
        </mxCell>
        <mxCell id="fx1BVUe-VdyWVqqvepRA-10" value="Guardar configuración" style="rounded=0;whiteSpace=wrap;html=1;fontSize=10;" parent="fx1BVUe-VdyWVqqvepRA-1" vertex="1">
          <mxGeometry y="290" width="80" height="34" as="geometry" />
        </mxCell>
        <mxCell id="fx1BVUe-VdyWVqqvepRA-11" value="Cargar configuración" style="rounded=0;whiteSpace=wrap;html=1;fontSize=10;" parent="fx1BVUe-VdyWVqqvepRA-1" vertex="1">
          <mxGeometry x="80" y="290" width="80" height="34" as="geometry" />
        </mxCell>
        <mxCell id="fx1BVUe-VdyWVqqvepRA-12" value="LOGO" style="rounded=0;whiteSpace=wrap;html=1;strokeColor=default;fillColor=#f8cecc;verticalAlign=top;fontStyle=1;spacing=-2;" parent="fx1BVUe-VdyWVqqvepRA-1" vertex="1">
          <mxGeometry width="160" height="40" as="geometry" />
        </mxCell>
        <mxCell id="fx1BVUe-VdyWVqqvepRA-13" value="" style="triangle;whiteSpace=wrap;html=1;strokeColor=default;fillColor=#f5f5f5;fontColor=#333333;" parent="fx1BVUe-VdyWVqqvepRA-1" vertex="1">
          <mxGeometry x="490" y="110" width="30" height="80" as="geometry" />
        </mxCell>
        <mxCell id="fx1BVUe-VdyWVqqvepRA-14" value="" style="triangle;whiteSpace=wrap;html=1;strokeColor=default;fillColor=#f5f5f5;flipH=1;fontColor=#333333;" parent="fx1BVUe-VdyWVqqvepRA-1" vertex="1">
          <mxGeometry x="230" y="110" width="30" height="80" as="geometry" />
        </mxCell>
        <mxCell id="fx1BVUe-VdyWVqqvepRA-15" value="" style="html=1;verticalLabelPosition=bottom;labelBackgroundColor=#ffffff;verticalAlign=top;shadow=0;dashed=0;strokeWidth=1;shape=mxgraph.ios7ui.slider;barPos=29.17;strokeColor=#001E38;strokeColor2=#a0a0a0;fillColor=default;" parent="fx1BVUe-VdyWVqqvepRA-1" vertex="1">
          <mxGeometry x="20" y="75" width="115" height="15" as="geometry" />
        </mxCell>
        <mxCell id="fx1BVUe-VdyWVqqvepRA-16" value="" style="endArrow=none;html=1;rounded=0;exitX=0;exitY=1;exitDx=0;exitDy=0;entryX=1;entryY=0;entryDx=0;entryDy=0;movable=0;resizable=0;rotatable=0;deletable=0;editable=0;connectable=0;" parent="fx1BVUe-VdyWVqqvepRA-1" source="fx1BVUe-VdyWVqqvepRA-12" target="fx1BVUe-VdyWVqqvepRA-12" edge="1">
          <mxGeometry width="50" height="50" relative="1" as="geometry">
            <mxPoint x="190" y="80" as="sourcePoint" />
            <mxPoint x="240" y="30" as="targetPoint" />
          </mxGeometry>
        </mxCell>
        <mxCell id="fx1BVUe-VdyWVqqvepRA-17" value="" style="endArrow=none;html=1;rounded=0;exitX=0;exitY=0;exitDx=0;exitDy=0;entryX=1;entryY=1;entryDx=0;entryDy=0;movable=0;resizable=0;rotatable=0;deletable=0;editable=0;connectable=0;" parent="fx1BVUe-VdyWVqqvepRA-1" source="fx1BVUe-VdyWVqqvepRA-12" target="fx1BVUe-VdyWVqqvepRA-12" edge="1">
          <mxGeometry width="50" height="50" relative="1" as="geometry">
            <mxPoint x="190" y="80" as="sourcePoint" />
            <mxPoint x="240" y="30" as="targetPoint" />
          </mxGeometry>
        </mxCell>
        <mxCell id="fx1BVUe-VdyWVqqvepRA-18" value="1" style="text;html=1;strokeColor=none;fillColor=none;align=center;verticalAlign=middle;whiteSpace=wrap;rounded=0;fontSize=10;" parent="fx1BVUe-VdyWVqqvepRA-1" vertex="1">
          <mxGeometry y="67.5" width="20" height="30" as="geometry" />
        </mxCell>
        <mxCell id="fx1BVUe-VdyWVqqvepRA-19" value="100" style="text;html=1;strokeColor=none;fillColor=none;align=center;verticalAlign=middle;whiteSpace=wrap;rounded=0;fontSize=10;" parent="fx1BVUe-VdyWVqqvepRA-1" vertex="1">
          <mxGeometry x="138" y="67.5" width="20" height="30" as="geometry" />
        </mxCell>
        <mxCell id="fx1BVUe-VdyWVqqvepRA-20" value="33 vueltas" style="text;html=1;strokeColor=none;fillColor=none;align=center;verticalAlign=middle;whiteSpace=wrap;rounded=0;fontSize=10;" parent="fx1BVUe-VdyWVqqvepRA-1" vertex="1">
          <mxGeometry x="46" y="85" width="65" height="20" as="geometry" />
        </mxCell>
        <mxCell id="fx1BVUe-VdyWVqqvepRA-21" value="" style="html=1;verticalLabelPosition=bottom;labelBackgroundColor=#ffffff;verticalAlign=top;shadow=0;dashed=0;strokeWidth=1;shape=mxgraph.ios7ui.slider;barPos=29.17;strokeColor=#001E38;strokeColor2=#a0a0a0;fillColor=default;" parent="fx1BVUe-VdyWVqqvepRA-1" vertex="1">
          <mxGeometry x="20" y="135" width="115" height="15" as="geometry" />
        </mxCell>
        <mxCell id="fx1BVUe-VdyWVqqvepRA-22" value="2" style="text;html=1;strokeColor=none;fillColor=none;align=center;verticalAlign=middle;whiteSpace=wrap;rounded=0;fontSize=10;" parent="fx1BVUe-VdyWVqqvepRA-1" vertex="1">
          <mxGeometry x="1" y="127.5" width="20" height="30" as="geometry" />
        </mxCell>
        <mxCell id="fx1BVUe-VdyWVqqvepRA-23" value="15" style="text;html=1;strokeColor=none;fillColor=none;align=center;verticalAlign=middle;whiteSpace=wrap;rounded=0;fontSize=10;" parent="fx1BVUe-VdyWVqqvepRA-1" vertex="1">
          <mxGeometry x="138" y="127.5" width="20" height="30" as="geometry" />
        </mxCell>
        <mxCell id="fx1BVUe-VdyWVqqvepRA-24" value="4 coches" style="text;html=1;strokeColor=none;fillColor=none;align=center;verticalAlign=middle;whiteSpace=wrap;rounded=0;fontSize=10;" parent="fx1BVUe-VdyWVqqvepRA-1" vertex="1">
          <mxGeometry x="45" y="145" width="65" height="20" as="geometry" />
        </mxCell>
        <mxCell id="fx1BVUe-VdyWVqqvepRA-25" value="Fórmula" style="rounded=0;whiteSpace=wrap;html=1;strokeColor=#001E38;fontSize=10;fillColor=default;align=left;spacingLeft=5;" parent="fx1BVUe-VdyWVqqvepRA-1" vertex="1">
          <mxGeometry x="70" y="187" width="80" height="20" as="geometry" />
        </mxCell>
        <mxCell id="fx1BVUe-VdyWVqqvepRA-26" value="" style="triangle;whiteSpace=wrap;html=1;strokeColor=#666666;fontSize=10;fillColor=#f5f5f5;rotation=90;fontColor=#333333;" parent="fx1BVUe-VdyWVqqvepRA-1" vertex="1">
          <mxGeometry x="138" y="192" width="6" height="10" as="geometry" />
        </mxCell>
        <mxCell id="fx1BVUe-VdyWVqqvepRA-27" value="" style="group" parent="fx1BVUe-VdyWVqqvepRA-1" vertex="1" connectable="0">
          <mxGeometry x="280" y="73" width="190" height="158" as="geometry" />
        </mxCell>
        <mxCell id="fx1BVUe-VdyWVqqvepRA-28" value="" style="rounded=0;whiteSpace=wrap;html=1;movable=1;resizable=1;rotatable=1;deletable=1;editable=1;connectable=1;" parent="fx1BVUe-VdyWVqqvepRA-27" vertex="1">
          <mxGeometry width="190" height="158" as="geometry" />
        </mxCell>
        <mxCell id="fx1BVUe-VdyWVqqvepRA-29" value="Nombre" style="rounded=0;whiteSpace=wrap;html=1;strokeColor=default;fillColor=default;fontSize=10;verticalAlign=middle;align=left;spacingLeft=10;" parent="fx1BVUe-VdyWVqqvepRA-27" vertex="1">
          <mxGeometry y="5" width="190" height="25" as="geometry" />
        </mxCell>
        <mxCell id="fx1BVUe-VdyWVqqvepRA-30" value="Abcdefg" style="rounded=0;whiteSpace=wrap;html=1;fontSize=10;spacing=0;spacingTop=-1;" parent="fx1BVUe-VdyWVqqvepRA-27" vertex="1">
          <mxGeometry x="100" y="8.75" width="80" height="17.5" as="geometry" />
        </mxCell>
        <mxCell id="fx1BVUe-VdyWVqqvepRA-31" value="Apellidos" style="rounded=0;whiteSpace=wrap;html=1;strokeColor=default;fillColor=default;fontSize=10;verticalAlign=middle;align=left;spacingLeft=10;" parent="fx1BVUe-VdyWVqqvepRA-27" vertex="1">
          <mxGeometry y="37.5" width="190" height="25" as="geometry" />
        </mxCell>
        <mxCell id="fx1BVUe-VdyWVqqvepRA-32" value="Abcd Efgh" style="rounded=0;whiteSpace=wrap;html=1;fontSize=10;" parent="fx1BVUe-VdyWVqqvepRA-27" vertex="1">
          <mxGeometry x="100" y="41.25" width="80" height="17.5" as="geometry" />
        </mxCell>
        <mxCell id="fx1BVUe-VdyWVqqvepRA-33" value="Color de coche" style="rounded=0;whiteSpace=wrap;html=1;strokeColor=default;fillColor=default;fontSize=10;verticalAlign=middle;align=left;spacingLeft=10;" parent="fx1BVUe-VdyWVqqvepRA-27" vertex="1">
          <mxGeometry y="70" width="190" height="25" as="geometry" />
        </mxCell>
        <mxCell id="fx1BVUe-VdyWVqqvepRA-34" value="" style="rounded=0;whiteSpace=wrap;html=1;fontSize=10;fillColor=#00BA0C;" parent="fx1BVUe-VdyWVqqvepRA-27" vertex="1">
          <mxGeometry x="131.25" y="73.75" width="17.5" height="17.5" as="geometry" />
        </mxCell>
        <mxCell id="fx1BVUe-VdyWVqqvepRA-35" value="" style="group" parent="fx1BVUe-VdyWVqqvepRA-27" vertex="1" connectable="0">
          <mxGeometry y="103" width="190" height="50" as="geometry" />
        </mxCell>
        <mxCell id="fx1BVUe-VdyWVqqvepRA-36" value="Nivel de experiencia" style="rounded=0;whiteSpace=wrap;html=1;strokeColor=default;fillColor=default;verticalAlign=top;spacingTop=-3;fontSize=10;" parent="fx1BVUe-VdyWVqqvepRA-35" vertex="1">
          <mxGeometry width="190" height="50" as="geometry" />
        </mxCell>
        <mxCell id="fx1BVUe-VdyWVqqvepRA-37" value="" style="html=1;verticalLabelPosition=bottom;labelBackgroundColor=#ffffff;verticalAlign=top;shadow=0;dashed=0;strokeWidth=1;shape=mxgraph.ios7ui.slider;barPos=42.48;strokeColor=#001E38;strokeColor2=#a0a0a0;fillColor=default;" parent="fx1BVUe-VdyWVqqvepRA-35" vertex="1">
          <mxGeometry x="47.5" y="22.5" width="95" height="15" as="geometry" />
        </mxCell>
        <mxCell id="fx1BVUe-VdyWVqqvepRA-38" value="Rookie" style="text;html=1;strokeColor=none;fillColor=none;align=center;verticalAlign=middle;whiteSpace=wrap;rounded=0;fontSize=10;" parent="fx1BVUe-VdyWVqqvepRA-35" vertex="1">
          <mxGeometry y="15" width="40" height="30" as="geometry" />
        </mxCell>
        <mxCell id="fx1BVUe-VdyWVqqvepRA-39" value="Pro" style="text;html=1;strokeColor=none;fillColor=none;align=center;verticalAlign=middle;whiteSpace=wrap;rounded=0;fontSize=10;" parent="fx1BVUe-VdyWVqqvepRA-35" vertex="1">
          <mxGeometry x="150" y="15" width="40" height="30" as="geometry" />
        </mxCell>
        <mxCell id="fx1BVUe-VdyWVqqvepRA-40" style="edgeStyle=orthogonalEdgeStyle;rounded=0;orthogonalLoop=1;jettySize=auto;html=1;entryX=0.5;entryY=0;entryDx=0;entryDy=0;strokeWidth=3;strokeColor=#0894FF;" parent="1" source="fx1BVUe-VdyWVqqvepRA-9" target="AfAw1vHwojRYz4hnU-Z0-1" edge="1">
          <mxGeometry relative="1" as="geometry" />
        </mxCell>
      </root>
    </mxGraphModel>
  </diagram>
  <diagram id="EGJwD2wAtFM3RTq75GA8" name="Position-Data-Structure">
    <mxGraphModel dx="2887" dy="1182" grid="1" gridSize="10" guides="1" tooltips="1" connect="1" arrows="1" fold="1" page="1" pageScale="1" pageWidth="827" pageHeight="1169" math="0" shadow="0">
      <root>
        <mxCell id="0" />
        <mxCell id="1" parent="0" />
        <mxCell id="t9RoJ7oQOVWE5sVN6mZm-1" value="" style="shape=stencil(rVjbbhpBDP0aXq2xPdfnNP2PSCEFlYaIkF7+vt6iWRgve6pKfSPknJ2xfXxsdqMP77unt+1Gwvv5dPy6/bF/Pu82+mkjsn/dbU/7s33a6ONGH16Op+2X0/Hj9fny99vThJw+fTt+n57w88JjplYmloRfl28kUQ5/vvl8IRz2r7eETCkOBM1U2zpBmEIbCLFQSYAQKdeBkFJ/xH1CpRIGQlYqeZ2gQm2MoQhVBoRCnAZCtajACZGJxxNqoYYIFvRYh6YUQR2iBS3jCRVmKSklHgmh1/4+oVLKPksZFM6yHquvQwZpzZVklEaKxHWdYBfQsdIxkYIYSqTq1IrFV7K/knLP231C8ZWWTFEhoYwniFBAMTTK4wlsWQLSqJGaO4ESUEbNxKMyLGQB+NIbvuND79i7+BaIxeEZ1KDN173iA4i3mT2ow0sE+NJFdsVXhK9U1eWnIHxbVBg/v3kPjhQwXkc3SiRAohav00PG+NyPv+KRd5lTOf8tpAjPJOLxSJ+W/+TwAekz+6bPpCDemiiyy6eCDrb+cvFi15rwo95s/iC8TeDReJkqyKf1o3j9N3R/0090eAH5t3qV7PAB6Scu78OgXqY3N5kCXEGsH53+uRdwrV9ScvmPIJ8cZr+Zh0C34LUDnEPH7hj/B6997s4Bpz4I1xw3jQFMFoRGRusVnQlmkkhDprnRs2ypEmDqJurgCLZfoC4Qf0LMeNZXn9WE+9iWA3W+aHVA60fwwrZHMFpw8mINxItmZl/pqZQghrTYV6yb0DCe9kY3zAIer9oojkGYftFqqur91xwBGZgufiKYHgU4hokzs88rJOiickoNEHghJtNGA5WbdrLxhKk00GX8zxwrDVoTUhfCTQMFII3gL2RjsIKQF6ZneGTbwU9xu2GEeD8FbS6CfmZfAcOjtUX602a8wlXflqzq8RHg08JTFZrwvDTd4tHa0t3tBo9+eSyGiOFRl5ng3NpiKVAgOLax2jwBLRb//jLh7wT7cH138bI/HC6vPm7/79912FeX9yT6+Bs=);lineShape=1;" parent="1" vertex="1">
          <mxGeometry x="44.99230198983514" y="11.320796026237758" width="27.676998877089773" height="57.275134429340596" as="geometry" />
        </mxCell>
        <mxCell id="t9RoJ7oQOVWE5sVN6mZm-2" value="" style="shape=stencil(3VjLbtswEPwaXxckl689p+l/BIjTGE3jIElff99RXSniKp4iQA9tb7bE0T5nuOROL55urx72uxSenh+PH/dfD9fPtzt9t0vpcH+7fzw849dOL3d6cXN83H94PH6+vz79f7iaVk6/Ph2/TF/4dsIllRgmVArffz3JovXnk/cnwN3hfg0oEmwA5Cg5EEAXHS2ULKWdB+jiwAxoQYKeB2QVLaOFImoEYFJHCxk2+3lAqRLjANAkPZ8H1CTTu3VaozSS1hYltAFQJRWyHgbGMhRpJEct+7Kp1EjWV8l9WB+lk5Q2Ex0zFKSSjPYkObv1rMa9+JJhPem63qV7fwrxx+Ls7ku8LJ+WJarLJ2OBFTFfr8z8aRJHf5p00j9YX8d4Y6AtDUAaExqTWCIAcMABwDIOsJGWiiYnpEGO2hgDpKUSpUARqiN+EuVVcwDwLrIYstjYph19RHiDtNqodh0KS4hj0KKxkXrlnWHeJePUMVBhdMmUW6hzXRcAXGLNl6SNzQqblagX2FnGoBEV09Oe5xDXAK5HLXuXOiEoBC9ugmYK1nQTg0oj3TpJ9ijxKJxyjc9jt6I1GgsaWXIApYVD0DYGjfZupL2n145ASCvXbaeTAATCuG5eyABgWZqy7iwYrTQoGhynURnGaZtfLwAoH+nWGJbNaUF02t8woa6ZoGRM+iDfjnJFCrOA3hjl23ghbBMDnCykmZAUR4hVHl5HRD9WTalmnGt+rEIeMmMEAPoWQAUj3ByGPYgB8L3RpcIpVLsHqPHRDZOUmyWRVja7/Qezobr1f3o2DG79Pz8bMoX8C2dD3bRQnQf2czVuIy8TVJ5YmAaAcafKQYx19bJVroZJSuTqjxg1SyeaXcyfecCkRBQVSmKb2TCQSqNxihPUNMv+6ztVnHeZxSWc70lr1M1Rm59LkpdTHNYzKdtm04HFTHIa5j1sdX3Bzs3QZvf9NF+AnPHffz9IJNuszkq49HXn+40fLSK4xwbheYxY8YblBwV2mwcAiRQg5lmrVoBCMgSHXYqmEEjIcbMdIEfsQghy69QFRUhEgNNmcMaTxKr85luw3wPw4+XS7eZwd3e6s1u/95d0eHS64NPLHw==);lineShape=1;" parent="1" vertex="1">
          <mxGeometry x="73.1904160361023" y="39.70599643512287" width="18.55160358054445" height="23.456246557956547" as="geometry" />
        </mxCell>
        <mxCell id="t9RoJ7oQOVWE5sVN6mZm-3" value="" style="shape=stencil(rVjLbttADPwaX4kl931O0/8IEKc26saBk77+vlTdVUUqGqNAb7ak0S7J4XBWu3j3enh42e8kvL5dzp/334+Pb4dd/LATOT4f9pfjm/7axftdvHs6X/afLuevz4/X/y8P05PTry/nb9MbflxxhXKcQBJ+/rlQqMjvKx+vz5+Oz4vnOZM4QKVUtgG6Qut+hRq3ASlQdACmXAFANxAMIGtUIIacKCQLCMQI0KnaFZJQztuAKYnVADQNFQBy81uSSAGkNSVKNksxEYMsxeoBGgMEMEWXVqYQYKWLS2unjKiRSMQAaoCFizJyMgMipQayVEhs0FXr0CE1ugM0YgAokQpbQKcAKl35HUAEMXShXj1AwJZ6XqW1U0sAUEls4RpTAnXojZqlRovUQKW7NpAtXCvUAZc4hMG1gehhKM/WEtkB4riyFUS0aeqFImgIvZ2bBbShnu8D0lDGGTDnYavU3Dygg8o1vb0CBLClpjpj+a3FZ0BXrVN1WUqw5Vr2HdRnIdlawVW6Veo3tmRHUEtU0ZbaUPcZIFDvlWrB9mgLo0W2CifrpgYx9JV8KyCjFYqXDd0SUrKJ3skH3XGPZrdChrLxTo8qH5mxDGTLDaGEom4jxhmQIfsmKbNB6BUkNPo+dit0SkgFZHTkACzy8J8QOiMkrzYFaldkVGoBQMM969hy0tTgrFa/kZNPLMpTzFTt2NJUI/5JHeq7EPAEGM6zu1jQD4kfRxKrltpDDZnd4MdW0bYGBGfVARtDrnAwcvEAdbMRxCA8tHH2fVjApa+c5SzpW0YxWHllvYJMVvZzscGY1WO5phbo+tRiddvTN7pHqPj3F8AjdXiueZhhhpQ1TinVySKzriskmyHtjoZCUGdsiZdw0YquYGmhZ6AGeKRnKmcS9cwigNqqGGyzpN4bKasqRlx1G3LGmpPiABEaAVWMbJtHJxYyApxGby0AaJzojmxW1Wkg0Ut++ujzKGSV7eojZjRyV86HoQkIgwPLEoB4g5870+kH1HhlAGoeh5WN59nZpAgFOHiF18lYwfvZe56C/bOsPjVoH4GuWU3NUseKG/xx59Vyo43/8WvM7ef1x99PP0/H0+n65Wh5338q0kvXz0zx/hc=);lineShape=1;" parent="1" vertex="1">
          <mxGeometry x="98.55581647745385" y="37.82566574312841" width="34.661728598580794" height="23.61756565305086" as="geometry" />
        </mxCell>
        <mxCell id="t9RoJ7oQOVWE5sVN6mZm-4" value="" style="shape=stencil(lVfZctswDPwavWJIEDzwnKb/kZk4taeunXHc6+8L1ZEqQtZm+mZLWArHYgEO6eFt//S6Gzi8XS/nr7ufh+frfkifBubDab+7HK72a0iPQ3p4OV92Xy7n76fn2//Xp9Fy/PXt/GM84dcNl5lCHVEcfr8/oSZ/H3y+2R8Pp4V9qqTa2cdELWwDuBFLB+BEqQCAve49SoE0bQNio9Q6gAQKGQCEtP+C6PTkPiCRlj5JSrUBQKYQOkBp0xFbMcQ+S7VQA0Ezk/ZBN54qc79wQrV3qSk1kKUcSfovaIBZKoU0+y9EAGhpej0DMmVAvlZIYg+wUgLymQPvzFkAKqiDztxcuBSBS1oouaDLVPv7gEbZBV2JQR1Up/6aAQ3HYEH3WbLCoY4zl5qrdIRp1ZmbMyARR5hW13EqFFHQgbJ6QAH9YEkMxQMy6AcjXxUPCIh8wXecRYUAVVcuRSrApWpS2Vfa0hBB0AYQxyVjFwIYlxy9K5RKExV2HZehathrbh4QAPlGMrsGkunJfWrw1C5LEUD0ziTsXSpAl7SuVKPAGWcdl6OvAwNqxBD8gBjVGFTOPuF0xsgkqOUqlT5qS1xDAPGT3fjdwJDT1ZD7AFDYrwIWlYBCSKTYx7BI3P2xGCm7qGdCbo52J2UBat9q/xkHBGBfotzXrVZ4fvBaXJQYnL8iUp7JuHX+avdBKmai2Cc0meig9px0fV73bLoA0bNVifsCmIsVlTiTOhZRAQEn41ivedY44HxbHlsfcYC7nrA/36YtA3shVmePBFKKl2DcAmKrZHD2aNTKaiYESCDbC926HSGB7IbhFp5IFShdXu3/PPX0ln3tCZQmB7fsnTAKbDCzd2PcdA8Q+n9vVB/b249/17eXw/F4u/0t3/vrnj26XRXT4x8=);lineShape=1;" parent="1" vertex="1">
          <mxGeometry x="132.3404366822756" y="12.65231172089284" width="21.106085964405793" height="46.44184768062837" as="geometry" />
        </mxCell>
        <mxCell id="t9RoJ7oQOVWE5sVN6mZm-5" value="" style="shape=stencil(lVfbchoxDP2afdVYkq/PafofmQkpTClkCL39fbXdWVhr4TB5W4yOrcvRsTzo08f25X0zSPg4n47fN793r+ftoF8Gkd1huzntzvY16POgT2/H0+bb6fjz8Dr9fn8ZLcevH8df4w5/JlyKlOuIkvB3WonU9P/C18l+vzss7KNSy509Fwp8H6CVtHQASaQBAISadACNFOU+QAop9yEYoAKAUO4BloXW7gO4UdEOkBNJgoDQZ6lYniNwiUn6E6pQQkHnuUwXQJnzdrtwwdehMUUQdBYK0Z+Q8n1AMWqEHsBUAZdKpuJOCJTKfcD4dw8oVhnApRp9lgyggK21UVwBIihc09njRQwBpLWtC8fEIOjWiNOKGoDeHMwDV4j46AhtPSBRQQBruV41jBsC2NfMAQcwXQBkaoHYpcl6CkRtHufsAUhn6rrlKlSBUub9FgBGgEjigs74BCts8HVIIAYDsOsgpYpO0Bs6o6BwxdK64ncD0mf9wj2XbKWBDjKP1y2nqNJldmAJQD0qJNkDKmJrWvVooILYWmdlXKQVsdU6rjpqKGWglQYoTgXwFdSqr4OR70EMnwOMV1rvkmkbo9kh+RMWUnX7lmv+ph7VEFSOM4kDJKrghOxVw4QH9QOvWlqJwf4rKbasRZAjnmlzmTQsy8AfpeJGGcUSM5f0MiuZ/6DILFR7gM1nFd0+dZ4qLvOe4mksUu0VhhOeKCOFvjsF8lSTH8aYGto/zxm/2qMU2YSbexEO8H62SaxVZ8/IXudJ8GqPmiZaF7K3B/IYzf/g7NHFmQJVHy8aFpJ4jtrgCfJvw3hwDCJB/kQ/dyrU3pTmjr0+eRDfPvtEemxvH9f32Ntuv5+ec8v//fvNlqa3nz7/Aw==);lineShape=1;" parent="1" vertex="1">
          <mxGeometry x="155.58097531931708" y="16.620285190273535" width="15.97451054254634" height="44.565942583866445" as="geometry" />
        </mxCell>
        <mxCell id="t9RoJ7oQOVWE5sVN6mZm-6" value="" style="shape=stencil(lVbLbtswEPwaXRckl4/lOUn/I0CcWqhrB46bx993BYWqlpanyE2iOCJndmbJge9e948vuyG418v59Gv3Pj5d9gPfDyGMx/3uPF70aeCHge+eT+fdz/Ppz/Fpfn95nGZOT79Pb9MfPmacdyR+QgX3OY84CvPAj3n+YTyu5jNTZjPfM5V0GxALBbEAoSK3AdlTqQYQIgnfBlRP0W6JC3EEgEgxGUB05AGHWshFC0hU0QpCNRhAiuSBrLVSdQaQmcRBgFhZSySHAEJiSYuWEnHIPQcVuqAVIrHloLpxhoUL2VrDOUhChHy3pwqXkNTcvAASJbRCaF5bZFLhgEyiJDqAcgBm0s+pq5wCCgRUW7lU28gtDsEmKDkqIEGigSjW30wMMioaagtgoQwA1bX/rTL6VcptAFOUfgVBZsoUUs+hoMgJcaeSJ484VMoWkF3TbROwcvOq1Bmxrn2EJrcg1oVyl+radNgGpN6uOvLVb7cB4SrVtZVm2xuVfO4BqFl+G6D2dzbUGnPUv2OkbO1a1H2ANHtyVqWspBGHvtBqjQTMl/pTNwklwIBbD1qdJ0ii0Jy8hEElBfu5ajFTeMD/Xd9WOUMXXQUhVBgd1w7wZb72NNC2fb8fnygCvqGpvViOIth+7BtqpAJ2n4m7OxIsrpbeksWH4OaVDTSV/1/x9OHf/fB5PBzm6+X6e3+f1KH5LsoPfwE=);lineShape=1;" parent="1" vertex="1">
          <mxGeometry x="144.73461429860345" y="37.075193650792926" width="20.543070060873106" height="6.339041869108087" as="geometry" />
        </mxCell>
        <mxCell id="t9RoJ7oQOVWE5sVN6mZm-7" value="" style="shape=stencil(lVjLUhtBDPwaX1UzI83rTMh/UIUJrhBMGZPH36c3zpodrWkXt8WmrVGrWyPtRm9eH+9etpsUXo+H/fftr9398XGjXzYp7Z4ft4fdEU8bvd3ozcP+sP122L8935/+frmb/nN6+rH/Of3C7xNOk1icUCn8+f9JlVr+ffL1BHjaPS8BJjUMgJRFAwFkyW0ARJPUPgakLjmPEbrESABRYh0AZnNWFwExS00DoEQxkkMsUsccqop2AujS+hghSKskB9BqAyAHSYnQ2qSMLFmgORjKVHyESI5kXZLLIUkh0shZko4sJWnkSMU8SxWFI9IA604apYkSQEPSjtYo2Qigijlau4T8MaAHCaMfrEohtPbkxQdAZhGQgwOg9kR8vc4pLirdCUsd/hoLl00iB3QXoUpnOcAPo4HguMZyaPPvnQFZCtESkk6jvMsVlkz62DUqLKq0cE5LNUolEVqXoh5gDFAlur7UKa2Qd3AWrbNYLgPUt5mitA4AJHckCJ5HcO0+F9q9m/nempNkYqBW5rouLMquLNTB0QoDBaYlaHNlUWPytrmuiwjUQEXauhkTluCH4lhSCUyt4KT6OhSSQwyrToZSZ+agLuo8Ch6INuDR7iJg2GC8fhbQmi9ES7RttChlNMTU0ImYcEM5Xqf+TEpdVqUGb4lULuNKG0eyRWkuI4KoO1OlANNZnYusK0lCV67GVcwKoeh045Egpkh4xfTi2jF4YN1Vy6z/ZbMk6kvNyxW9irVjTH06qq8DwGbj2cLnACaFnGhtONxJbG4Vdde0SidKMj/xWaJTa5untfMuEOcR8PJ51NvzfRT/aCy2MYOY6C6AA/SxE3MnWPGUKt0EcHPY+PvIych8OA13o4g0UE4xdqfmi8DGDOwuZbXNdBYBThxJBQts18ABshtZ+RRtcW6JixuXNXrtqwjcm1g62+pOZznA/W4Ym9YVvrd29UlHUge0vFo8rWx1wCrdVoVj96euBsor/gTAtW10zcBY+vR2fx2Ah/eXCQ+7p6fTu4jl9/7lAz46vbjQ278=);lineShape=1;" parent="1" vertex="1">
          <mxGeometry x="177.86642741684545" y="37.85074333158218" width="32.951560540716855" height="22.706244912084912" as="geometry" />
        </mxCell>
        <mxCell id="t9RoJ7oQOVWE5sVN6mZm-8" value="" style="shape=stencil(lVfLbttADPwaXwnucl88p+l/BIjTGE3jwHFff1+qhlSRsgfNTXE40pIcDmd3cvf+/PC232V+P5+OX/c/D4/n55182uV8eH3enw5ne9rJ/U7uno6n/ZfT8fvr4+Xvt4cpcnr6dvwxveHXBaeJRplQmX9ffkmJtP395fMF8HJ4XQF6J64ewCQA0BJJjoAybgPKoB6OlKlkAEjz+xZAp4oAjVJygGxZpduAKqTiAFJJFSQtNDygFKoFlFWo+LLaNzOoUrcq+Rzsm1ph48QDeiPu8EhNHWBkEpBD6/FIY1AWUFal4QEqxKCslWl4LmmjxpAa3fdBBw0AEKEU2crEAFGJN0fqIOlMzTdaKxWQM0fqWY06aJudtvn4NM/Tjfjk3z+UGpiFFGdndBifSX19RoU8rSTdxxfqoD6Dksb4DPTI9I03ACQvaan3KoMMMkhLggvAWApaZnIl4UiDKupBnzV6aTLDOZgE0Uuk5nlYrwMaCXtAoYaqtFR9NQcJ8M760AKgw+E3wRsxXpBYROJN70ejH4lng6moazNrVhVC5+GZNKsWFDiYHDrA8ya9ER/lekCaZsp+zRpLC4i3BebPY2OQAIX6rP2rOUNGIW2VyDgFCpq20lJIEak/CphyDkeyrEAPxErIm6KCHMzstPCFDFlXjfSeRrbGBzAKjaNWNIULyrZyIIa9ooLGVVsJwbsshb6etOmn3yFWBjT6otGlFplt6HVAif5LbEuBYROO0y94bU6O0ZfVBKeCPkyLzQPSmFf7dUCb997KByMBkBGtuUDPaQ4zWBfG/k7jEsHOyCzqJh4Jnhmb6OPh/Js+Zw7xFcW3uEEyJdAxs4rB6ljBQMNUo4AVyGqLD8aiYr3jzUpokHL2geHjOw0wyFMCnnFKjAsUG8CzFNzqwAgdTvDiZS2Ol8cEbYhxqKUIUES6j16A/wNgD//u20+Hl5fLdX39/3g/t58ud3u5/wM=);lineShape=1;" parent="1" vertex="1">
          <mxGeometry x="203.9883313772748" y="30.327360113441728" width="29.51080623453163" height="40.356088433140485" as="geometry" />
        </mxCell>
        <mxCell id="t9RoJ7oQOVWE5sVN6mZm-9" value="" style="shape=stencil(lVhJchsxDHyNrijuJM5O8g9XWY5VcSyX7Gy/DxgVrQGo6Ylu0gx6CAKNdRfv3p7uX/e74N7eT8dv+1+Hh/enXfy0C+Hw8rQ/Hd7l1y5+3sW7x+Np//V0/PHycP7/et8l+6/vx5/9C7/PuEihdFBwf84PHPn078GXs/jz4UWJx2bEK6+LJypa3BP7dfFCUSsTiMHXG7WoxBOlui7uAzktL+c5IJ+paXUaJaCO2MKo7z05oFDI4/wPQCIPNIrOestXyhkAEjV9gnggIP82qkED8rDadQ+LRw1A3AIuncRJSQFioApIkcRLBlDgpZPYhDUvxDPoDs2eIEq6AAFNX1rOLOjSPKJqALIfZ64BouZqFj8UCCj60rkRAy5lsYkGlAAdJxpXEz6FWgOAOHLDAFQ3IvY6QPyqrVQlgaA7MHHVgEYOqFQisQlpiQcEkJD3GpAogDvUSE5HXCsjjVwHCHOyBjAFEA+iMWuzsnAJATKxNitHfAJT0p7mBLnEwVqJJWhBiHKmoK3ElSrww+X1B6DB2sBsPS1PGoi4DuAJgE9o1QIYUENeFz8BADXkdUgTAFmp2XTvnRt8XEOY1LeJqIMKS6WQnSQdh5uuXW2V2zJsJR8tALpOADM5EF8rxekODYSQAMoEgARvo+IsAUilNpqdJQARvE1pYOMEtv1MB4AK0V9P1EDtYffrbFbg6QU5lwisE0/cQD1oV3mO0g0ztQmAXW1S039EaeJbEW5OHTgkygxAhq22Q+kAxL9rQQerys2ANBy1ADikUpgYXkdnt1YZs/F1oQRUkuJfDF8TtFKL5A39pFgD+lWerOTHra4D0shcy4YDAZw9QW6F/FAyZQNI8ITix9izaMtQS5OrBUjjhyYn6UWL6RTTqMZr7bFJTb15RR17s9Nib4/RbCx1UfthowGXQcg4rrf4eHJKOh62hohiK+/WmJJtxPVBCOQ+ASR9wtaolWw67sMcUinaE/q4iC7tKWtq9IEUFKEoSUVfuo+8wNMxD+Ysh2qgUvS2aPWxHW0Sqh3m+mIA+CFIx67p3VcPwKzyPdNueD8y1dq2xcxmjTJq4mzeK9DNeVj8svvJQJtI0fgYbjW87d48TNpujISXrVgDyWjqYSTBggzvbCl30PDythpxNBK7eaPnoDJl+jo0pPNWHJHG0hh3Od4OhVg8XLEMUCbYucXBTBXsTggbMtok4uCuMNqBGZPg5rXuhrj8uGyQHw/Pz+cF9PK93TjLo/O2On7+Cw==);lineShape=1;" parent="1" vertex="1">
          <mxGeometry x="253.91869800833092" y="14.924880572812981" width="86.91800050908387" height="977.1147766772906" as="geometry" />
        </mxCell>
        <mxCell id="t9RoJ7oQOVWE5sVN6mZm-10" value="" style="shape=stencil(lVnbUhsxDP2avGpsy9dn2v4HM4SSKQUG6O3vKzV4u5azJ8lbWHTWsi5Hl93xzdvD7ct+F9zb++vzt/2vw937w44/7UI4PD3sXw/v8mvHn3d8c//8uv/6+vzj6e7498utSuqv788/9Q2/jzhHPioouD/HB/Kk+X9PvhzlHw9PK3lPsQ3yPlKo2/JMMQ/yjVrZFk/k0iBeqPC2eCE3vj1Sy9vijZK5LNTdB0pukHcUgDY+UYtG3jkgL7ZIRp8C5OV2KRhjlgDk5/uKu8EFOFLlAcBiobYNiPK+8QYxkQcmlX9/WLwDkngYBYSzLs6NMgjQFIlNCFUccoXaqFJlqgCQJUNGK9VAFYRdZmI/qpSpAitlsdJ4h1wooROyVUlu5UFo5GrzOIpKwKxF/DDegeUEYKXibfJIOH4k92lA6G5aAEweqSSeNlzUuu9PAxIVAygUIwAUCt4CkKcl1HKxKjWQ0lUYxdlLB6BS9VTGfFCKBJeWYOYppwu4Q409+leebiBaayYeEygyZI1aLM3E2pnwNKCRHx0nWY6IrDmK4x3SEvCnAZ6yyThPFQGC9UOWQohqj5DKSN6StB6dIH6YSCCjS6eewQugUgJmbbmXmxWggeBrxea0kDFK0VZteCsAxJIA2gQI6IRGMU0AkHECsGatxGcAzQJQyRKAaQMKLrutWeYTLgzIcQIYVRIuRAXFu6UTWRC47s5HCFWhuquAMSGEeTy2qy2jsZ+56QhTqHNvDjYBbAEBVEUBFHNCggVCAdFeGpVRBYw5Wj0mJul2jKtrP/NSQOpmuFClwuRwaJQpvlFFmc2qLIBVMo7THMUJYUJDqe9MtLJVKWE/mPCWBidelUBiVjScnMpR6cnOZJA5YnH+hUQjnSufYSYT3/FcQhiylAw6cwdDx5qj2K5XA0yFEJUYhetUgxSArDRVOQWgS091VABospRKnSezQupbrL5yXEZWkgIyMRnqK+d+RmMJXTr0960qCiOVpCczPFNwgXB22SBlESV1XZqRFZOhAqGdq2mxxA/Acdobjyql1rvlze7bACJkY+3vRz9IM41mFJ0gzMzOPaW2ZhTTffOZOWuaglgKNTCrzlljtDLDkWOe5ASABmQJhGhOSJ0WNqfR6dKoXdd51ww1CfY/OlGP4Z0Ydq5a0kZP5wAru24FTD5w39ds7h1MfWA4cuQp+IQW0Mpr3p0o2wKz6nbGTNQOb9V0ATTatWFH6IppKhCoxYqTmbS0g24jTltWmS5RRdFF3JTUEcS3rvrMlJ/hCfMuMSTcnkzLSl9hjs7bUJ8hbei61VtAxuvcSaOKaKYT6XJlD2tisqtHMVoGF2C7dAgFJrS3LmAPpzjXF24rSnIgd5apcy0P7ON6mizyEnRQ3tiHS0+9LfkxIBhPJq5re2FVmPpnsSdavk3yuk/H8mN8in/TNfpLRCX8frOuZ/j1w03xjLt513c1q/hHDdi134bOy8uP/x+i7g+Pj8fvWOv/2w9X8uj40Ys//wU=);lineShape=1;" parent="1" vertex="1">
          <mxGeometry x="4.58566097481571" y="95.68087298968157" width="898.511697384205" height="15.507725311383638" as="geometry" />
        </mxCell>
        <mxCell id="t9RoJ7oQOVWE5sVN6mZm-11" value="" style="shape=stencil(lVjbUlsxDPyavGp8leVnSv+DGULJlBIG6O3vK0/GJpZzNuUNTs4eW1ppvfIu3rw93r3sd8G9vb8ev+9/H+7fH3fxyy6Ew/Pj/vXwrn/t4u0u3jwcX/ffXo8/n+9P/7/ctTfbXz+Ov9oX/pxw4inmhgru7+lJSOROT76eAE+H5zNAqZRngBeSAgBMXmZAII4AECjNKwix236fI3me3q9U6vb7mSkFuyEBC6RCYiIoxCBHUSjXJakgR7pjP28peuIAAM7GnPQJCFpDLPMKqVJCtFFx0/tZqKKsUvLT+ywwZK2KNL2vdeJ4+/1qOZAR0eWAx+cGQGCGlKI476iG/uQyy4nCzHJNVD2oI/05zoBMGQBy7o0yAJEEbIlz38AIWntBAMvZ0iCRGKygWZe5jvQTFfCmWecZwIUiKIyW9TmtWnkZAZS4mensyIGgFWB7IVAAPGjWTT/H3DXqMsDbtEbXdfZylkqnaShGIQe2VITKzLTWLwMeSqQYLKCAFZgt09rjDuh2rsRlBjBkOsce4gAIBZCl7KmwBSTUQI5yWFYAMTRR9JYHlKUk9jjUoCvQJQW4aNNaQcfp6VMXpgUwnYbODYCqBo5BTAza5UAqNUu2NLSBwAmqxLn5NAkebinr99gCCq6lJHZL6PzJaSkNtSVANVSMQ7Fpzahac2/IM+KQkDWA4SFDn9G2ZGqJew9uBZ3MlkpPw2ZaDXHSrcoWccbttRZFpeF6u5wBIm7Rkm0MVzpOnAUguW8NxDatAZRGa1GzgjJzRQQW1+0B02l1lLEnelPITLWGazzYFTx0M58HiJV7P0zd1gmU5lNUR40IYtAzLrMFOCBkoqeyWEBCbqZ0mkbQ6rvBltTNVFNLukkE4KWWlHvQD7V26R1eI8GBzDtn1Vj9T8JLWEvmupW9DBgNNkzfFUsW+88DUKFWClMx84P0Q2nLMBn/07gEAJ1f/JylZr5RB7FtiCpYBVKfa0f1fVBzeeQI1gA19tFgqWPkTITWF1JXP07NAfDQ6qZl4lBbCRZwNgKd+xJo0aVWdXzw4Puhd9co1YLvM7oPGb3A0Ab4bIU1MhxE26G/WMoMVojRKoDqZEIOcbkA8QEeDmrH6hwDQ5nU5g3mzgcqDBd7puOyLsk6pXG2bN5BGcnDMp+sflU4BagyyOyrPENxkeVSrLlPcBa2sXxxn+gsVADPeqcxF3RSqWYvYwNKqg7qdrjKUCoU4IIFoElGRueeD4go6OWSqPlbtKVM3i8AlKVkRT5gORLttWXI9YjpYC2GZimjLa1Dburz2Rbgc1e4/wHQPz5ujB8OT0+nC+fz3+0Nsz463U7H238=);lineShape=1;" parent="1" vertex="1">
          <mxGeometry x="115.54255422730057" y="129.80901724335467" width="48.905157377638716" height="57.275879959257054" as="geometry" />
        </mxCell>
        <mxCell id="t9RoJ7oQOVWE5sVN6mZm-12" value="" style="shape=stencil(lVZbcsIwDDxNfjW25Oc3pfdghlAypcAAfd2+SjNJozgR5c8ErfVYrayKVtf95lxXaK63y+m1/my2t31FTxVic9zXl+bGp4rWFa12p0v9cjm9H7fd7/OmtWxPb6eP9oavDkcI0bYoNN/dFwSMvx+eO/tDcxzZBw/eCXsDxizbxwA+TO4PuGyfAjgU9tYAKg6yA2ukAwvZKYAEMQsABQi0DLBmSLFH+KFq8y4iBAkICbwGsJBkVRMCKTQkAiIByNhfMc8DQvYSkCApWQcOSeaQs5q0t2BkDtkDpWWAKzww+aRQTX7qIRI4JSSy4JIkLoFRQioBHGS+E5IsK3LDK8S1SUu9WYKQ9bJKD04VUCgcsH6U+9vGkAK1YO903oQEsEFvbRm/ZXVo+izEw6x4hYMZfboIpMmtGAGBs1KKVA6ZyI2kVakYYyn3vCzOyYk+oxpSO4jlBBjV4Z+j+x6ifBw4qKgMDe7NJNPOoW+Xee6GJEdzDJV24tcgyXZNHqKiB05aOojcrwoRg96H1giQlfvLt4Hj8Q/YOweoVWgaD5HaeUW+/OAmZeSVBbVO3QCYMjfRAkQlgbIneOApDD+6kdy358Pf+rNrDoduexr/P12X+FO3atH6Bw==);lineShape=1;" parent="1" vertex="1">
          <mxGeometry x="121.42407047899496" y="290.31851934562746" width="5.837885252979959" height="4.029709355620071" as="geometry" />
        </mxCell>
        <mxCell id="t9RoJ7oQOVWE5sVN6mZm-13" value="" style="shape=stencil(fZbdcgIhDIWfZm8zQAg/17Z9j85U606tdqz9e/tmZ0c0uJ47xP0I5JwEBl59bp8/1kNwn6fj4W39M76ctgM/DCGM++36OJ50NPDjwKvN4bh+PR6+9i/z74/n6ctp9H74nlb4nbmSKZeJCu5vngmZ6jzzNAO7cX8FVKEsBuBKrgKg9oAE8gkCbLeUhEoEQKSUDZDLeWYRKIl8MEDRmHwfyBrBG6Amyu4+kDxxMoB3jhwgYu7TVAsVkFcWCs4CTBEoF4RctKeOxHIf8IXYpikHikAIf+MNUW94AGSSaoAoFIE3AlOyeWU+p2E5S9yfQZcQILVuQOwZdJNoS9Ls3wA5u2XZTIHECqeJ9kDpSaauRiNVcAY1QhdBzeLBli5WazpkSsBLV25uRaqWRyFawTQzRRIQYirJzq5atkBqLfouwqUxLBepthWb10vrWZY6UOAeyKCCtDV625mm9gmUC4Wc3VLJMMIE1BsA2FW9JraVlQB7n3c9oMKhCLEvIM1zBPZ25/umNQ1tVEC2G+fFCC8g398O2hNQuQlVu752DBfA+q0ptnqO5JFmeuIuo9DY7KjY71UxdJV4EntifPWorW++R/dC4t7V3DlIB5cHx2bc7eb3yvX//QNFp+bHDT/+Aw==);lineShape=1;" parent="1" vertex="1">
          <mxGeometry x="133.8679608424759" y="342.20868648195665" width="4.672539772115215" height="4.665236216357698" as="geometry" />
        </mxCell>
        <mxCell id="t9RoJ7oQOVWE5sVN6mZm-14" value="" style="shape=stencil(lVbLctswDPwaXTEkwOc5Tf8jM7FrTV074zhN8veBqqFs0PJ2cqMoLAksFiAGeXjdPb1sBnav59Px9+Z9fD7vBvkxMI+H3eY0nnU1yOMgD9vjafPrdHw7PM/fL0+T5bT6c/w7nfAx48RTShOK3ee8Eyjxv42fs/1+PFzZRyHxxp6ZarkPqI5KNoAYKHgAiJSrASRHDgEK1WABmXy9D/BOD3QGkSNE6BUlGkAR8hkGkSxNygOjG1yjfQFEKiARRVm0MdRKPt0H5HzjUoWZy46qDVpp8ACQlESxAKEKXNLE5o7W3HbW1VeIrZiK0gq0EXMfQ+bm5DqgNtYXMQWSAGIQSlauemdCLC1pWgAMM63aTFbfEWupMIXcAwTQWrSCuHepIrUqJ9IHXQFLk3JuaE2ogDQPllZNXEAu1T5olUZENySqtoCUBocA6oDNg9LADtCamgNXBSQo0zdBX7WqdYS2oZuiRkGk1DfLS6v6BgAEwdorrTaShwWR+zwEhm1GG5+tH9GuALqM788XoQDO11qxSeBFvHfsu8dEX0R8frb++9TSvk4oJcunx3zGVidL5ZAHxV/by7fQA8vG628bricPKt+X9lA2e6zoaZwInT0juWWKHT1tfli1/+7A8397XVymq+2438/D2fX/fhrTrXmSk8cv);lineShape=1;" parent="1" vertex="1">
          <mxGeometry x="118.00496766638935" y="386.34340746248836" width="10.08457820374042" height="8.504419777018029" as="geometry" />
        </mxCell>
        <mxCell id="t9RoJ7oQOVWE5sVN6mZm-15" value="" style="shape=stencil(lZbbbtswDIafxrc/JFIH6rrr3qNA08VYlhRpusPbj4bhzpQdYr2TD58o/uJPaeCHt+PT62Gg8Ha7Xr4ffo3Pt+PAXwai8Xw8XMebjgZ+HPjh5XI9fLte3s/P8/Pr0/TnNPpx+TnN8HvmYggIYcIo/JlflYI2v/k6E6fxvCJaRakGqBWpOUBAywYQjVDuAxKQ2QAtgdN9oFRkm0MTiANkBtkIKx12CW6gaEOoDk7WpDl2ACE6WUedj6xMjOZEiAS2EWpCIAeIva6FwR6QwXarM6GJkzQj2QgpIXqyJkgxAH/IsAskQeoAjeCoVAhCnwFqQaLPLEkqJG+Sjo4h8mKwtayegxpq2mwcO4AsBluXhgcwio0gyfWDfmab9FTe1ZGVEGwENVB1ImRZivl/PZoYtVuT3wY4oG4bjSMThd5yUyvLjoMYuW2apeMg9ShZy2k7Fq8L7AFe/05InacF5IgUUDpLC4oz/+Y8YUF2CoOW2Zb/SVAd9+hqxZZFc9cTyzLdBxBRvQXpDlkgozhbpkdDV3bR/V8Pn04hv6zLpiGFpR3sO02Pqm4HliZ773zuDp7mOnnnyqAasyF08O/G8TKeTvOFZf29v6Hoq/l2w49/AQ==);lineShape=1;" parent="1" vertex="1">
          <mxGeometry x="134.8111543135965" y="439.80711002970156" width="4.533635321696238" height="6.067913504011813" as="geometry" />
        </mxCell>
        <mxCell id="t9RoJ7oQOVWE5sVN6mZm-16" value="" style="shape=stencil(hVfZctswDPwavWJIgudzmv5HZuLUnrp2xnF6/H2hqnQISN68yRLWxLFYgBM/vO2fXndTcG/Xy/n77tfh+bqf+MsUwuG0310OV3ma+HHih5fzZfftcn4/PS+/X59my/npx/nn/A+/F5yj4mdQcH+WFyFSzP/efF3sj4fTYM+Um7L3haq/b5/Js7JvlIG5+JOysnfkHLDPFJKyL9SAPXtyq3i5AQATFwXgSCkBQCanATFRACFzo1AVICVy4T4gcv/cAZmpRgAo5PQJxcOsigNRn1AaVZAlcSBpWlSmwvcBhclHDXCQR+JANDFI0CCGKjzWzMihO7kNSNQ0NbKjgABCNR10qvCE5ihqaqRCuQCAZMmvAKDSLVEO1qWIXCpUog3aoxOErdGmNYI6CKDpwmWhN1AYAVSdpSwSA/qhVWqGrQ67VGwMRaiBTki9XQby/Y9qGyA50bJXImXE1tbJPAAY1EHIF1cuIZkReketrCICDFpUGijoE3LtHbIN4BWXRP1BluQEIwKiIxFoq8TApqexkNVVpVPr8nyvDraBhHy40oEtAM2HFjuZhxb1IK3CVtdsDAkBqj1BsgR1ScinY8hSGRCDd842hJQazV05go1PEgTKa+vkHAFIK31Pym2ipF6a7VI7O+SkzdHMEt0yPTrkYXuO+j5AxiPQdtV6FocgCto2Yh8gt66ulEEQsn81szBJDEBoQur/N04IULng+yC/LUC4cr7ayrHEALLkk50QofaotgFsB+/HnrkNWBXOu67o9/ZW06Q+wuXBZ6t98yIKTvCBqi4cOzgWJQZTaQ59Wb7T1Z1qN4DkDQkNsalbhB1XensN9hkwSVLkrH0B/shivrJHKeVO/CFeSFQqzSYU3ZVc38pv9h5uPs6OEslwBP6sRHjOMMin9K3pggyHofBBC+Qnd8PP75Ly8HERfTkcj8s9dvxuL67yarn08uNf);lineShape=1;" parent="1" vertex="1">
          <mxGeometry x="113.82025868378696" y="597.859340421264" width="32.13393795484626" height="30.662224366149985" as="geometry" />
        </mxCell>
        <mxCell id="t9RoJ7oQOVWE5sVN6mZm-17" value="" style="shape=stencil(lVfLbtswEPwaXRckl689p+l/BIhTC3XtwHHa5u+zgkrZS8lT5CbLHO5rZkgN/PC2f3rdDcG9Xc6nn7s/4/NlP/C3IYTxuN+dx4s+Dfw48MPL6bz7cT69H5/n369P08rp6dfp97TD3xnHibhOqOA+5jeeqcxvvs+Aw3i8BVTy2QB0C5fvA2ImDgaQEhW+D8iOvBhArpQiSKlQSQZQfdtiExCEONoIGjPdBySmWmwNkVwBNSQS26VYYITiKdqiI1NyAFD6lKKnCrpUI0VbdAytDZsAcS2BBRBJECCtImijwRykUllRI4CivXPkbE7ZQ7qKtLbfkCkC9kmmYPtatHGA3+Ip26qLUAARqtLfcqMGCogbup+NUBm2qYRVBE8CupQLOW9r0NF4AAiUui5xE+G2goSE7RwKZRBBAdwNzrUt7tmGWGqoRiOqYfl7oasWDfidhZKlqwoigQglUe5EHaALTERYiRoVXdUZrX2rbVQQQXjDmJAbi/qMHZyaIapBFVdtW3WUCQOyLTpnqAdNqfMZJXxCEuWeS5N7gsF9GaDkKzYliXAOHMl35+7V27YFQdGST/3535vN9WunFGx8vVFOcwb7s+/VwALlk2pz6gWghx44RNW0gqVe1GMa+V7up6AKDMD3Um4utxil3lZASqH2lxm14gyo51Xwne8F6KylOftNV5HcYmP+wqMCiafrbT5ebzJoahRtPt4RAxqVRpqlXnxnWPkXvExqO7vD1rdr0Pb63LfftXvW9nppzbuuR6IM3J+DDopM2+M62cNjk11vE2rvIH8O/YmTobvzcre5Ga9DAb78vfB/gD5cP09exsNh/rq5/b//nNFX86cQP34C);lineShape=1;" parent="1" vertex="1">
          <mxGeometry x="113.8428663792306" y="569.4700991625584" width="14.138171239350413" height="13.888729593538073" as="geometry" />
        </mxCell>
        <mxCell id="t9RoJ7oQOVWE5sVN6mZm-18" value="" style="shape=stencil(fZbdcgIhDIWfZm8zQAg/17Z9j85U606tdqz9e/tmZ0c0uJ47xP0I5JwEBl59bp8/1kNwn6fj4W39M76ctgM/DCGM++36OJ50NPDjwKvN4bh+PR6+9i/z74/n6ctp9H74nlb4nbmSKZeJCu5vngmZ6jzzNAO7cX8FVKEsBuBKrgKg9oAE8gkCbLeUhEoEQKSUDZDLeWYRKIl8MEDRmHwfyBrBG6Amyu4+kDxxMoB3jhwgYu7TVAsVkFcWCs4CTBEoF4RctKeOxHIf8IXYpikHikAIf+MNUW94AGSSaoAoFIE3AlOyeWU+p2E5S9yfQZcQILVuQOwZdJNoS9Ls3wA5u2XZTIHECqeJ9kDpSaauRiNVcAY1QhdBzeLBli5WazpkSsBLV25uRaqWRyFawTQzRRIQYirJzq5atkBqLfouwqUxLBepthWb10vrWZY6UOAeyKCCtDV625mm9gmUC4Wc3VLJMMIE1BsA2FW9JraVlQB7n3c9oMKhCLEvIM1zBPZ25/umNQ1tVEC2G+fFCC8g398O2hNQuQlVu752DBfA+q0ptnqO5JFmeuIuo9DY7KjY71UxdJV4EntifPWorW++R/dC4t7V3DlIB5cHx2bc7eb3yvX//QNFp+bHDT/+Aw==);lineShape=1;" parent="1" vertex="1">
          <mxGeometry x="-4.132039157524105" y="240.20865596437852" width="4.672539772115215" height="4.665236216357698" as="geometry" />
        </mxCell>
        <mxCell id="t9RoJ7oQOVWE5sVN6mZm-19" value="" style="shape=stencil(rVjLbhsxDPwaXwlJlCjxnKb/ESBOYzSNAyfp4+/LrSFnxbWmKNDb2qtZkRwORWrHN6+Pdy/7XQqvb6fj1/2Pw/3b444/7VI6PD/uT4c3e9rx7Y5vHo6n/ZfT8f35/vz75W5ZuTx9O35fvvDzjFOmWBdUCr/O/6RKsf355/MZ8HR4XgMCcRwBiUqeA1qhGAZAtB14DqhCmkdAIkkAEInTCAjU4hwghcLog1Kr8/Wl+fW2QUAACxKPgAiDlBPFMgJyj/NVADOpAzTKIEhJNrzZJ8IcEJVk3IEDFcCbWRxH3tjipiCVqI3rs/RkvM4zxdGDkqHL4hNPEjH4vuVdG9crFcCBvR3TrhaYdpFJRoNapAS0ZhTEcQcTUxVAciEdQ9SUAuDM0qiOJqmZBDjLkaqTjgUVAEwKNXlABU4X7TFZmSQgUeUSk5XTFZgkQrVsAECdUjdOm/6BD9K6UlaAilJvw7Q5XQFxBsibsKIatgCcDxnWMAOE8WTQQgnxYAVo5EGlV4RZWIU9oKEdhMTtULvGZ6kh1QMCKhnZp4aZVIDiDBCCjxJkmqkEzwNMPiZ2AMYm8ZXUgHWPqTmncREwp4sDBMrIh9JfrxTXsESdD4tE0ZFeKQcPUCSgtikzoTMzA+gmSqjymYC4eB4yqhomUQfgnr8zQHJM536mznwQ9dnaUC5VUreDwF7MiFO3gymu/EeAnQ/umNYG9WAnkPjuLXTVzg654AqTbQqI4ESpeJsaoNp6L1+NBWZftNo7KmhJJpB9zedSE3iKsldoVdi8mVhG2iouAcHXSYnwcLB+eWS5WBcAIpr90GAtNYOs0N6EXJpVhs2eEdDcoFR6zz6jeDv3VMRA9B26DQ0MdsiXJuQS0z52XF/fehJfXIAGldoj3teHXvdnVV7ZrUcyq9zL4cd6Bd9vgeJ4/DMFQLE1yzoyUOD3l9HWtRdwBjPJurZwmWxRzm1OBGMARcgAtXoAKkSrynZBZDgBXEOU3oxOjRqlv0xa6MpAe/uxvmNARLSN2xW6bQBXsK3+FTR6Xi45VgBFAPHtQlIcpUK8AUCus58ZzCRB6ce+hBkA7vDPdz1/B9jDx9XSw+Hp6XwztX7vr6Lsr/M1Ft/+Bg==);lineShape=1;" parent="1" vertex="1">
          <mxGeometry x="306.7405573337801" y="126.32748680888835" width="52.21145226412682" height="43.39513700862153" as="geometry" />
        </mxCell>
        <mxCell id="t9RoJ7oQOVWE5sVN6mZm-20" value="" style="shape=stencil(lVdJcttADHwNr6gZYDacHecfrrIcqaJYLlnZfh8wNGkOKLXLN4qaJrZuADPI3ev+4WU3cHi9nE/fd78Pj5f9IF8G5sPzfnc+XOxpkPtB7p5O59238+nn8+P0++VhPDk+/Tj9Gr/wZ8JxpBZGFIe/05tEof1/8XU6fzw8r88HktqdtzdZbgNio6YdQCKlAgCVRHqPmCQDQKZWOkAWChEDeguFKYKgLYaQe0AjCSBLugFEysCCKOXUx5BJ9TYgR6p9DDmQApdKJu4LlypMazMLG0ACaVWh1nqX7BPAJdWZagugUUWVDoFCz9ZSKFZoQnpuVIEmtFLtfWqWV8BvLT6vrVABpdZI3JdaE3Yp+FKbTQEWms70XwB1lsh1QNm4ZJ8AQTfeuKQzW64CavOSW9XyOiKRlo0JBDCFcQ9oWBHmU/VpQpUrlVh9IVDfMHJq3was1G86v2XBu8SkCKCkDmBpAGQy+gdXOevfQNW1UO3JZPRCLpleSvaAhuiaKLF3CXYmK5P4oFE7Hj3OPq0FiTpSdBYSMWplkYJTkA0ZFIP6tBr5BDR8C5qdHhpka5MrAkIzyAoXN11AAcCowewBqM9Upqwe8PaJW/QuyQcdQeFMQGUjUdQ1Rom6GDIFUIdPA2ryU84SHZBEM6U+aBNtQs01z/NjNRULDrq6janCnSxvKj3uMwCQLAY3qCssnJi+ej2MZAFtZuHycj7BthTnIi0OKdwctpuG7Yggp8sWvKSUIfGW/K223AAyajtwnx9bo5F0FuurPT3B86n3f2kftz6f3XE0zYVK7z1DzWxmP+7vxW8jNoLQukON3XGUybihDt5covh5Fj66jpTm/cEXpE24Fd3AdNb2Kpv4iue6A8PZx8vG8c6FCOL99JXzw/P28H6/fTocj9P1eP2/vw/bq+kuLff/AA==);lineShape=1;" parent="1" vertex="1">
          <mxGeometry x="361.3761255309678" y="131.17938795301347" width="18.90597964044946" height="45.26516784156888" as="geometry" />
        </mxCell>
        <mxCell id="t9RoJ7oQOVWE5sVN6mZm-21" value="" style="shape=stencil(rVhdb9swDPw1eSUkURLF5277HwWarsG6pmi7r38/eoGykI5vG7A3x/FZ4vGOpLzjm9eH2+f9rqTXt5fjp/23w93bw47f7Uo5PD3sXw5vdrXj9zu+uT++7D++HL883Z1+P98uTy5Xn49flzd8P+GyUuMFVdKP053aSeTXnQ8nwOPh6QLAnVpygMZUxjbA3jeKBzSSvg1onXpYQSgBQG+rFc5rXgVIpVQ9oJLWbcBIJMOzJFQTWEFI/ZYW3gCtXeIKpZAilpQ0ABIlsKWWiMsKAFhik0bzAKYMVig6OTkDlIoCQKKuniWhAfKQKw2OeegZAJjEr9ALDQAonbI4gGTqiCWh4lkSkyMI2vIQxCcKtdQ7sY9hlMnbdbUysY9hVGKgJa3URwRU4GntVEsEILWqzL/PACMaxKBK2bM0BiVgIAMMD9A0adgCBAOpSQMFbX7wMWgjBlrSEQuZ0VAZslQ8rbYm8rRtIG7JaEB5WPlhoQFtqVBaAWDizNM9Bi1ghaHTXxe0QnnrrEJnAO5AC8Bb1DaJepwBJKh1TMFvBT2CgcwhKA9lZdFGGWmpxjyY4xoCWBVqESAIINPyF1uCgEHD52EIMTZQD0ErbIo5nVvahUcTaBC6ypwR15C+B6nfk+L5Z1FzkOuYfXKrVmbfsxYecDVmn4gLHv4TwjpImE9sUwUQazNWyTFs1EjragIy5jIaLJk0rFCpgNTZ9FCDwk1OwKVj1bTyTM3V51N0UBfYFVditVaPxtAaA+YG92/DTGgPNiMih9oKyYs7l9lWt4b74FBLARpC05wr5vNYdn1VxRIVoAnps1+eUwD3bxUrlKTc51x93Tl5NXbrfMWm1XwEteKiV2IO2oAqshiS57SPWXKuk9Ri8xGG495yXvLCEzy92YGtcAR0kDfjJPR0KfDMZ+YfIWir5OgkYMcpH/RSoRBgTavNuKj5cCz0nWcNvA6wqTyINcPek3MMuumfADWcW2Ue6jYBPtOWStQ/DSBBrfi8ZEFX74eGZyujNX5wsBkXBV3jYG+tRYBFTRocAH1W8usAmSPwBaAhlv71o8lfAOzi9zea+8Pj4+kTz+X/8ZuO3Tp9D+L3PwE=);lineShape=1;" parent="1" vertex="1">
          <mxGeometry x="377.3986532308513" y="152.74682138958337" width="31.021511852577078" height="21.878607506896515" as="geometry" />
        </mxCell>
        <mxCell id="t9RoJ7oQOVWE5sVN6mZm-22" value="" style="shape=stencil(lVfLctswDPwaXTEkwOc5Tf8jM3FqTV074zh9/H2haqiKkLVtbrKsJYHFYkEO8vB2fHo9DOzebtfL18OP8fl2HOTTwDyej4freNOnQR4HeXi5XA9frpf38/P8+/Vp+nJ6+nb5Pq3wc8ZVT4EnFLtf8xsfKLk/bz7PgNN4XgFSolR7QKJS9wExUCkdgB1V3geEQL7fgRPFsg+QQNznIELV7wN0PdcDAlNCAE8xdYDo8Q6BYu4AqUBapZDvWcqVGACU1tCzVJgKoDVrmbLdIYZ9QHGN9QWAcyiaNFtAjABQiDchBUDrpNbQJ+3JZQAQyr4HCAkChEbiAlCxJAhIfQ6aVcEhmaSnrEADVUfZAIQSCKlkCtIDInlUB2l1XQEyCEnLlIoFIC2p+JwBqH6BlrLYfqhMEQE8sQE4ciikjbyVNwY2ozv43gQmwaOQmKpRK5NDAGXd7PCPHCpJXzjtOGQCWmn2FhCAWpUTt2lRJ1CtIdscAshBxWx2UJaQa6hyonE+lTfaQXva0JpbZfZCMlapWaGO0w42NjNlhaxSnbS3GQ0yIzP+KCCFxskyp52DMQUtbOy3qJBXiSQ9rzWRAG0wt5PCitcK1OfZhqQC9miMNtta1IoH+8LIMqb1Dfjet3CXg4NOVdQNrVeWk0lo7n9//bo5LEk7SdxPmO280vNbAUULanKG0nbcuq8jsSNXOQYuObVWv74yiqebWR+rVMeAYciRoF6Omz7A8WQ7qRiew2qxbiRQcdpTZuxEYhD/qmsXjVJFCdTNCaZNlb3vTY95LQny30y5F7XXtkA7RCsJL5hT9d/eTlXUqO0/fIv5D4A+/L00vYyn03znWv9vL1n6ar6gyeNv);lineShape=1;" parent="1" vertex="1">
          <mxGeometry x="412.7811536673371" y="146.98455856568603" width="19.57081911081241" height="27.44322484660961" as="geometry" />
        </mxCell>
        <mxCell id="t9RoJ7oQOVWE5sVN6mZm-23" value="" style="shape=stencil(rVfZbhsxDPwavxKiKOp4TtP/CBCnNurageP0+Ptya+zGorxTFOjbeq1ZcsjhoY08vO2eXrebGN4u59PX7Y/982W3kU+bGPfH3fa8v9jTRh438vByOm+/nE/vx+fr79en6eT09O30ffrCzyuOM6UyoWL4dX2TKOc/Lz5fzx/2x9vzjRp357lQ4HVAZNLQASRSaAAQqaTeI6amACBUWwfQSFwBQCnlDpCZigBAJumDlBsl5FIlZm8hl3WAJIo9aVWKgEOKpC5KlSpwyWIiPemUZifvAnIidcqwzMR1QMkUtQcscbsLqGahj5JaKgHp2qj2WsqmJUC6CZWeQwkkQHwtzw4sgEoCpFGGemhLKtcATt6NMelAWTqAhSEHAIiU+nqohTJwqSqxs2CpBJmu1WfaPpFApo2ijgBA2oKYy+ASynShOJJGFtpA2sIKLHAIFHr1Ga0GtGEm6qgNpL5K2qvP9JiwXFNPwj4BLcgsnQXQ5v58H2D10rt0E4f74ijEg4mC5Jd8szQSqB3XpVsvgMXmWglF55JCDlakTn4twv49WYg9IMC+MXHo4/pRVKtRcoBMGRVpGQAK24B57MaiAWCzlKFIde6Gq3IdipSRS3WmeBMltAtMJeekwcT/E1AKpV6t1m9hw0+eQ1Go1sIU3XpSKQALtlu4PqMZWkjNj5QscCdLQjwsQAqiJDb51ZMuwIJtkW5CFEyaebAQoIU2/3uzOyCxWi/uY2QbFJLeMm5u1yXw/WVtXvZigVtr8vubreJohA49r8D+Mgw3pQq6S/DjNsFWwXMuF7Jwb4u+m/K84t9XG5U+NAFmSkn9cYGJ0uiOo9nRvG7sOBgEpmN3AQtzg7l/XiiKiw1a4zlR6ROLr1+sfscWEkD3ny+Qfz1vDx+31Zf94XC97N7+72+39up6M5bH3w==);lineShape=1;" parent="1" vertex="1">
          <mxGeometry x="433.6515679789595" y="137.6606047152777" width="24.180029963774814" height="33.687024391654404" as="geometry" />
        </mxCell>
        <mxCell id="t9RoJ7oQOVWE5sVN6mZm-24" value="" style="shape=stencil(lVbLbttADPwaXYnd5b54TtP/CBCnFurageP08felKkg26WqC3GRpxrskZ0gO/PC2f3rdDSm8Xc6n77tf4/NlP/CXIaXxuN+dx4s+Dfw48MPL6bz7dj69H5/n369PE3J6+nH6Of3D75nH1PtESuHP/KIn6vzvzdcZfxiPN/jYqVdDaIVq3yZwJmZDqIlS3iZkJYghlEipbhNKoWKvxEK9bBNqpVYMIQk8oQmFaAixUG/bBGHiYAgBxiyFQnH4AKogdxEEagHgO03fbiOmCIomQmwDzsuLLbxYfMX5Uby9v1BF9xfKVkRRRYQDzrYAMVNGEVSS5kssAkuWrEyjFgVromRPqOiESF38lRpSRaDCPuiQtgldqLgTIjWQJSVE2y7UGcA4ivfmJwbOlFX2q5WhkzVFyRkTdi9J1GwNNGVIRiqa6vAB4euiyiuekc/aIpnr/T/wQQguPwX1FfH/j0UdQ/AHdKxR9a1NkCqIkQs6NSc5xqJulK3k1AUw5rU13/oMWf+zhJ5J7JWmLKH5kXz7zUwZZKnGZVysdeMlDf+fgYGijaGqdEHhdES69jXNcSA9nRjJVlrNx4DQlghXvHYbEEKl6JpXwGbL1Ko/QEDZNIPZ4xl0x/uAO9wStGYuYB0IIODg54GsutrAR9vrtJsJENGdlbW7dmCc4EXa+7JlbOBd/ntdvL2Rn+JWTd16AD5RtfnpvHTvjfp+bpX9GK8P1735ZTwc5rX79rvfs/XVvKPz418=);lineShape=1;" parent="1" vertex="1">
          <mxGeometry x="431.91403766625945" y="136.20133978859008" width="30.902457165459055" height="19.88055255464087" as="geometry" />
        </mxCell>
        <mxCell id="t9RoJ7oQOVWE5sVN6mZm-25" value="" style="shape=stencil(rVjZbttADPwavxJ7H89p+h8B4jRGXTtw3OvvO6qxikgpExTom6NwtOTucDirXbx7fX542e+Ce71ezl/3Pw+P1+dd/LQL4XB63l8OV/zaxftdvHs6X/ZfLufvp8fb3y8PU+T069v5x/SGXzdcStLjhAru9+1Jz5LK3yefb4Dj4bQEVGlFAWqTmAigi9eAUsaam4DsxDsFyFmip4Cqa0hRciAAL14DYhBXKSBnBQie1xAk6Bp8HEluA/BvDagSWQlVii4BK+b346sXF1S8E+fej29JQtOHIIm8v7ux/FzwfIzbgCzeAPJg1jagSdY8QsmZbKl3c4kzoksjx9y7BUScAisiSTPMS1LINjVQX1c9cZGsUKu4pAFlnOQmoGSpXgO6VMbtJLHq/gzSyApormAamnMDzVW7BkBESEODm00XXVAD4Qa41jVbK06mkYOz7K6ZZlQl6ApqkcA21bb/FE+4Gm33IJ9C8vdSgq2XxTvJJp8okeSz6hzoR6Xv95pDFU9o/ub9pUklnAsSVwxivQ/10k2AmVPJkCorShdJJL4NcV7EF05QvyogEgJ5P9632KFMhMJDDDWl0TOdlACAHeSeTk0AkjnkKK7TGpJuY7A00a5spsuyZFJClW4SKoOH73SlfX+h8h7HtFjk0ylLvbfxjgijG5qz2FCmQm5s9xwfqDFydnagKyuNL1qFQCHexWZ/Jl3/n/FtuLIZ4GgTgEHeTMtGGRf78K6L8crmMdysGU1wbokAkHHQUgG7ykiHPTdaDcvNJj5I3DWNMKEjKRreruvOj5nyos3zfTZSZTjobYAbvJzNHWog+ggim4EMxWRWDZajmN4Zhng7Hnqqz81Di5iPclbiJ4fNHHy3/hS+J5AV8sqE4NzYEASXjcvBxagQfZzIb3xUpUWvbxWVKwASyPoYeqHcA8C0Q6/UicCempRwEQjsNhit2wSgExXGXa3qXcI94IPrY14BGFnR8UHr2OJusi0zSLmvliCzFhphq+7jzroNKPbS/Hb72QZkq97TQZCqATCmCkfNpHL6FmH2tdCLxb9/vPgYgB9v30qeDsfj7VPL8v/22woe3b7LxPs/);lineShape=1;" parent="1" vertex="1">
          <mxGeometry x="451.3275977000085" y="127.62208529794657" width="32.533588630350096" height="42.443261438165564" as="geometry" />
        </mxCell>
        <mxCell id="t9RoJ7oQOVWE5sVN6mZm-26" value="" style="shape=stencil(lVfLbttADPwaXYldch/cc5r+R4A4tVE3Dhz39fel6joVKXuC3GRJ4+UMOSQ1yd3r9uFlM3F6PR0PXzc/d4+n7SSfJubd83Zz3J3sapL7Se6eDsfNl+Ph+/Pj+ffLw/zmfPXt8GP+h19nnHTqeUZx+v3vTqLR/t75fAbsd89LQKJUHYCZRr0N4ESi/oRCqrcBeRCLA9REBYTElUpygFapFsChU2YH6JUyOKFmat0DCgnfBrR++b9lSHIboLxSyWQAsmoh9hykQQ7aqHtZRWiAPOig5jkIzvRgahpPyB0ATBOfOCuNBmQdnTQATGgU0iDxHEq6nHm9+JLVtz+iWKoBYqxkKopZa0y1lVdHJzTi4QGFKpJJqHlT10YCDDHSRfYFAHUB7dRkdQIIycp11MihoOpj0h5VaoCD5kh6zgOQ1QBBVss0I4/myMGKqSCAXNK0LFcUUiUt0RB1AICuPCrYEKaSJz2bGmR6mCNXHk0ZejSHiWL1iwBKIzQmcy0CDNKQOMEhjcvAeQNYeSPHWUjBQAnm4cOAOdO+lrqpBPxgj7NXaW7ogMM8cLxK1hYUWLRKbK7GCo3Rkql4DovueX1Sa0yEVQuDXpmVkgfYVFLUyaKn+1t1XY8odhmTLYP3V9PB8oz6nlXB2gyAsK1jnm8W2PVYottwBqxjqS+jht9XKl6gbOMQECiWH9+RMmZsAgYnZFx2NgfCuseZ0jsAHxJjUQ2QvEimUgZuNg45LMUK1z2TNZC2vRoC+mrdY0ooD5UknCAYIJcVYQFAa7fZX1YLJQMvWFsvOXJAtfTxj5P3AXbx/1voabffnz+lls/jt5PdOn93yf0f);lineShape=1;" parent="1" vertex="1">
          <mxGeometry x="483.0027287406906" y="153.69486671221216" width="26.294816291079314" height="20.463284927207724" as="geometry" />
        </mxCell>
        <mxCell id="t9RoJ7oQOVWE5sVN6mZm-27" value="" style="shape=stencil(lVbLctswDPwaXXdIgC+c0+Q/MhMn1tS1M46Ttn9fuKocEbaQ6Y2SsCKBxS448N3b9vF1M1B4Ox0P3zc/x6fTduBvA9G4326O40lXA98PfPd8OG5ejof3/dP0/Pp4jjyvfhw+zn/4NeFIUPmMovB7eiPg9PfFwxS/G/eLeC4I1MVThYR1QEoo/QY5Ipd1QGZI6QBFkGgdUAlsAAni5FArcuwBhMbrgMaI1QIoO4CGmnsAg+o6QBjF7JBRPUBFCrZK2eFB9HN/pJoQHB4UIH2VaoN4R2pIqQNo3apTVsmg1gOqy4OEuSaXZg1oHg8Z3O8ghOQkXQXlCvCvWW4DEqjYI0lbByhNRfqkG4KTdClI2ZbV3SGh9VXSrMjRg7Za7CWqWbGjuFJBV83nMV0vNC3a25Wodr+RKIOd5mtx1tdSoh6gzAdYAKqnB0I0gIQqDqCATQ5t/sWa4oLhQbvVySGGgNATod7GnoLEUt1o5nItidzvoIXLnguoG5v+ViPxykTWyb4ApGzte1GHmwhKV87k+3dUVfdTLosLqIh9PGd3jAaUPj4WNDfe8BzVWh2FBquGGFzWouWgujOa5yabwy+Wc3ukQ3r1E4qnNETDrzuoItliBkSP3GLHjt89UayfKnvOSNDqRDHn97yO9ErVl0f93eGW2pXVze19O/4/r3hfx+vi8z75PO5203V0+d3eP/XVdHfl+z8=);lineShape=1;" parent="1" vertex="1">
          <mxGeometry x="512.7921081808909" y="154.128604548976" width="14.552579217346647" height="16.844553756365485" as="geometry" />
        </mxCell>
        <mxCell id="t9RoJ7oQOVWE5sVN6mZm-28" value="" style="shape=stencil(fZbdcgIhDIWfZm8zQAg/17Z9j85U606tdqz9e/tmZ0c0uJ47xP0I5JwEBl59bp8/1kNwn6fj4W39M76ctgM/DCGM++36OJ50NPDjwKvN4bh+PR6+9i/z74/n6ctp9H74nlb4nbmSKZeJCu5vngmZ6jzzNAO7cX8FVKEsBuBKrgKg9oAE8gkCbLeUhEoEQKSUDZDLeWYRKIl8MEDRmHwfyBrBG6Amyu4+kDxxMoB3jhwgYu7TVAsVkFcWCs4CTBEoF4RctKeOxHIf8IXYpikHikAIf+MNUW94AGSSaoAoFIE3AlOyeWU+p2E5S9yfQZcQILVuQOwZdJNoS9Ls3wA5u2XZTIHECqeJ9kDpSaauRiNVcAY1QhdBzeLBli5WazpkSsBLV25uRaqWRyFawTQzRRIQYirJzq5atkBqLfouwqUxLBepthWb10vrWZY6UOAeyKCCtDV625mm9gmUC4Wc3VLJMMIE1BsA2FW9JraVlQB7n3c9oMKhCLEvIM1zBPZ25/umNQ1tVEC2G+fFCC8g398O2hNQuQlVu752DBfA+q0ptnqO5JFmeuIuo9DY7KjY71UxdJV4EntifPWorW++R/dC4t7V3DlIB5cHx2bc7eb3yvX//QNFp+bHDT/+Aw==);lineShape=1;" parent="1" vertex="1">
          <mxGeometry x="519.5347088893509" y="147.5419994702379" width="4.672539772115215" height="4.665236216357698" as="geometry" />
        </mxCell>
        <mxCell id="t9RoJ7oQOVWE5sVN6mZm-29" value="" style="shape=stencil(lVfZbttADPwavRJ7c/mcpv8RIE5t1LUDx73+vlSFtU06miBvsrwjksPhsVN+eNs+vW6mFN7Op+P3ze/d83k75S9TSrvDdnPanfVpyo9Tfng5njbfTsefh+fl9+vTfHJ++nH8NX/hz4KLlVqbUSn8Xd40kvr/xdfl/H53uD0v1Ls5nxPlvg5ImdgaqImiAEAjjtajTCECgJBkA+A8nHwXkJlSsRYKCQAUJckGXdRJEEPt3iVliXkdwJUKW4BQAoCeKVsLtVFAAKFog+ZAtQBAp1AtoFFL6wCJVNIdAFiQQlUsgGHiRBNntdQDJSAN0aCtSzNvwEIMgUKwCB48rJlgG4QE6gjQqdrMKQ/IJ2k+1TMPINWSqdhUq5OQpkDRpvqGh/fF0ahHb6I2qFdmH4Qg+UXK1ieplIFLrJ3JZk4FKUCvfKmwS6o7RRDDbMHy2gsVwKvG4BKhb5CYlCWxMXCnggDarW1FaM3BEgqDxBtABbSqmKrtfVqkGVV1Gx5fADIEvFYQzZVcooRLrtuC6HXkfg0gNgbthg0DgqVVaUhAGipmV0EzDciCKsdZ6GPIrHVXp9aZBtQFPgtomlcL4AT7d4vjezcziAFAJz87LVWKaPCmuzzgOZruRop2jYb2mTo8vqm4BkZ71GXELQ88hszKSPF9qWK1Xub4ZRWosI+FsU5dm/cH5/2Eg5QGLyO8BQRfaoUaWt4oWOcTHJ7ajNyggu2x+n0hUAFyY78t4CGoTSL740D9sxC6O4+aUExjol6DReWoynSzIFME1Kv0gw1Xt2B8/nNXhQ/P68P1XvKy2++Xa83t//4eo6+WO1B+/Ac=);lineShape=1;" parent="1" vertex="1">
          <mxGeometry x="527.6183235635731" y="148.96186724150607" width="25.83590961849268" height="22.805516192298" as="geometry" />
        </mxCell>
        <mxCell id="t9RoJ7oQOVWE5sVN6mZm-30" value="" style="shape=stencil(lVfZctswDPwavWJIgODxnKb/kZk4taeunXGcHn9fuCodEbK30zdZxoo4dgFwkoe37dPrZuLwdj4dv25+7J7P20k+Tcy7w3Zz2p3taZLHSR5ejqfNl9Px/fA8/359ulhenr4dv1++8HPGsZLKBcXh1/xGqdU/Lz7P9vvdYWkvxGWw50QpA0CiwgMgRZIIAJVCHT2KVMp9gDDlMACyUEgAUCmPMRSLqt0HpEycBkCNMOgcKYxB10INAEqirCNASBQALEvqXWpyH1CZOHtAAJWumaoLOlAFWWrXui5OEARQ4rFw5qQCarRK0Z2QKIIstUZlZLdFFRkC/oZ4BVRikFZzSUcutUCMXDJ9jdSwvDVA78Y+S83YCmIwqlX2gApcqtfvLQGgDkY+lyUDxAAA2vW1CLoAahSmUn1aAwi6RMqOrQU2MgO08YSqVEEdrEcUJyCBiiu5J3FBb6Rp01dx5IuwL5nH4gRkEkWaNnqvmgAUUKKwkmhAbC1+PliWFEtU1Nchge4dQ1j5VPoQu3dEdD61PjJuA3Iv7IKuCQVhgLQCgCB01WcWYd0eWuKHljUGxFeb1K34xCqQUMwkoyJMtojgMVAag8iJKgBkXweVPsVux9yZs1gdGogg+DFtyweDnK6IpJSB3ELnwNUdqE7rSKP8GTYkoTQ24djn720G+QYZ8PgnTc5cQGZiXNsjdkbbX9jbIxGbYpuzT2gptNJWlx00cCzXbq21toW3VB6LJZ1Lt+21bwUfXFAkxv9ds/9pbw8fO/3Lbr+frwTL//0dwF7N9wd5/A0=);lineShape=1;" parent="1" vertex="1">
          <mxGeometry x="551.0585772815648" y="139.06675236079582" width="15.211510652024572" height="33.1491505091351" as="geometry" />
        </mxCell>
        <mxCell id="t9RoJ7oQOVWE5sVN6mZm-31" value="" style="shape=stencil(lVbLbhsxDPyavRIUqec5Tf8jQJx6UdcOHPf196Wx0NpisxPktpY1Ijkkh5z04W3/9LqbhN8u59P33e/5+bKf9MskMh/3u/N8sa9JHyd9eDmdd9/Op5/H5+X369P15vXrx+nX9YU/Cy4wab2ihP8uJ0xpOfi63D/Mx7v7Uvrf/X4QqrINiJG4DAAJxG0bkAOV0YIGkrQNaIGyAzRiEEOLFNsAiIEUxNAytTgCMqUAANXHkCIFBGhUwwDIil1q3qWiFACtBgg6AKpQLgBQPEuNqSALicIYtPEGLQjFMQZzsoCga6OUPSAzAGSq0bukEQAipeKDFlBLRmKrnlZGFoTEJU460VuAOCYuW+KQBaU0ApKdIJYSRfHlzaDjaqHGvoE4g0xzz+t9i6KeVi8z0fKgsEVd8ZnwRCQCtYvKypKJAHKp+dLI3FvqXUBgJh5pyq0Tt2liBBSrb6QClcLIa62kyIIldtQZ61pGAPXzoX2QOe7KuA6IGw+bCPkUIpkLTssarD8rTyccRmwCPSQm165LmTKaWtTGqFOlCoojUnM9mnt5vXvfxH0MIAkVEIAN0dGfWOD73JX6fiQCRrlP2LWhcbv91wq2SCgYiOwlyU4E8B/6a2sNKVxLVgldK4gEFZB/XqmB67lr1eoNBaSnPbTbDobK/7M728f37eO2IL7Mh8OyX97/7xdKO1qWUX38Bw==);lineShape=1;" parent="1" vertex="1">
          <mxGeometry x="548.4477993293372" y="149.1097035846949" width="21.821204842237876" height="6.363429474003169" as="geometry" />
        </mxCell>
        <mxCell id="t9RoJ7oQOVWE5sVN6mZm-32" value="" style="shape=stencil(rVjbThtRDPyavFrnfnmm9D+QCCUqJSjQ2993jlZnu3bYQZX6FrJMzhnbM7b3EG9eH+9ejofgXt8u56/Hn6f7t8dD/HQI4fT8eLyc3vDpEG8P8ebhfDl+uZy/P98vf7/cjf8cn76df4xf+LXgmhOXByq438s3NYpfvvm8AJ5Oz1tAluQUIDfpgQCq5KYAqUtigC4xKEDsUvs+oDvJBuDEJwqoGhD8DMMe6V4VwCcOwAW8BkRpcR9QcYGuAVm82weUleIKaJIJIDXxhnSUTK4Uizid6YA8lH1ASJJ1lPATve0DQNGZ0khSKgmrdB3VHCSRGzXLoCQJpPR8lagPqFkiYQDK5kbNi2dBjbb0UFuFVFKCHHWMWpsKfBeAkNgTGi294qUYQJFGolq6OAMIUohAa5pZWsOKE0hYKyhqNVQ3z3w/0agDHSWw6qySigR9QkKmSVhHTLRRIjORWUCdUV8BXioDdOsZyUkhURq+Vy0gMN8L1uwBSOwEUOyWA9NDR6bNlYI0diW4nC4NWED1FGCvVHh3yFOQKwB6IKUxOGhAXvvFbpS0FUODngio+2mLKyCKIxIdmXYWwDKNWjKZHrbA9FDn4xXguRVDD8FGyTEvhuKazQPrcANg9IA2TDINgDEySJSaQLW+hGoNJA9w0nIlIHYCEueuJBpZeXvJ5QrASiPY0QQSdeyENOe7DWnmfADYE/jwMyRqOJQ53ewBgjkBpfE/AdBD1bWEJpZIlBpIm7m4SSDlXbu9EsoxMwBMQGt6+Ajr08E2lF6pkUHyZi72zs2J6P1hA5rXTta7FDbOoPx1qjt34+DmaLECPCXhESbNGgOTJ5lLlgJmjUKs8moBKkU8uZCzM2VOdP9J06g3Lsa8HoSrJowpOhMC2F1MbWPuDYQBZtCkrwRSkZyAG1edNGwzTAxYCe1WOZePvYmy66YeaI7HkK0Z8LpGjRkbDvT+EFY225ijvWojrM1KSSelbieliCGacahzZN50N7apwySLJoGhIbFmFaw2sS7Rlt5mt9yYJFM/Gm4xYuZxHVOGAXg6WsEcTJQAoK8nkp1jsEswMbTrDS7QTI/lKFsADStcuFgO9AR3xcF9BPC6+NC+2NqKx9UIGgMjSRwARkGV2yoAplqxNRaWuH9+c/UxAB/+vih7OD09Le/Zts/tizV8tbyUi7d/AA==);lineShape=1;" parent="1" vertex="1">
          <mxGeometry x="399.6796338525992" y="217.35259391297768" width="42.77219187306264" height="30.247989219319606" as="geometry" />
        </mxCell>
        <mxCell id="t9RoJ7oQOVWE5sVN6mZm-33" value="" style="shape=stencil(lVjLUhwxDPyavapky5btMyH/QRVL2AphqYW8/j6abHkylodOcVuGlseWWq32HOTm9fHu5XiI/Pp2OX89/jzdvz0e5NMhxtPz4/FyerNfB7k9yM3D+XL8cjl/f76//v1ytyCXX9/OP5YVfl3jYqAQl6jIv69PAhX9++DzFf90et7gJRNnhw8An5nSuP76YBev9u/m8Mzv40sgYYeX8D6+2vH8/nN+H9+YdFxfqCWALxTKgK+kID+tUnT5T9RQgFCoQ4CdIDZw4kRVxwCljFKaKY0pEqYKcqTZ51QSZZCkXKi4pBZKFWwpUghDQAqkgEZW5jBuKeW+xH5AIx3rlhplVAelOAbktTV2AwKvTO4RGjA3GpWx1No6u/YDjDpjmorCQlTtWVzZGqmiQmSqLqB2AdnnhlAd09QiiQBuWE7GM7Tcn+wrUuv9sgYU2EGx9Q2sAfYEHHqRoFGTNrXcj5jeUHpl9rlB7PBKDSSJKYrPUQH7mZhnTBHAVdNQVzQhhvsXV7NAFew/UnF4hudNlMTjE9iPdkXc4AXJhS/wIvuo0UiTPy+aaoGpuBfEPuf2A2w99hUogKNLwESJAFrftuTGgnEuocnmRd44DbVl4miFNVjfvsEjTtuIqR6vgNOxz7ANHjmX0Bm2OS+aszwVQCnAHma3vg1q2MNu7hsjUL24+5QN5SLUrOgYFyDehN2tz3jo+wG79CSyIZQnjUC2pfVqbvaP8v9RfGidvluRQ4Qr3spaQAaqYiaIpxQhWUmTj1qmMXhDrr4IizsEAVqpuQCTMlDlUnwbmwVB874KyZgls/RoS7V48dXUPfp+QPSVNv+JmG0mx0lXFug2Vf08s2sPMo9WhzwWLmHPkqduNj+raGLGfq1ZLXaF8pWjL5x1CGKrTibEJBxeE4xL7uYikN5l6oeAt2Tsdz4qROiwS5uGIDGyv9wvxytZ4W3ZclTF4SPqz8lIFejTRInHotnMBBmdRd5sACOvPB1gCcAq6ZhtvgGcONTJOlJEPqd4vLUSMlLaG3FTMXRLU3/TVDiVQ/akzhivfoybACNnrdNVGV7QLD/Z4xnn3+lExE52upOGnoB9An3w+9L/8fbj38esh9PT0/Vb2Pb//uOXPbp+OJPbPw==);lineShape=1;" parent="1" vertex="1">
          <mxGeometry x="400.80223652398536" y="293.53038837375857" width="34.775823527816556" height="47.413642863053155" as="geometry" />
        </mxCell>
        <mxCell id="t9RoJ7oQOVWE5sVN6mZm-34" value="" style="shape=stencil(fZbdcgIhDIWfZm8zQAg/17Z9j85U606tdqz9e/tmZ0c0uJ47xP0I5JwEBl59bp8/1kNwn6fj4W39M76ctgM/DCGM++36OJ50NPDjwKvN4bh+PR6+9i/z74/n6ctp9H74nlb4nbmSKZeJCu5vngmZ6jzzNAO7cX8FVKEsBuBKrgKg9oAE8gkCbLeUhEoEQKSUDZDLeWYRKIl8MEDRmHwfyBrBG6Amyu4+kDxxMoB3jhwgYu7TVAsVkFcWCs4CTBEoF4RctKeOxHIf8IXYpikHikAIf+MNUW94AGSSaoAoFIE3AlOyeWU+p2E5S9yfQZcQILVuQOwZdJNoS9Ls3wA5u2XZTIHECqeJ9kDpSaauRiNVcAY1QhdBzeLBli5WazpkSsBLV25uRaqWRyFawTQzRRIQYirJzq5atkBqLfouwqUxLBepthWb10vrWZY6UOAeyKCCtDV625mm9gmUC4Wc3VLJMMIE1BsA2FW9JraVlQB7n3c9oMKhCLEvIM1zBPZ25/umNQ1tVEC2G+fFCC8g398O2hNQuQlVu752DBfA+q0ptnqO5JFmeuIuo9DY7KjY71UxdJV4EntifPWorW++R/dC4t7V3DlIB5cHx2bc7eb3yvX//QNFp+bHDT/+Aw==);lineShape=1;" parent="1" vertex="1">
          <mxGeometry x="588.8680829127884" y="220.20865596437852" width="4.672539772115215" height="4.665236216357698" as="geometry" />
        </mxCell>
        <mxCell id="t9RoJ7oQOVWE5sVN6mZm-35" value="" style="shape=stencil(lVjbchoxDP0aXjW25Otzmv5HZkIKUxoyJL39feUyBlsLh/C27OogWdcjr+ThffP0tl6xe/847L+vf2+fPzYr+bJi3r5u1ofthz6t5HElDy/7w/rbYf/z9fn4++2pSbanH/tf7R/+HHGhUPANxe7v8Y2jwv9ffD3K77avo3ymJJN8IIlQ3uVJvpKvQD5RSpO8F/LIoERiAIUc1lBni1ioegAoVNwEENeddhEQPdU6AzIJMCkmijMgBArpOiB5yjNAdaIwJPVJmQGZcrgOyIFKmABJKJbrgLIwSXUWYFJRk3gCZKEE3FqZZE7VjM9QA9U5NdRIFgBIPdVOgEAeaSjEc2qUBL1UK6U5DuqGBCLtnSM3q6g4+9SmMh9CHVcyAGhyGoBmHzqElrwxKVJFuRFtqNXICgqiOGLTNSoJ0JCZvLOA7GAFyUID7ALVhnoIzUWEpO72UQWoCI6UFoAMIudT/zwAAgJ48t4CULOsiziUbuM1BSFYAKP8znb+aDoWYBFrgUULSCgMp/8bAAF0gei6xQMAte/EvfeOGnC2VmcBGSSf1kPx1q0OnEErjqMFoEMrIC8AsH3zwksVRjpH8tECUL9PClhoKEBDFBKxANRmguslPwJA4HjRBJpJYEB4rUe2ADQgPFsq0NyKZlYP6xg3wJe8ZnexAJTddwOUQVZjkjY21PdOmTYMIAZn0M7KixGXgFeDloPxqiMBcdNub9pSm9PgDJEX1OFE6q4lq6nQxjVQdquGuRc3NgMAeoZoCFbuHO2ql5aMDLhViiVYyvkqCpzvA3BglQnEQUeicWvjrah+SqeEIzNG6S020o17I27SDR7IPdwGrFPb9gAKWixTb+sJ8CmTm+25sf942+hvLFi+F8rnFjjXw/O5/XDBbvH66TqpO4sn6BvDj1ynJ5cnTnfcWZwR2XF9STvLo23Bx27sWd6hvuht18KEk7MtlhsEle3Khu3RRDfVi88b2C4W2J/af0xp4XCFfF823H3XcVNeH84XKy/b3e54LzN+txcx+up4iSOP/wA=);lineShape=1;" parent="1" vertex="1">
          <mxGeometry x="597.58503542172" y="150.92856656122558" width="5.846588426454673" height="171.48770931412446" as="geometry" />
        </mxCell>
        <mxCell id="t9RoJ7oQOVWE5sVN6mZm-36" value="" style="shape=stencil(lVjZctswDPwav2JAgudzmv5HZuI0nqZxxkmvvy9Ul4oAWevmTdeCBLALgNrJzevj3ct+F/n17XT8uv95uH973MmnXYyH58f96fCmVzu53cnNw/G0/3I6fn++P9+/3E1fTlffjj8mC7/OuC7U44SK/Pv8JATK7e+Tz2fA0+F5AWiFJBlAJwnb39dArdgFmFLaBpRAtVpApFS2AZmp2B2FTCVuA6RRt4DIFPo2IFYq2QIKBeBDaBQtQIQiA0Ak7gaQAjEIa6cQ7PedooC0Ubf2cyUBLk8ssFkomUIFgELZEqnGYeJyUMUTqTZqYEuixBADaIk4bwM0hMFmoVXqYEvKpGZ96EwRUa9Ts1HqmjaQ56IA8Ss0AGhx5XQjBuTWmEjzTjfAVRX0vx0vVgjAabWXogd0kAd9ndk7HRBZ+3i9CCviUpvJPwOEAopSG1GfAQnWjCmIVkA9j8q5FdZs89DLIMtlQB6CnwF1pPIyQAVUVgAgoKYC6n5LHRSZxqPwLp0GW6rdFwENawX0VgA7AeFCqYDg2k8YxXkLUB2A4QqNPTWUXUjTKtFoEzcJCOVBfBG4JtFMqfoV4JbKSNMCUNAK844XTqPETZJvPg98RaKOS5EKWqH7uqRcQk1XtxRdpvOg45am2fYH1QPcktpzgAr7w4cB2h9cn+7aMYDichuv38crhtxIbSXqNtre5b5bVxNfgS1Ih6O80mgCAJ0d3ASngYMNwjeUWiE1lGnW5VIpA/vsqafTEiI3U7f2U4EzrurZVgwpFEGWg/gyqSNpRA7L6AQzLXRMB2VSMol1eZq6QRFLOhNb4lU4sOqoVJzPFFArYV8krwxK7Os8loGWFzfFzAYuD9zF51hgfFTo7pAhcEhSEVYbTzyQaF1INj5KKmS/jxYza2CQ8DLleCWCCjk9LeBaCDy26ffZzWzYfludVHlwdgsQHODKmaqOuXd5FkYAPQWyB1RAam1IvAIgVn/4eP4fAL14/xvwcHh6Ov9MWL73fw/00fnPg9z+AQ==);lineShape=1;" parent="1" vertex="1">
          <mxGeometry x="637.7382865012864" y="149.37339965080287" width="36.94607528764482" height="39.28340875683648" as="geometry" />
        </mxCell>
        <mxCell id="t9RoJ7oQOVWE5sVN6mZm-37" value="" style="shape=stencil(lVfLbhsxDPwaXwmJlETpnKb/ESBOY9S1Ayd9/X25deVY1HrQ3NbaHYvP4XAjd6/PDy/bDYfXt9Px6/bn7vHteSOfNsy7w/P2tHuzp43cb+Tu6Xjafjkdvx8ez79fHpYvl6dvxx/LP/w64zRR1QXF4ff5JDZK+e/J5zNgvztcAQpTcIBCsdwGZCZ1gNzvXAVIoZwGAAdKAMBMebxBArVwG2AGaBgAKRMnAFBqdQDkRi0CkyrJaJIyFYZOy2iSVuJ6G7BYPJpUYzdyPQ/Jh7UKRRAltaiPAC3QBzNAZAAUoSQAIFTLGNZIAZhUE4XxhsSwlsykPEYpRSqgvLVRGfMgdgJKw9IkPAKUArpBvdOSKOIb2JV3JAZ5MB9yHBuodq9uRelfy18A1oPAhyVxbQRYOTYAKL5FOVEDTtdGHP0NyKRmmR5Lg3EemnSLL4AGO64lktEkMS4EeTBAGovPMt0AVZpJOppktVQBzTT2PqTQi2UdEDpXXzVQAE5XpTI6nQSG1Vq0zQDUokySvUlooFTzYXJaQPFZA5Xiw4ryYC3qfJBMEXVc9bxkpRGB09aiwZW3jV3ErYHUDUWliFs0OEDuqVwH2Ou5RdEN1SeO8RT9MCCG0MfBZUDYRAGpbsaV0whS1KMTkykGGJO1aYwi2rBicmPUqEqB18XUyehD084LtxRWHUfQVeDW1Ubz1WSBC6AjrNjcWDTqqQBgioldmHJXOOtx9dWnmRrQDqb5xp4upm9AkOZKYjhEQ7/9SgckJK+mEap95K0HyOI3BigqjChHb1EMUDeYSlCnfaiCfk4TEcc+8NY9lq7K+/e46MqFQ9+/r6hxZlKFw3CRbm4uwE3GVE8c7TeFgSqUvaY3KkBMIZ6LKiZg8fZHvPcYwBGFFVVCHsiU4YRl27RZ2bKHJM+iJJ1JioMa/CCMFiXQ9zptVrawChrmpf/fFQAq+o+uxP8BsIf3Dfxpt9+fF/jr935jt6Pzti/3fwA=);lineShape=1;" parent="1" vertex="1">
          <mxGeometry x="669.0571117050144" y="167.95065908818106" width="28.703202498827523" height="26.219472733255998" as="geometry" />
        </mxCell>
        <mxCell id="t9RoJ7oQOVWE5sVN6mZm-38" value="" style="shape=stencil(lVfLctswDPwaXTF8gsQ5Tf8jM3FqT10747ht8veFRqUqQtK2vcmylsRjsUsO8eHt+PR6GIJ7u9+uXw8/T8/34xA/DSGcLsfD7XTXpyE+DvHh5Xo7fLldv1+ep9+vT+OX49O3649xhfcJV4WiG1HBfUxvfKY6vfk8Ac6nywJQ4gqQKAFADiSlBzAF2QfEQil1gBDbm01AyFRCB9AlYgYAT7UPKTG5AAGSOwAHmHR0NumSSEDSKZHry1o9eZAD6w4GoJ2JoHG6g+8BmgMDQKHiVgDQB404rEPyAJBaijMgtbptA5Q5PTVqoQByGP82OwgJ6LQCXO0AEloZtgFKvj4kyRQqAGhNemqIEh5VyVGIPaBSRY1jYhOSUAIhldWIKiCApFmIgw3JIbYyicmByYMcOJM3fYhUQJU4Ue47LTohIOlxhz6HWhu79nKofQ5j7wFbea76Yh4qqJL2oa5GlMEO2ulULAApn3LJ0FsBcB7iaoASRSQCmdgAGKuGTpyZaWlKtTvThq2eCpo4bio0AxJUPk3xt6gs2Io6rcoXzcTVv2lrNTtIk4VdwGpEESCrevc7eOeax2xbUF6VqVIGjhJXnqXSV5GNKpuNCuiMglb7SE7sBDFodd6w3QLIpx7br68y4sD3zmasp5uMThrWEZODxwB1gr5AQZokbMefm+zOXZZW472zkjenMQc1Karq9YqRqKKDjFiL9tB72DcGtO8xS0u29unIgwqpNiRv4kEKqTbDpkBU0Pcr/8eMULPPPSV0Q1DP0ev79Wff2v5e2nIzpWH8C1WYZ4wSCkjaegsGBUA5zcAcnr1vnNorkbEQj4+22gNzutA7SUakiJbUOkjI1ZRFRrkUAD3nf+9V/wDQhz/XuJfT+TzdApf/22ufvpqujPHxFw==);lineShape=1;" parent="1" vertex="1">
          <mxGeometry x="699.2725514308736" y="170.51456839331513" width="21.83344186648992" height="28.98217013966132" as="geometry" />
        </mxCell>
        <mxCell id="t9RoJ7oQOVWE5sVN6mZm-39" value="" style="shape=stencil(rVnbblQxDPyafY0SO9dnLv9RiUJXlBaVcvt75rDKaeLsmQqJt6XEm9gej8fek775dnfz9fYk/tvz0+Pn25/nD893J317Ejk/3N0+nZ/x6aTvTvrm4+PT7aenx+8PHy7//nqzndw+fXn8sX3Dr4tddKluRuJ/X/6gLsjfP7y/HL8/P8zHw3Q8qEvKzrf5vCQXyPnk1DxHXSzsfJ2/P4qr8fh8dpqm80noe4oLcTqfvUvk+6uT+f05u+aPz4dgH5QR4kQMEA+dPWguN2KQXGqzQXTCnlRcmW+I1aVMDNpigEeSIElwWeYsNxeJD0izN7BAWImBegtr4ILhWkP/vt0gu0qAB1yKCas4DcQgujxDNdUOrusGybU5SoCGEGhocTLnITdXKzGoLs/oLpFWWwyuzE6X1uF43QD1Nj+petdY/avL2Row8CGI6u2TMjHIuhhUCo2MG8psANYhBVS0p2k3EEqSpVin884j11kmuDDnAV55kriqrhreK72krhuk/uLdwLtCnK7ZPinGHrejG6ohAcCRRKmKJTLUYCA3IKwGfCgpxq1InIE3eKkxaLQrrMFIAN3AhhU1zW5QyxpbplmDC7YjFhQtiRIM0lJArOKyuDLfgFQW5kPqL94NOC8B/WFGaxMaJbhY5wJq2uF43QBoDdaA3QAWytU+KfICsj6A+Vg9ICaGKitt7C1ZbYUKYVqj5YVb0bLYDaV35cFASIm22tE/GERSca0t0AC8SR5gYEhgozaSh9ZsF63QpPxJpqbrDpYjA8MaFY2YlCgM1DgNumc37EAYDBq7oXQgDBWn3MCXxYCgFViSxcAzaCwyFD4oy0OyJYqwRhalaEkAiVNWD7EjZyAypsi2Jxmno/Pch2LyoPyG7KIxQNdj9VA6csYSZTfUpeKkt8kjg7rcUBhrNDuhwOnEsNT6yDaENZGaDt47b8LEW9B2xVLUTN5vPGNoo3S6PQqT5Znax6L/ZBB6w9k7yt5jjiSZGVGAFtZRICsNmBAGYW0ULWh+0pCa6xZQkclekYkTeU/s6AQzCDZzTemMggmiGPhh6mcjR7HDJRQTk+tpqTmEQdkNS0VkxO2fNFkKVABBiMpcQfEViYUXz2FVPiuWRQBJ7Vr2SGLFmb8x9jfiNGo+zk/a1jVMk9X+fbsPgc6KkGx5JnzMKGxs2jSe2UftG60j1WeelIRuNoBN07Re20hFC41cXstDMmhVulNDpm091E63R1iSpctVBu9o1XfdF39HBWTlSaEyEWOYbe2NYik2OzbBoDCDtDjd6LwbwyKAKhVAWixatyix/U/qWnsUD4S9dV8O75kuPTNHazULDelVfrS4My0ITMW6oizyZKNKtkssVmKlRCdqiZaXYqE7Y5G+/Rxqmg014rtkG7YzjO5D6fJ/2AqwDVNY1jmYsSt5UpD+gIEEGN0v5QBWYLIy92lh+H4Gvdgb5uAAXejaHGTeEMUyTNrXTQfnvSF6pcvZYFGHWmLD+r4mHZohi7+3hBeUsvyioJWOoDhuejPd8Hu7AQ1Unvu+lns57knsve2Zns4Xoa8gXo7T3z+spvU91QdAMJXFBbDaQdvTHab2VdzgKkW91eOUeKJdhQcqraOtcaEq9t9/WuTH8eHlV8yP5/v7y4+g4//bXz3xp8svpvruDw==);lineShape=1;" parent="1" vertex="1">
          <mxGeometry x="719.9558915334615" y="148.63214562629378" width="74.74544190333836" height="53.7844501727277" as="geometry" />
        </mxCell>
        <mxCell id="t9RoJ7oQOVWE5sVN6mZm-40" value="" style="shape=stencil(lVjbchoxDP0aXjW+23pO2//ITEjDNA0Zkt7+vnKpCZLZs/C2LNJalyPpyJt49/Z0/7rdBPf2fth/2/7aPbw/beKnTQi7l6ftYfcuT5v4eRPvHveH7dfD/sfLw/H3632X7E/f9z/7F34f9RyF2pWC+zNeOPfvxZej+PPu5UzcUy5G3Ldl8UgtG/Ecl8UzsTbGkwNfb1SzEecAbA/ktfGRXAHyhRwr+UQZfF+cS17JF4oeyOcR6iHfqCB5ptK0v54iMCgmCtphL2/ACVEM0BZJDP6n5KJCCpNJTImBQqEUlIIkrQIfElOLWiFSQRgKxEYhUwKQzpmqTrPkDeEoN8o6SpK4CEwqnoJxmqkCk0q0PkT5RAYKhUrSCoEawHbhEZOTQiIGJtVAwShUmOmaR3Gdqkd6BYhSrcTahxTJA/A1R1WDT9DFwOkWKWuF7KmAsLYJrblSBFFqbDMtqcxpWYG9hbdkBpnEaXTQoVDLKNrLCtVmuqXh1WUFtvXAMhOQDzygdqaQQN8WBQNvCUMEWOoKejCwNB6g4J2zvVUCFwD6LmnkMb2uNUrAcZvb0m8BwC8EliljBZO6M7cWNbw9gsGIkL9Np5E3qCS6yc16jXpZVzAnFNjLuoIuOslcwGEyNcQyU1ZOMIkQLoEBW4xJQmVw0ZWp6FZ8qFPROZy4lqYTVuDqJx9wH+ApSgE7zWzzgObi5SJFHKsfYdAnYFppNSZMbS1MzZzAkJV1hVtLrmq4XlPVN2pI6zJuJ4qoJGSI6O4nwzKjsvZ2WleGg0tmqaHrNQ7itTStoz6hVFhDLdpOI0ytAIR3xqE3jowZR+c0hkBEuDB11qRNysKagEnCy7whQRVGSfhFNFtNgvDr3FKDSVh/Az509qoBnjzMQ+fHhlsyXAqEgSftg2wuCK2d4+soxTLqfHGL0ImLGbKmvqcYBTxT+iakoyQcv4IC6ruWrrjAkFtKTMzkDZUc4EB9X9Tgk40XJa5vpMYkP7y6rJBsx/dttKord2rZSNPK0m420gRP6LcC5hYhjl64dOuggyRfQARovtTwsO9NdyYe737TlYzIexCh6can3yIAf50tzv59UP6nfvUxeyBXd/aWheH2LeI6PA3Oczdo12mIjBuLJXHtrMwUEPtJ/ITv64zBLWJyNVDCxpjaogSAP+XJwcVzgoG7DWWYf6yKy8PHFebj7vn5eAN6/r+98pRXx+vS+Pkv);lineShape=1;" parent="1" vertex="1">
          <mxGeometry x="315.5953451256787" y="196.91825685726667" width="523.0733116973224" height="24.953785814973344" as="geometry" />
        </mxCell>
        <mxCell id="t9RoJ7oQOVWE5sVN6mZm-41" value="" style="shape=stencil(lVfZctswDPwavWJ4gSSe0/Q/MhOn9tS1M47T4+8LVUNVhKRt8ybTWJLALg4O8eHt+PR6GIJ7u9+uXw8/Ts/34xA/DSGcLsfD7XTXryE+DvHh5Xo7fLld3y/P0+/Xp9Fy/Pp2/T7u8HPCBUp1BAX3a1pIiVL4s/J5sj+fLgt7XyiWDhCZStoHBCaRDhAEnhATxdQDAtWyD0iBcuwAPpOXfQA7yr0PQgwO4EIl90EiB/bPat/v78i5ffsiJD0JnhLYv2bi/j6FagX2lQrbAHEEAGn7zRRoRPM+QByl/kYxUwEuiydndFeIMaD2PnCFJIiKpr+S0lKB05LI+z6qmRxQtgiVXncS8ZWUZ6O7RBUDQp8KkimjKxWbClIxcUyh52E8E2hJw2qYHr0CxKmWNgCM1S0WgApGTc3FhdMR5HNVH7wNK/TBt3SZAUweZZynbE6IFBFAa1gvbxV8RjUgERtpOEhcLeR68SkzEYV1VZW0jqAyo9KQ1QkOZRzbBFIA6iUqb8nWaaSlUTkmSoEYtTc3l+pFjgaco1auuUV6G1ApGKoLpFr386ukFpTUceW1tA72n+V7EYc9NbG3R2RwhOpVnHWi4CS1gEIJNS1PJdgkhSd8FKD9QHqArlQgv7GB9D7kCrtc0X7QM6ddrngAUKr7nEu1tbFtgLfjWCxt3toGOGIzCxRY+7JYpz3uQepDMFqCs0NeBcnrjAl85tzGqcVEyQCgs0jtidYrBTSzVnslnYoFiHXcz/AWWkHfLkxMbOYfD2cHH9vQPANC0/s2wLcgzoCIRwEq1dozygbKbmUPeGZbYtTegxBFO/uow2j/QG4V0QzsnR2K9R2B9nctTWaKlXSQB6vOkwos886+k1Ju75ptglf34VY8duLzsafhv+314+879OV0Pk/P2OX/9t2qS9ObNz7+Bg==);lineShape=1;" parent="1" vertex="1">
          <mxGeometry x="620.2637540835995" y="212.5759971648165" width="22.96154527258068" height="38.26000701599173" as="geometry" />
        </mxCell>
        <mxCell id="t9RoJ7oQOVWE5sVN6mZm-42" value="" style="shape=stencil(lVbZctswDPwavWJIgBee0/Q/MhOn1tS1M457/X2hqlREytpO3nTsEteCwCAPb8en18PA7u12vXw9/Byfb8dBPg3M4/l4uI43exrkcZCHl8v18OV6+X5+nt9fnybk9PTt8mM64dfMUyXhicXu9/ylUMp/P3ye8afxvMIXpZIbPDNF3ifkQMU3BDELsk9IkZJrCEGJwz4hRsqpISRHQfcJgclLQzAnc9wnsCPfxqCJSton+ExFW0KhACz4QNq6ZIWJIEve19+V4J0j50DlyKXewr/K3M9SX2gLQQtIEklbNs0UQRUcpVZ4anWEeNedL5SBUh3FrmaeMpCRiaI936SuQNihl2mxEoP85Gp9weP8WIXZ9wQBAZiGkvQEJGtTaYp9CBmE4C0jbQzqSIBK2WIoLYGJQVJ5I2sNxKDKk4w6lxIxCtpC7CxkUmDBxyr7VeMwak2mpD0BKcmOcxs8CCFS2Tgk4Hwht+lkD24Kv7kpEgVwvnVm50+Al52rEliJIkB/QucPvt8/iudFYssA0RrS/YRmcq2GYoAzLeTqwDLTpDp5v8RGaGUtAps/b0aUdbcCC3mjulCDuj8+XO+RyRzkqNh92qrCWhuIogSS9jJytY3u41OdFu94jxcXKR0ejUubFpo6PCO8+d/7k0H+racid/lJoMDWs13XMBXkj1JoBRFgflbrwyJqSigArdfmskWRBwX76Kb5f7w9vK+1L+PpNG/F6//9Gmyf5hVaHv8A);lineShape=1;" parent="1" vertex="1">
          <mxGeometry x="651.56530352137" y="233.21222411912436" width="16.545372194356787" height="28.15321065256171" as="geometry" />
        </mxCell>
        <mxCell id="t9RoJ7oQOVWE5sVN6mZm-43" value="" style="shape=stencil(lVfLctswDPwaXTEkwec5Tf8jM3FqTV074zht8/eBqqFtQNJOc5NlLkVgFwtw4Ie3/dPrbgju7XI+/dz9GZ8v+4G/DSGMx/3uPF7kaeDHgR9eTufdj/Pp/fg8/359mlZOT79Ov6cd/s647MiXCRXcx/zGe6rx35vvM+AwHu8AMVMKGlCopW0AZ+KmACFRYACI9kgcqIIvREeuakCDR0qJvAbESrVuA0qklBUgVXJ+G9A8hagAOfUtVgHeSRBOIUqFaaqZvD5TbZTBmXIh1sy1SK1gqnWaWqUI8uoTRaONW1gbYVPSXDcJAgAyBWePxCCvgYpOUssUwf6OsskRUwMsLFibmIf7Nx1vrZTAerYZnWgPQKnk9XlqJEYEeBtw5S7ddYCIwluAA4AgCckWUEBKxR7Y5AgbRqid0iugdM9ZT6qwlmzpNFD/AvC6nFvAMVTKRncSFSgdCdoKtfTS2EqrBTTyqDgLuQUASdsHazACqABQFrUsrgpqU2RQbMhI2972BfGvAmgWltmShvZ3FI3uGjFQRehmeFebKN4FxVKbKJ9+KVOGZuFlv2IBqE19GSCN1TTzGqDfSautunJK66WxbvCZsg66MFXwhSi61jFkaWtIduKgWhep4VJLlA2Au2tueSRrQ4pYGUumJdEeNf9uJtf11+LYOpExsMkO0NQm9mLGkZ6EdRbEorUwPEUQsbBWdN9xcHhJUpzRrEe1LAwZCvAgkq5t9bY+gITK/FfseRoavjw5MxrBiTPLyKvbLENBiObN/jKyAm+U9casr+Pk1vqoa6B0915fz4tBCs4hEq+9h4ggUABfvbj8B0Aebvekl/FwmK9Z9//be5W8mu9k/PgJ);lineShape=1;" parent="1" vertex="1">
          <mxGeometry x="689.2482204926969" y="219.473724969459" width="18.49394430384018" height="32.98209536293052" as="geometry" />
        </mxCell>
        <mxCell id="t9RoJ7oQOVWE5sVN6mZm-44" value="" style="shape=stencil(lVbLbttADPwaXQku98lzmv5HgDi1UdcOHKePvy9VYVVzbU+QmyxxvBxyhsspPrxtn143k/Db+XT8vvm1ez5vp/hlEtkdtpvT7mxPU3yc4sPL8bT5djq+H56X369Pc+T89OP4c/6H3wsuU6szSPjP8iIJtfbvzdclfr87XMSLUGEHiJmi3gfESOwB0ijIfUAygHhAIAEpZaHsOYREDFIqQiE7QKUIMqo8FskSAv+viZKPZ6oM4guV5psAe6CNks8/BKoFAJSy+pIyFcA4MI9di0w5wSOK71piSphE9ickpYSrVD3rXCgi1olycYBirCMAXOmiWF0Bh6b985qSlaECQO1CWAGWJEiple6VtUqFGtBeyyTBN652e9wDsK+SuSEDbRhg4BAqtQBJsy+rdv3ejm+k3j4R2lPNjZ4B9wNvx8fRbqvYb8dn0jbkE5DuKqkMfAXUx6wjOhY0o4SU1BfUWhbQQFJqcRSFIDe38QSTXUEp1X4JXAg7ItK59/TCOnDACOng5g+Gng2swc02hpGOPguo0q14wQEpo6Re9fWECCeSFbH6xhUlBm5OidTbv2Yo7phGDo2h2+TqcrMZhexWR/eowqFaum5WNzD2ZxrtPF8tICFzrydgWkQzOIwVsoGD1gsm9fPRJmYGVmCSYRsxFQG+V1ez6RCZma9uNfMe4GuX5KDqRhVoLowboS1kCvKRfluss6X1jtzprwwrauqbwG3TfHKl/TjeHv7vzy+7/X5Zvy+/j/u2vVp29fj4Fw==);lineShape=1;" parent="1" vertex="1">
          <mxGeometry x="689.5881778352641" y="221.8464354801015" width="30.00599546399326" height="7.224948947519351" as="geometry" />
        </mxCell>
        <mxCell id="t9RoJ7oQOVWE5sVN6mZm-45" value="" style="shape=stencil(lVbLctswDPwaXTEgwRfOafofmYlTe+raGcdtk78vVFWqCck77Y2WscRrF+AgD2/7p9fdEPntejl/3f08PF/3g3waYjyc9rvL4WqnQR4HeXg5X3ZfLufvp+fp9+vTaDmevp1/jDe8TzhVSnFERf6YvoRIRX9/+TwBjofTDaBlqtwBJFPm+4CqFHsPSSkUAAikrQMUoQgAOVGQDqCBWgIAppR6QKYAckiJJPeASjXcB0ihpD3ACg08xOrLGpiJASI0amsXIOvApLpKArQ6UQu+ShEkHYijb8OfTm7aL/nN9q1REnR/K719IgX21oM+/rbcsH2/UKgdwLibgQOLyPGoNgogY2ESB6ikFQAaafYeFDG1kLgi8cyTbS1YTVwXhGqEanNMbRWKZwQ48TAVkLSFpH0OmogBwJIujqkFMkNsJrmQlkLfa1zpZ5KJDXkwatTqARWTLxUfUgIhWc7ic0ZjNazUb3QHamav5qZUAC94rsdiX4hBPJv2oMlBqfWAjMdFbL5nNsYLGJBSKbrVFkhAyqnNFVxywIuK5+mwpAAHUpa54ktAVNFea37VRrhCynLdbM+zVLftVy0wkoBxVxdG3tiDeFr045Hh/LV9wX08ATZYo1+Z9rAAlNOVxjIJkIxJnN20poIkyasVaEsaifi/n2v/ALDD39fhy+F4nB6Xt//716R9ml6i8vgL);lineShape=1;" parent="1" vertex="1">
          <mxGeometry x="714.0909041230657" y="247.02451297655875" width="7.558699564549443" height="18.860762990724652" as="geometry" />
        </mxCell>
        <mxCell id="t9RoJ7oQOVWE5sVN6mZm-46" value="" style="shape=stencil(rVjLbiQ3DPyauRKSqOd5s/mPBdYbD+LYC6/z+vtUZ6Bxk+ouI0Bu43ZXiyKLVZQu+unH45fvD5cUfry9vvz68Of169vjRX+6pHR9fnx4vb7h10U/X/TTt5fXh19eX35//nr7+/uX7c3t128vf2xf+OuGa1LbBkrh79sDzZLCv09+vr3/dH3evZ+S5LwA8jlAVXK3ADwZ54BcJScLiBL0HFCqVBtSqtI7AQwp0QKShEYATZoFxA9WSKLBApKUSjYdJasFBAmkDshSdYAiiYXURF2WdObtEFCzRFu41CWTLLUoZaFGICu0LnUYQMamSZZ6lmGpsaUhngNGmMyZgKKiiQAQsa10DRIJ+UaVUSwA1GArdOmWGk1nSx0DhnQbUhu0cDHcqTMRvdCmxiaaLfWWB9KjXaVb2dgtesymIsMtMSSRPIGvyS6BKJUQPKOrba1HksoAaEnLpt5FC5GyKsmugDwUkiYNMizBQXkmAxCuYTe9kYPJcZ7Cdadfn0Ge6XetFpCkkU1DJYolOCoTWUhNgk1ridMCjrMES7EroKsT6WodorYOkE8GwPe6BaCUrHAlS7dZQpCMGnVRJogl64ethx0gUUBPEp1+Ryplq1gCEEmWevNyvK1AsgR1jcXvITLtS9MPdh7EhoehEm0dQPjKVkC7OGuvXL/BfhdSo9QYcUa8q3QnttiHBJelQR2iV78H6AgjH1SoBg9gqtGhS9GHNIgubU69AJhBtDq/t0sryxIA0bG1zpHoFODGkzvhjwFtaSBIG2tR1NX1Q+IdB2q4TUe6AgrnTHFrUbJpUKMtLcoaCOTTZYXO+iHO4Xy3aQpIcxLe1SHynnajbiof9XRYuERlJs7+2k+uxIGQpe6oMabr/T+AVnxIWuhsXNuc2O6AMUfTY0CY49TdFCFt7FCj0/d3tstaNGffQLBJtgKmeacaNdJxPas3xTqksSFxHbDanMePsxS98mE0Zh7XVgCXSoiAEzLYJPUH9VK5TetMBDDz2Y6DnisTAfW61DKdjLEHd7jEVNlYliCV7hR099WzfoiW3jjFN0KNFvzsjdqzkDCRuYuKjDXZzNd8ltBxlN7Djw7K05rX8WfMw+DxoLtkCVLJDsj4XrTHgYRJgAGyqDvIlXkjdHZ+cNN9DNTjYLLOHwo1UW3eE/nBEjLmrovgiEwB1gP7vLY4Y6o7h0aueq0ulptniMeAdWYd9CoH3uDNROmxcvMGK5M4/3SyaZzYPLUHNXUwVe0eMh99wKPmznCJbrp5lcT7bGqoXiTfj/vHzelv7PB+JPGkaUy7DTNvWy74MreF4C8nUIFB4gleW7Z5gRRguSN6b7yT9/2tbJ3ee7Jf1zZ6r8hJPouL506pk3q5mz2ILx0V/OSM95lp/teL8Y/fx4/3W/hv16en2yX+/v/+1h6Pbjf++vkf);lineShape=1;" parent="1" vertex="1">
          <mxGeometry x="737.516659398957" y="225.2909126681518" width="27.514871140328523" height="51.31314615883207" as="geometry" />
        </mxCell>
        <mxCell id="t9RoJ7oQOVWE5sVN6mZm-47" value="" style="shape=stencil(7VnbchshDP0av2oAgYDnNP2PzMRpPE3jTJLe/r7aupBFrI8nT31o3+xdCYR0ji7sjq9e7m+e9rvgXl6fj5/33w+3r/c7/rAL4fB4v38+vOqvHV/v+Oru+Lz/9Hz8+nh7+v90s0guv74cvy0r/DjpVcphUQru5+lBIEm/H3w8iT8cHlfivlLyg7ynmM/LByHmQd5RAvLMxNnIO3dePnpydn0XgXyhatcXPi+fhKoY/yB7JFIY/clUwfrZkR/lM3kP5HX90R4fKIMD50RcxgO4ZuK2AtuIqUkoZFLJjztoEJFP1UdcR4VCLCAIGrQRdDEQgzOkQCmNCnoGtIMnNgqFPFJQmGWr8MfR54CX67QDUlCLqz2DICoIpRFK+kTAGWJqr7tCogjcqq+dUVB0g2wRY8PmOnCInqowgi8qPwH4FpNGBa7kkEmpYbMrYHirE+MYaRYIviVwZoeE4a18cNakjBjnKJf3nEEyFXOG0pY4lzXE2ThEkJcKU5oiLUChuinSCZ6hisWSchBx2rteOrpGJ+H2FsUmeykNXtsKsSWJnr2l5edtN2WbZ0qgggKhaB5TXykUgYJMBboGquDQqTYvdgWBO8RKMqJP/ZYR5ZwtELVSAV5i3wzoRc7hNiDEVvVXW8A+Jtt0rAoe7MC2b6i5Ve5tiza8mkAYfEsRXV7pAOxROhr71UIQNTc5KJAHdHM21SthA5Q3FfcCTjXERl4gTEMrA10+UUWVhFy18hEl4cl+fYJ4ZlsStZ9Rgpx4jDuSTqkuXykAPPSq1+PlYR0stiIsaQL4s1Aw+ImQYJmCSUPSPHDG/3WSR4kxtmiu+YhyCrkwrQ9Su7flSflYAd+drU7qnwTl/cRHVJumWqZ8rDA/mC6+4L7It7Fjhc8I8BAsHhT/AfiTbUNROuPO4MFNfEeD5nvlfWn0XiUs1KUtiCvWo6gPXKrYFAKUorVzjXFSQIW12MKqZ0CNY1KOmKwoMKtLD+qqX2FE+2jPkHNrF7bzirdAzQEm6tK7796k4blIgZxNG5hhaVWTTK1JCXJnGcrNDgyHQXWruXXRiRX1jdqkyUjP1NH1fwLGEzCeHv/NCXj00l+fgHWkMBRlxvAuzYmrS6oLd05p3OGtwm8rBMsHH9sIsG1SomJuRrkx5Bwf7JTjYQugQDDjqSoEgCV1YnFWAQ4t2U4Jvvfp2wrOutXj+1E/XV2olyq6J7CZ8oJ8sUhSeTR3aXGY7lMRocXOgcuBQQzE3merB1AfKVOfRwKWT7aN1z4dpNTUZqxeOy8YY4xPsOeffINb4Mn1DG+MCsloe4Dd1Ds/bFwU1x9v31DuDg8Pp08w6/f2m4s+On2v4etf);lineShape=1;" parent="1" vertex="1">
          <mxGeometry x="631.6176763797453" y="295.3912787675197" width="46.01305453850637" height="35.5344757616449" as="geometry" />
        </mxCell>
        <mxCell id="t9RoJ7oQOVWE5sVN6mZm-48" value="" style="shape=stencil(rVhJbhtBDHyNrgR77z47zj8MWI6FOJYh21l+H3aUnohsqUYGctNCznCp4rYJN6+Pdy/bjefXt8P+6/bH7v7tcRM+bbzfPT9uD7s3+bQJt5tw87A/bL8c9u/P98fvL3ddsn/6tv/en/DzqMfkclfy/Ov4Q/SU3Z9fPh/ln3bPJ/KO2MgHShHJN6/lI5V8WT6QS1o+U2iX5eVpVctXynxZPlN1Sj45iuD5zdqTIuUE/HVUglYoVFBAI8WoFDJTQgqFvA5p9tSAC65R0znLiRx4g/cjhIuChK0AhWSjlCULwCRfKOsoFUcOvCEITrVJJZIDuAuTD6VQ8EBBfNAmVcYmFZvpKu8E0I48kLYoJGKAVaFW1GGtkntgknDFhLVWmLjEls6igOiQApVifSjoDRKlaMP6l7LnCSoVw0ADVxjBptMlIEfIuMIUtA/C6QA4LVAL2iTJjANYEqiZqhccpXBZoboB5qEghTkDp2sYlB8KUngCcLrmYcDiAyWQtw4cbZFUfiDf3IDykGeI7eZtUWKqIEJNcqq5IGRD9uTx95JkSqjO1wGyId+oghS3Noi1xMcTg4yJQnNWIaIIiYL22AWY4q6giSC9BcXIMdukuTygfrVGhVToRhmgSuRAlWxTtxLkBZTpZguGQCOCCtNTp02SqQNiu1ku9DEFp66yNQnVMFEwZVWcjtikMhUMyLdmu5UkDvWSMwp51SSDV+EsotzktAB8hRF1phDGUk1WgUGl71hiq+BX4B2tQlt5Q7FRQmPGGQKlEeirOVoofZSjYaU0GbjyCNyVYRJCuJUqMDGoYQZVUzaWVeI/KVTbQbvTqGXlMQ6eMAgNJr3HGTAFzKCpicoUANE3dWlRQOW7jwETgxworn3OMAqJMlKIxJrUHvfFPitpp2W4KivTmA5r33GRgsx7WkEGRFQF+kSpCSQbVgR56DOrVigJjht9KjZjNN5D+9yt8yC5RxTtk72eHgS/Fa0C0+4glEJhnbeTk1J1cQEyQ1nF1wAenf/ECYTveYlrmHJ9TfQ2rqhWyiKazNZXYdOSVZenNdEDBs3LtCyiaFCc1/WyTDhXHgRKhcPufHIomTy6UUxHjb7fI4VIcbogwLa4FImTG0VDY6JdyYTTSD7bma+fZRC47fSTeVwgLl3GTFGqcGp1dt9IGV+uxmS0yKfBjbPyPF3GBKbAXx43p5OiiuIpNKhWPgIq82R/gDu3yGs8JGENtme6HDK2R+MhNrgDzPJ17fnanri03kvy5gCQYFOb4hkjvBpO+ZLqjRYMtoVUujK6DH/0Ur0uLx/+ncUfdk9Px6v66f/2jC4/HU/w4fY3);lineShape=1;" parent="1" vertex="1">
          <mxGeometry x="-3.074451742297697" y="378.0098010440429" width="918.6469142358651" height="22.47371083157168" as="geometry" />
        </mxCell>
        <mxCell id="t9RoJ7oQOVWE5sVN6mZm-49" value="" style="shape=stencil(lVfZctswDPwavWJ4A3xO0//ITJzaUzfOOO7194WqqhJBaTN+k0SsiGMBLof48H58ejsMwb3frpevh5+n59txiJ+GEE6vx8P1dNOnIT4O8eHlcj18uV6+vz5P729Po+X49O3yY/zDrwknJGEEBfd7+uAolr8fPk/m59PrytwXEmnsE+Wwbx8KcWzsvaOQ9wExEqcWkKgCj5InaXfQECpwKWuEbQiBqToAEMrtDjFT8fuAosttUlMkATuwp9gGnQN5BMi2DEXTClziSqm0ACbhfYAE6xInYgEAXeYGII4YFE6USq1LolGBGESo5hZQqcZ9QPXkawOokTxwSZeTAWTKCJBt+1SmhFyqM9X+A7QyoB9GAFtAAdTQ5dwB/rXUNkBsxylAUNBMWSygohjKzM1lCDhyKIg0U2e9RYWVi/UunwKF+6L2lDoAY/a5rhAZxeBncq65gSrnib0FRNBBGnTpdvA4rbXbwYPhqg0RowU4tEPZqLRHMchGWj2YZMv/VoCAAdzxOwG2rti8LjXuas4WUFCaNItdmgQVQjZcQseiFqL0XY1cyraDPuzqaI/qZbrt8TV3XS24hUo//MCpNfZc19UF99x9AD21nKEfz3piG6DqwXAj4x1i13ORAii16GRqSy24DqwnrwHowQdc4k4mqhiACijNp+BKbiB+q2TKnaCpSJTxLCPXkgkM/KJioC3cKMoAILMl3yj7QFpViZoYVFgyyFJSUdbuEAR23Kim27QGrT0gX8hWPfg8k2V79oktnAp8NCxl1kfLBQINPmepqjkDxOsGsYNyzJG3f4+AdG5WXos56jM/33QWcw98D32oDrAnkrN/d8CZNF8oVubo0tNnBpl3Ck/N0XywQ9RBkcBWhTh44ivFrO+o0e+8An9org/LbfvldD5Pl/X1ur2d66fpZh8f/wA=);lineShape=1;" parent="1" vertex="1">
          <mxGeometry x="862.9197258843919" y="44.2558639924689" width="31.76677613904576" height="311.9156367613907" as="geometry" />
        </mxCell>
      </root>
    </mxGraphModel>
  </diagram>
</mxfile>
